<?xml version="1.0" encoding="utf-8"?>
<!-- Generator: Adobe Illustrator 22.1.0, SVG Export Plug-In . SVG Version: 6.00 Build 0)  -->
<svg version="1.1" id="Layer_1" xmlns="http://www.w3.org/2000/svg" xmlns:xlink="http://www.w3.org/1999/xlink" x="0px" y="0px"
	 viewBox="0 0 114.8 89.4" style="enable-background:new 0 0 114.8 89.4;" xml:space="preserve">
<style type="text/css">
	.st0{fill:#5F7C92;}
	.st1{fill:#EEC8AD;}
	.st2{fill:#0C3A5B;}
	.st3{fill:#0D395B;}
	.st4{fill:#E1B597;}
	.st5{fill:#4B6C84;}
	.st6{fill:#70B6E4;}
	.st7{fill:#7692A4;}
	.st8{fill:#4C9BD5;}
	.st9{fill:#FFFFFF;}
</style>
<title>account</title>
<g>
	<path class="st0" d="M15.5,80.6l1-4.7c0.6-2.9,3.1-5.3,6.3-5.9l21.8-4.6L59,74.8l14.6-9.5l21.7,4.6c3.2,0.7,5.6,3,6.3,5.9l1,4.7
		C83.1,85.7,35,85.7,15.5,80.6z"/>
	<g>
		<path class="st1" d="M81.7,30.9H36.4c-0.1,0.6-0.1,1.3-0.1,1.9h-2.1v3.8c0,2.1,1.9,3.8,4.1,3.8v7c0,4,2.2,7.6,5.8,9.7l7.6,4.4
			c2,1.2,4.4,1.8,6.8,1.8h1c2.4,0,4.7-0.6,6.8-1.8l7.6-4.4c3.6-2.1,5.8-5.8,5.8-9.7v-7c2.3,0,4.1-1.7,4.1-3.8v-3.8h-2.1
			C81.8,32.2,81.8,31.5,81.7,30.9z"/>
		<path class="st2" d="M83.9,30.9L83.9,30.9h-4.2c0.1,0.6,0.1,1.3,0.1,1.9c0,1.1,0.9,1.9,2.1,1.9v1.9c0,1.1-0.9,1.9-2.1,1.9
			c-1.1,0-2.1,0.9-2.1,1.9v7c0,3.3-1.8,6.3-4.9,8.1L65.2,60c-1.7,1-3.7,1.5-5.7,1.5h-1c-2,0-4-0.5-5.7-1.5l-7.6-4.4
			c-3-1.8-4.9-4.8-4.9-8.1v-7c0-1.1-0.9-1.9-2.1-1.9c-1.1,0-2.1-0.9-2.1-1.9v-1.9c1.1,0,2.1-0.9,2.1-1.9c0-0.6,0-1.3,0.1-1.9h-4.2
			h-0.1c-1.1,0-2.1,0.9-2.1,1.9v3.8c0,2.5,1.7,4.6,4.1,5.4v5.4c0,4.6,2.5,8.9,6.8,11.3l7.6,4.4c2.4,1.4,5.1,2.1,7.9,2.1h1
			c2.8,0,5.5-0.7,7.9-2.1l7.6-4.4c4.3-2.5,6.8-6.7,6.8-11.3V42c2.4-0.8,4.1-2.9,4.1-5.4v-3.8C86,31.8,85.1,30.9,83.9,30.9z"/>
	</g>
	<path class="st2" d="M104.5,80.2l-1-4.7c-0.8-3.7-3.9-6.6-7.8-7.4L74,63.4c-0.6-0.1-1.2,0-1.7,0.3L59,72.5l-13.2-8.8
		c-0.5-0.3-1.1-0.4-1.7-0.3L22.3,68c-4,0.8-7,3.8-7.8,7.4l-1,4.7c-0.2,1,0.4,1.9,1.5,2.2c9.9,2.6,27,3.9,44.1,3.9c0,0,0,0,0.1,0l0,0
		c0,0,0,0,0.1,0c17.1,0,34.1-1.3,43.9-3.9C104.1,82.1,104.7,81.2,104.5,80.2z M18.6,76.2c0.5-2.2,2.3-4,4.7-4.5l20.9-4.4l13,8.6
		c-0.1,0.2-0.2,0.5-0.2,0.8v5.7c-14.9-0.1-29.6-1.2-39-3.3L18.6,76.2z M61.1,82.5l0-5.8c0-0.3-0.1-0.5-0.2-0.8L74,67.3l20.8,4.4
		c2.4,0.5,4.2,2.3,4.7,4.5l0.6,3C90.7,81.3,76,82.4,61.1,82.5z"/>
	<g>
		<path class="st3" d="M59.1,55.7C59,55.7,59,55.7,59.1,55.7c-2.9,0-5.5-0.8-7.5-2.3c-0.9-0.7-1-1.9-0.3-2.7c0.7-0.8,2-1,2.9-0.3
			c1.3,0.9,3,1.5,4.8,1.5c1.8,0,3.7-0.5,5-1.5c0.9-0.7,2.2-0.5,2.9,0.3c0.7,0.8,0.6,2-0.3,2.7C64.5,54.9,61.9,55.7,59.1,55.7z"/>
	</g>
	<path class="st4" d="M79.8,32.8c0,0-41.4-0.6-41.4,0c0,1.1-0.9,1.9-2.1,1.9h31.1c2.3,0,4.1,1.7,4.1,3.8v17.8l1.3-0.8
		c3-1.7,4.9-4.8,4.9-8.1v-7c0-1,0.9-1.9,2.1-1.9c1.2,0,2.1-0.8,2.1-1.9v-1.9C80.7,34.7,79.8,33.9,79.8,32.8z"/>
	<g>
		<ellipse class="st0" cx="50.7" cy="38.5" rx="6.2" ry="5.7"/>
	</g>
	<g>
		<ellipse class="st0" cx="67.3" cy="38.5" rx="6.2" ry="5.7"/>
	</g>
	<g>
		<path class="st0" d="M79.7,25.2H38.3v-4c0-4.9,1-9.8,3-14.4l0,0c0.7-1.6,2.4-2.6,4.2-2.6l0,0c0.7,0,1.4,0.2,2,0.4l3.6,1.7
			C53.6,7.4,56.3,8,59,8l0,0c2.7,0,5.4-0.6,7.8-1.7l3.6-1.7c0.6-0.3,1.3-0.4,2-0.4l0,0c1.9,0,3.5,1,4.2,2.6l0,0c2,4.6,3,9.4,3,14.4
			V25.2z"/>
		<path class="st0" d="M27.9,29h62.1c0.6,0,1-0.4,1-1s-0.5-1-1-1H79.7H38.3H27.9c-0.6,0-1,0.4-1,1S27.4,29,27.9,29z"/>
		<path class="st2" d="M90.1,23.3h-8.3v-2.1c0-5.2-1.1-10.3-3.1-15.1c-1-2.3-3.4-3.8-6.1-3.8c-1,0-2,0.2-3,0.6l-3.6,1.7
			c-4.3,2-9.6,2-13.8,0l-3.6-1.7c-0.9-0.4-1.9-0.6-3-0.6c-2.7,0-5.1,1.5-6.1,3.8c-2.1,4.8-3.2,9.9-3.2,15.1v2.1h-8.3
			c-2.9,0-5.2,2.1-5.2,4.8s2.3,4.8,5.2,4.8h17.4c-1.7,1.4-2.9,3.4-2.9,5.7c0,4.2,3.7,7.6,8.3,7.6c4.6,0,8.3-3.4,8.3-7.6
			c0,4.2,3.7,7.6,8.3,7.6c4.6,0,8.3-3.4,8.3-7.6c0-2.3-1.1-4.3-2.9-5.7h17.4c2.9,0,5.2-2.1,5.2-4.8S92.9,23.3,90.1,23.3z M40.4,21.2
			c0-4.7,1-9.3,2.9-13.7c0.5-1.2,2.1-1.8,3.4-1.2L50.2,8c5.4,2.5,12.1,2.5,17.5,0l3.6-1.7c1.2-0.6,2.9,0,3.4,1.2
			c1.9,4.4,2.9,9,2.9,13.7v2.1H40.4V21.2z M50.7,44.3c-3.4,0-6.2-2.6-6.2-5.7c0-3.2,2.8-5.7,6.2-5.7c3.4,0,6.2,2.6,6.2,5.7
			C56.9,41.7,54.1,44.3,50.7,44.3z M73.5,38.5c0,3.2-2.8,5.7-6.2,5.7c-3.4,0-6.2-2.6-6.2-5.7c0-3.2,2.8-5.7,6.2-5.7
			C70.7,32.8,73.5,35.4,73.5,38.5z M90.1,29H27.9c-0.6,0-1-0.4-1-1s0.5-1,1-1h10.4h41.4h10.4c0.6,0,1,0.4,1,1S90.6,29,90.1,29z"/>
	</g>
	<g>
		<g>
			<path class="st5" d="M74.8,7.5c-0.5-1.2-2.1-1.8-3.4-1.2l-1.2,0.6c0.2,0.2,0.4,0.4,0.5,0.6c1.9,4.4,2.9,9,2.9,13.7v2.1h4.1v-2.1
				C77.6,16.5,76.7,11.9,74.8,7.5z"/>
		</g>
	</g>
	<g>
		<path class="st6" d="M77.4,17.5H40.6c-0.1,1.2-0.2,2.4-0.2,3.6v2.1h37.3v-2.1C77.6,20,77.6,18.7,77.4,17.5z"/>
	</g>
	<g>
		<path class="st7" d="M50.7,32.8c-3.4,0-6.2,2.6-6.2,5.7c0,0.6,0.1,1.1,0.3,1.6l7.7-7.1C51.9,32.9,51.3,32.8,50.7,32.8z"/>
	</g>
	<g>
		<path class="st7" d="M67.3,32.8c-3.4,0-6.2,2.6-6.2,5.7c0,0.6,0.1,1.1,0.3,1.6l7.7-7.1C68.5,32.9,67.9,32.8,67.3,32.8z"/>
	</g>
	<g>
		<path class="st7" d="M53.9,33.7l-8.5,7.8c0.3,0.4,0.5,0.8,0.9,1.1l8.8-8.1C54.8,34.2,54.4,33.9,53.9,33.7z"/>
	</g>
	<g>
		<path class="st7" d="M70.5,33.7L62,41.5c0.3,0.4,0.5,0.8,0.9,1.1l8.8-8.1C71.3,34.2,70.9,33.9,70.5,33.7z"/>
	</g>
	<g>
		<path class="st8" d="M77.4,17.5h-4.1c0.1,0.5,0.1,1.2,0.1,1.8c0.1,1.1-0.9,2-2.1,2h-31v1.9h33.1h4.1v-2.1
			C77.6,20,77.6,18.7,77.4,17.5z"/>
	</g>
	<g>
		<path class="st0" d="M59,76.7v-8.5c0-4.2,2.5-8.1,6.5-10.1L81.8,50v15.3L59,76.7z"/>
		<path class="st2" d="M59,78.6c-0.4,0-0.7-0.1-1.1-0.3c-0.6-0.3-1-1-1-1.6v-8.5c0-4.9,2.9-9.4,7.6-11.7l16.3-8.2
			c0.6-0.3,1.4-0.3,2,0c0.6,0.3,1,1,1,1.6v15.3c0,0.7-0.4,1.3-1.1,1.7L60,78.4C59.7,78.6,59.3,78.6,59,78.6z M79.7,53.2l-13.2,6.7
			c-3.3,1.7-5.4,4.9-5.4,8.4v5.3l18.6-9.4V53.2z"/>
	</g>
	<g>
		<path class="st5" d="M77.6,54.3v6.3c0,1.4-0.8,2.7-2.2,3.4l-14.4,7.2v2.3l18.6-9.4V53.2L77.6,54.3z"/>
	</g>
	<g>
		<path class="st0" d="M59,76.7v-8.5c0-4.2-2.5-8.1-6.5-10.1L36.2,50v15.3L59,76.7z"/>
		<path class="st2" d="M59,78.6c-0.3,0-0.7-0.1-1-0.2L35.2,67c-0.7-0.3-1.1-1-1.1-1.7V50c0-0.7,0.4-1.3,1-1.6c0.6-0.3,1.4-0.4,2,0
			l16.3,8.2c4.7,2.3,7.6,6.8,7.6,11.7v8.5c0,0.7-0.4,1.3-1,1.6C59.7,78.6,59.4,78.6,59,78.6z M38.3,64.1l18.6,9.4v-5.3
			c0-3.5-2.1-6.7-5.4-8.4l-13.2-6.7V64.1z"/>
	</g>
	<g>
		<polygon class="st5" points="38.3,64.1 56.9,73.5 56.9,71 38.3,61.6 		"/>
	</g>
	<g>
		<ellipse class="st2" cx="53.8" cy="66.2" rx="1" ry="1"/>
	</g>
	<g>
		<ellipse class="st2" cx="64.2" cy="66.2" rx="1" ry="1"/>
	</g>
	<path class="st9" d="M64.3,15.1c0,1.4-1.4,2.5-3.2,2.5h-1.6l-1,1.9c-0.4,0.7-1.3,1-2.2,0.7c0.5-0.9,1.3-2.3,2-3.7
		c1.7-0.7,4.3-1.1,4.3-1.1l0.7,0.3v-0.9c0.1-0.6-0.7-0.5-0.7-0.5l-1.9,0L60,13.9h-2.3c-0.9,0-1.7-0.6-1.7-1.3c1.6,0,5.1,0,5.1,0
		C62.8,12.6,64.3,13.7,64.3,15.1z M58.2,13.8l0.7,0.2l0.2-0.2L58.2,13.8z"/>
</g>
</svg>
