<?xml version="1.0" encoding="utf-8"?>
<!-- Generator: Adobe Illustrator 22.1.0, SVG Export Plug-In . SVG Version: 6.00 Build 0)  -->
<svg version="1.1" id="Layer_1" xmlns="http://www.w3.org/2000/svg" xmlns:xlink="http://www.w3.org/1999/xlink" x="0px" y="0px"
	 viewBox="0 0 132.9 100" style="enable-background:new 0 0 132.9 100;" xml:space="preserve">
<style type="text/css">
	.st0{fill:#F4B444;}
	.st1{fill:#FFCA5B;}
	.st2{fill:#0C3A5B;}
	.st3{fill:#F5B445;}
	.st4{fill:#FFE17A;}
	.st5{fill:#0A3A5B;}
</style>
<title>apps</title>
<g>
	<g>
		<ellipse class="st0" cx="69.3" cy="50.8" rx="22.8" ry="22.2"/>
		<g>
			<path class="st1" d="M56,68.8l31.8-30.9c-2.3-3-5.3-5.5-8.8-7.1L48.7,60.2C50.3,63.6,52.9,66.6,56,68.8z"/>
		</g>
		<g>
			<path class="st1" d="M69.3,73c12.6,0,22.8-9.9,22.8-22.2c0-3-0.6-5.9-1.8-8.5l-29.9,29C63.3,72.4,66.2,73,69.3,73z"/>
		</g>
		<g>
			<g>
				<ellipse class="st1" cx="69.3" cy="50.8" rx="16.6" ry="16.1"/>
			</g>
			<g>
				<path class="st2" d="M69.3,34.7c9.2,0,16.6,7.2,16.6,16.1S78.5,67,69.3,67c-9.2,0-16.6-7.2-16.6-16.1S60.2,34.7,69.3,34.7
					 M69.3,32.7c-10.3,0-18.7,8.1-18.7,18.1S59,69,69.3,69C79.6,69,88,60.8,88,50.8S79.6,32.7,69.3,32.7L69.3,32.7z"/>
			</g>
		</g>
		<g>
			<path class="st3" d="M54.8,52.8c0-8.9,7.4-16.1,16.6-16.1c4.1,0,7.8,1.4,10.7,3.8c-3-3.5-7.6-5.8-12.7-5.8
				c-9.2,0-16.6,7.2-16.6,16.1c0,5,2.3,9.4,6,12.4C56.3,60.4,54.8,56.8,54.8,52.8z"/>
		</g>
		<g>
			<path class="st4" d="M74.2,35.4L53.5,55.6c1.2,3.7,3.7,6.8,7,8.9l22.9-22.2C81.3,39,78,36.5,74.2,35.4z"/>
		</g>
		<g>
			<g>
				<path class="st1" d="M72.8,36.8c3.5,0.3,6.7,1.6,9.3,3.7c-2-2.4-4.8-4.1-7.9-5.1L72.8,36.8z"/>
			</g>
			<g>
				<path class="st1" d="M58.7,63.2c-2.1-2.5-3.5-5.6-3.8-9l-1.4,1.4C54.4,58.6,56.2,61.2,58.7,63.2z"/>
			</g>
		</g>
		<g>
			<path class="st4" d="M69.3,67c9.2,0,16.6-7.2,16.6-16.1c0-1.3-0.2-2.5-0.5-3.7l-20,19.4C66.7,66.8,68,67,69.3,67z"/>
		</g>
		<path class="st5" d="M81.5,48c0,3.8-3.6,6.9-8,6.9h-4.1l-2.6,5.3c-0.9,1.8-3.3,2.7-5.4,1.9c1.2-2.4,3.1-6.5,4.9-10.2
			c4.2-1.9,10.5-3.1,10.5-3.1l1.7,1v-2.4c0.1-1.6-1.6-1.5-1.6-1.5l-4.6,0l-1.6-1.1h-5.6c-2.3,0-4.1-1.6-4.1-3.6c3.9,0,12.5,0,12.5,0
			C77.9,41.1,81.5,44.2,81.5,48z M68.1,45.6l2.3,0.9l0.6-0.9L68.1,45.6z"/>
	</g>
	<g>
		<rect x="67.3" y="75" class="st2" width="4.2" height="6"/>
	</g>
	<path class="st2" d="M110.6,83.4l-3.7-26.9c2.3-0.9,3.9-3.1,3.9-5.6s-1.6-4.7-3.9-5.6l3.7-26.9c2.5-0.8,4.4-3,4.4-5.7
		c0-3.3-2.8-6-6.2-6c-2.8,0-5.1,1.8-5.9,4.2l-27.8,3.6c-0.9-2.2-3.2-3.8-5.8-3.8c-2.6,0-4.9,1.6-5.8,3.8l-27.8-3.6
		c-0.8-2.4-3.1-4.2-5.9-4.2c-3.4,0-6.2,2.7-6.2,6c0,2.7,1.8,5,4.4,5.7l3.7,26.9c-2.3,0.9-3.9,3.1-3.9,5.6s1.6,4.7,3.9,5.6L28,83.4
		c-2.5,0.8-4.4,3-4.4,5.7c0,3.3,2.8,6,6.2,6c2.8,0,5.1-1.8,5.9-4.2l27.8-3.6c0.9,2.2,3.2,3.8,5.8,3.8c2.6,0,4.9-1.6,5.8-3.8
		l27.8,3.6c0.8,2.4,3.1,4.2,5.9,4.2c3.4,0,6.2-2.7,6.2-6C115,86.4,113.1,84.2,110.6,83.4z M108.8,10.5c1.1,0,2.1,0.9,2.1,2
		s-0.9,2-2.1,2c-1.1,0-2.1-0.9-2.1-2S107.6,10.5,108.8,10.5z M106.1,18c0.1,0.1,0.2,0.1,0.4,0.2l-3.7,26.9c-1.9,0.6-3.3,1.9-4,3.7
		h-2.6c-0.5-5.7-2.8-10.9-6.4-15L106.1,18z M106.7,50.8c0,1.1-0.9,2-2.1,2c-1.1,0-2.1-0.9-2.1-2s0.9-2,2.1-2
		C105.8,48.8,106.7,49.7,106.7,50.8z M69.3,73c-12.6,0-22.8-9.9-22.8-22.2s10.2-22.2,22.8-22.2c12.6,0,22.8,9.9,22.8,22.2
		S81.9,73,69.3,73z M75.2,18.4l27.8-3.6c0,0.1,0.1,0.2,0.2,0.3L86.9,31c-4.2-3.5-9.6-5.8-15.5-6.2v-2.5
		C73.2,21.6,74.7,20.2,75.2,18.4z M69.3,14.5c1.1,0,2.1,0.9,2.1,2s-0.9,2-2.1,2c-1.1,0-2.1-0.9-2.1-2S68.2,14.5,69.3,14.5z
		 M35.7,14.8l27.8,3.6c0.6,1.8,2,3.2,3.8,3.9v2.5C61.4,25.2,56,27.4,51.8,31L35.5,15.1C35.6,15,35.6,14.9,35.7,14.8z M32.6,18
		l16.3,15.8c-3.6,4.1-6,9.3-6.4,15h-2.6c-0.7-1.8-2.1-3.2-4-3.7l-3.7-26.9C32.3,18.1,32.4,18,32.6,18z M29.9,14.5
		c-1.1,0-2.1-0.9-2.1-2s0.9-2,2.1-2c1.1,0,2.1,0.9,2.1,2S31,14.5,29.9,14.5z M29.9,91.1c-1.1,0-2.1-0.9-2.1-2c0-1.1,0.9-2,2.1-2
		c1.1,0,2.1,0.9,2.1,2C32,90.2,31,91.1,29.9,91.1z M34.1,48.8c1.1,0,2.1,0.9,2.1,2s-0.9,2-2.1,2c-1.1,0-2.1-0.9-2.1-2
		S32.9,48.8,34.1,48.8z M32.6,83.7c-0.1-0.1-0.2-0.1-0.4-0.2l3.7-26.9c1.9-0.6,3.3-1.9,4-3.7h2.6c0.5,5.7,2.8,10.9,6.4,15L32.6,83.7
		z M69.3,87.1c-1.1,0-2.1-0.9-2.1-2s0.9-2,2.1-2c1.1,0,2.1,0.9,2.1,2S70.5,87.1,69.3,87.1z M103,86.9l-27.8-3.6
		c-0.8-2.4-3.1-4.2-5.9-4.2c-2.8,0-5.1,1.8-5.9,4.2l-27.8,3.6c0-0.1-0.1-0.2-0.2-0.3l16.3-15.8c4.7,3.9,10.8,6.3,17.5,6.3
		c6.7,0,12.8-2.4,17.5-6.3l16.3,15.8C103.1,86.6,103,86.8,103,86.9z M106.1,83.7L89.8,67.9c3.6-4.1,6-9.3,6.4-15h2.6
		c0.7,1.8,2.1,3.2,4,3.7l3.7,26.9C106.3,83.6,106.2,83.6,106.1,83.7z M108.8,91.1c-1.1,0-2.1-0.9-2.1-2c0-1.1,0.9-2,2.1-2
		c1.1,0,2.1,0.9,2.1,2C110.8,90.2,109.9,91.1,108.8,91.1z"/>
</g>
</svg>
