<?xml version="1.0" encoding="utf-8"?>
<!-- Generator: Adobe Illustrator 22.1.0, SVG Export Plug-In . SVG Version: 6.00 Build 0)  -->
<svg version="1.1" id="Layer_1" xmlns="http://www.w3.org/2000/svg" xmlns:xlink="http://www.w3.org/1999/xlink" x="0px" y="0px"
	 viewBox="0 0 113.3 83" style="enable-background:new 0 0 113.3 83;" xml:space="preserve">
<style type="text/css">
	.st0{fill:#2A5367;}
	.st1{fill:#EBEFF8;}
	.st2{fill:#0C3A5B;}
	.st3{fill:#FFFFFF;}
	.st4{fill:#FFCA5C;}
	.st5{fill:#EF4C4E;}
	.st6{fill:#F4B444;}
	.st7{fill:#FFCA5B;}
	.st8{fill:#0A3A5B;}
</style>
<title>code</title>
<g>
	<path class="st0" d="M101,71.6H13.3c-1.1,0-2-0.9-2-2V15.2H103v54.4C103,70.7,102.1,71.6,101,71.6z"/>
	<g>
		<path class="st1" d="M103,15.2H11.3V5.1c0-1.1,0.9-2,2-2H101c1.1,0,2,0.9,2,2V15.2z"/>
		<path class="st2" d="M98.6,1.1H15.7c-3.6,0-6.5,2.7-6.5,6v8.1v52.4c0,3.3,2.9,6,6.5,6h82.9c3.6,0,6.5-2.7,6.5-6V15.2V7.1
			C105.1,3.8,102.2,1.1,98.6,1.1z M13.5,7.1c0-1.1,1-2,2.2-2h82.9c1.2,0,2.2,0.9,2.2,2v6H13.5V7.1z M100.8,67.5c0,1.1-1,2-2.2,2
			H15.7c-1.2,0-2.2-0.9-2.2-2V17.2h87.3V67.5z"/>
	</g>
	<g>
		<ellipse class="st2" cx="20" cy="9.1" rx="2.2" ry="2"/>
	</g>
	<g>
		<ellipse class="st2" cx="28.8" cy="9.1" rx="2.2" ry="2"/>
	</g>
	<g>
		<ellipse class="st2" cx="37.5" cy="9.1" rx="2.2" ry="2"/>
	</g>
	<g>
		<g>
			<path class="st3" d="M17.9,22.2c0-0.6,0.5-1,1.1-1H32c0.6,0,1.1,0.5,1.1,1s-0.5,1-1.1,1H19C18.4,23.2,17.9,22.8,17.9,22.2z"/>
		</g>
	</g>
	<g>
		<g>
			<path class="st3" d="M37.5,64.5c0-0.6,0.5-1,1.1-1h13.1c0.6,0,1.1,0.5,1.1,1c0,0.6-0.5,1-1.1,1H38.6C38,65.5,37.5,65.1,37.5,64.5
				z"/>
		</g>
	</g>
	<g>
		<g>
			<path class="st3" d="M24.4,28.3c0-0.6,0.5-1,1.1-1h13.1c0.6,0,1.1,0.5,1.1,1c0,0.6-0.5,1-1.1,1H25.5
				C24.9,29.3,24.4,28.8,24.4,28.3z"/>
		</g>
	</g>
	<g>
		<g>
			<path class="st3" d="M55,58.5c0-0.6,0.5-1,1.1-1h13.1c0.6,0,1.1,0.5,1.1,1c0,0.6-0.5,1-1.1,1H56C55.4,59.5,55,59,55,58.5z"/>
		</g>
	</g>
	<g>
		<g>
			<path class="st3" d="M70.2,28.3c0-0.6,0.5-1,1.1-1h13.1c0.6,0,1.1,0.5,1.1,1c0,0.6-0.5,1-1.1,1H71.3
				C70.7,29.3,70.2,28.8,70.2,28.3z"/>
		</g>
	</g>
	<g>
		<g>
			<path class="st3" d="M44,46.4c0-0.6,0.5-1,1.1-1h13.1c0.6,0,1.1,0.5,1.1,1c0,0.6-0.5,1-1.1,1H45.1C44.5,47.4,44,46.9,44,46.4z"/>
		</g>
	</g>
	<g>
		<g>
			<path class="st4" d="M55,34.3c0-0.6,0.5-1,1.1-1h13.1c0.6,0,1.1,0.5,1.1,1c0,0.6-0.5,1-1.1,1H56C55.4,35.3,55,34.9,55,34.3z"/>
		</g>
	</g>
	<g>
		<g>
			<path class="st4" d="M24.4,46.4c0-0.6,0.5-1,1.1-1h13.1c0.6,0,1.1,0.5,1.1,1c0,0.6-0.5,1-1.1,1H25.5
				C24.9,47.4,24.4,46.9,24.4,46.4z"/>
		</g>
	</g>
	<g>
		<g>
			<path class="st4" d="M57.1,64.5c0-0.6,0.5-1,1.1-1H67c0.6,0,1.1,0.5,1.1,1c0,0.6-0.5,1-1.1,1h-8.7C57.6,65.5,57.1,65.1,57.1,64.5
				z"/>
		</g>
	</g>
	<g>
		<g>
			<path class="st5" d="M44,28.3c0-0.6,0.5-1,1.1-1h6.5c0.6,0,1.1,0.5,1.1,1c0,0.6-0.5,1-1.1,1h-6.5C44.5,29.3,44,28.8,44,28.3z"/>
		</g>
	</g>
	<g>
		<g>
			<path class="st3" d="M57.1,28.3c0-0.6,0.5-1,1.1-1h6.5c0.6,0,1.1,0.5,1.1,1c0,0.6-0.5,1-1.1,1h-6.5
				C57.6,29.3,57.1,28.8,57.1,28.3z"/>
		</g>
	</g>
	<g>
		<g>
			<path class="st3" d="M24.4,52.4c0-0.6,0.5-1,1.1-1H32c0.6,0,1.1,0.5,1.1,1c0,0.6-0.5,1-1.1,1h-6.5C24.9,53.4,24.4,53,24.4,52.4z"
				/>
		</g>
	</g>
	<g>
		<g>
			<path class="st3" d="M17.9,40.3c0-0.6,0.5-1,1.1-1h6.5c0.6,0,1.1,0.5,1.1,1c0,0.6-0.5,1-1.1,1H19C18.4,41.4,17.9,40.9,17.9,40.3z
				"/>
		</g>
	</g>
	<g>
		<g>
			<path class="st5" d="M68,52.4c0-0.6,0.5-1,1.1-1h6.5c0.6,0,1.1,0.5,1.1,1c0,0.6-0.5,1-1.1,1h-6.5C68.5,53.4,68,53,68,52.4z"/>
		</g>
	</g>
	<g>
		<g>
			<path class="st5" d="M24.4,64.5c0-0.6,0.5-1,1.1-1H32c0.6,0,1.1,0.5,1.1,1c0,0.6-0.5,1-1.1,1h-6.5C24.9,65.5,24.4,65.1,24.4,64.5
				z"/>
		</g>
	</g>
	<g>
		<g>
			<path class="st3" d="M24.4,34.3c0-0.6,0.5-1,1.1-1h24c0.6,0,1.1,0.5,1.1,1c0,0.6-0.5,1-1.1,1h-24C24.9,35.3,24.4,34.9,24.4,34.3z
				"/>
		</g>
	</g>
	<g>
		<g>
			<path class="st3" d="M37.5,52.4c0-0.6,0.5-1,1.1-1h24c0.6,0,1.1,0.5,1.1,1c0,0.6-0.5,1-1.1,1h-24C38,53.4,37.5,53,37.5,52.4z"/>
		</g>
	</g>
	<g>
		<g>
			<path class="st3" d="M24.4,58.5c0-0.6,0.5-1,1.1-1h24c0.6,0,1.1,0.5,1.1,1c0,0.6-0.5,1-1.1,1h-24C24.9,59.5,24.4,59,24.4,58.5z"
				/>
		</g>
	</g>
	<g>
		<g>
			<ellipse class="st6" cx="83.3" cy="61.5" rx="17.5" ry="16.1"/>
			<path class="st2" d="M83.3,81.6c-12,0-21.8-9-21.8-20.1s9.8-20.1,21.8-20.1c12,0,21.8,9,21.8,20.1S95.4,81.6,83.3,81.6z
				 M83.3,45.4c-9.6,0-17.5,7.2-17.5,16.1s7.8,16.1,17.5,16.1c9.6,0,17.5-7.2,17.5-16.1S92.9,45.4,83.3,45.4z"/>
		</g>
		<g>
			<path class="st7" d="M88.4,46.1L66.6,66.2c1.2,3.7,3.9,6.8,7.4,8.9l24.1-22.2C95.8,49.7,92.5,47.2,88.4,46.1z"/>
		</g>
		<g>
			<path class="st7" d="M83.3,77.6c9.6,0,17.5-7.2,17.5-16.1c0-1.3-0.2-2.5-0.5-3.7l-21,19.4C80.6,77.4,81.9,77.6,83.3,77.6z"/>
		</g>
		<path class="st8" d="M96,58.6c0,3.8-3.8,6.9-8.4,6.9h-4.3l-2.7,5.3c-0.9,1.8-3.5,2.7-5.7,1.9c1.2-2.4,3.3-6.5,5.2-10.2
			c4.4-1.9,11.1-3.1,11.1-3.1l1.8,1V58c0.1-1.6-1.7-1.5-1.7-1.5l-4.9,0l-1.7-1.1h-5.9c-2.4,0-4.4-1.6-4.4-3.6c4.1,0,13.2,0,13.2,0
			C92.2,51.8,96,54.9,96,58.6z M81.9,56.2l2.5,0.9l0.6-0.9L81.9,56.2z"/>
	</g>
</g>
</svg>
