<svg id="Layer_1" data-name="Layer 1" xmlns="http://www.w3.org/2000/svg" viewBox="0 0 987.15 593.24"><defs><style>.cls-1{fill:#0e1822;}</style></defs><title>hero</title><polygon class="cls-1" points="461.83 368.96 482.13 392.06 457.51 371.13 461.83 368.96"/><path class="cls-1" d="M472,417.76l16.93-8.53a3,3,0,0,0,2.61,1l2.06,32.07Z" transform="translate(-9.58 -49.07)"/><path class="cls-1" d="M462.17,409.26h0a2.4,2.4,0,0,0,1.13-.44l7.89,9-4.37,2.2-5-4.27Z" transform="translate(-9.58 -49.07)"/><path class="cls-1" d="M490.48,404.27a3,3,0,0,0-1.51.88l-7.55-6.66,6.18-2.79,1,.9Z" transform="translate(-9.58 -49.07)"/><path class="cls-1" d="M493.77,405.58a3,3,0,0,0-2.71-1.39l-1.69-6.89,6.78,6.15Z" transform="translate(-9.58 -49.07)"/><path class="cls-1" d="M420.67,380.57l12.76,2.85a2.16,2.16,0,0,0,0,.44,2.35,2.35,0,0,0,2.62,2.06,2.31,2.31,0,0,0,1.59-.92l22.2,20.33a2.49,2.49,0,0,0,.67,3.52L458,412.48l-36.67-31.16Z" transform="translate(-9.58 -49.07)"/><polygon class="cls-1" points="477.8 346.41 471.61 349.21 453.83 333.52 463.06 333.05 477.8 346.41"/><path class="cls-1" d="M396,368.79l18.46,1.51-8.57,6.24-10.23-7.23A1.38,1.38,0,0,0,396,368.79Z" transform="translate(-9.58 -49.07)"/><path class="cls-1" d="M414.64,370.52,412.69,381a.34.34,0,0,0-.14,0,.39.39,0,0,0-.11.06l-.09.05-6.22-4.41Z" transform="translate(-9.58 -49.07)"/><path class="cls-1" d="M413.72,381.41l4.87-1.5,0,0,0,0,6,6.94Z" transform="translate(-9.58 -49.07)"/><path class="cls-1" d="M488.74,405.41l-9.59-5.89,2-.9,7.64,6.75S488.76,405.4,488.74,405.41Z" transform="translate(-9.58 -49.07)"/><path class="cls-1" d="M477.88,399.77l-13.62,6.15a2.54,2.54,0,0,0-1.73-1.57l.5-13.7Z" transform="translate(-9.58 -49.07)"/><path class="cls-1" d="M395.09,369.65a1.73,1.73,0,0,0,.34-.14l10.2,7.21-4.58,3.34Z" transform="translate(-9.58 -49.07)"/><polygon class="cls-1" points="469.27 350.26 453.5 340.57 453.75 333.83 471.31 349.34 469.27 350.26"/><path class="cls-1" d="M471.75,417.53l-8-9.1a2.48,2.48,0,0,0,.63-2,2.44,2.44,0,0,0-.06-.26L478.18,400l10.15,6.24a3,3,0,0,0-.17,1.4,3,3,0,0,0,.55,1.4Z" transform="translate(-9.58 -49.07)"/><path class="cls-1" d="M441.08,377.17l21.38,13.13-.51,14a2.08,2.08,0,0,0-.35,0,2.48,2.48,0,0,0-1.36.62L438,384.48a2.34,2.34,0,0,0-2.42-3.24l-2.17-3,7.7-1.06Z" transform="translate(-9.58 -49.07)"/><path class="cls-1" d="M432.46,363.51l6.81.16a.31.31,0,0,0,.08.15l4.15,4.79Z" transform="translate(-9.58 -49.07)"/><path class="cls-1" d="M431.78,377.58a.29.29,0,0,0,0,.09.38.38,0,0,0,0,.1s0,.07,0,.1v0a.72.72,0,0,0,.1.24l2.56,3.55a2,2,0,0,0-.28.23L415,370.12l.9-3.95Z" transform="translate(-9.58 -49.07)"/><polygon class="cls-1" points="434.04 319.91 430.56 320.76 429.9 320.61 423.11 314.86 434.04 319.91"/><path class="cls-1" d="M445.23,369.52a.56.56,0,0,0,0-.34.6.6,0,0,0-.49-.44l-4.29-4.95,2.72-.69.07,0h0l18.37,18.23Z" transform="translate(-9.58 -49.07)"/><path class="cls-1" d="M440,371h.27l4.56-1.12a.46.46,0,0,0,.23-.12l17.69,12.68-.25,6.85-21-12.87,0-.08a.86.86,0,0,0-.07-.1l0-.06-6.7-6.42Z" transform="translate(-9.58 -49.07)"/><polygon class="cls-1" points="499.13 365.37 512 370.12 508.07 373.49 499.13 365.37"/><polygon class="cls-1" points="478.08 346.28 463.47 333.03 475.31 332.43 478.65 346.03 478.08 346.28"/><polygon class="cls-1" points="478.32 346.5 478.72 346.31 478.9 347.02 478.32 346.5"/><polygon class="cls-1" points="456.06 333.11 462.04 332.13 462.75 332.77 456.06 333.11"/><polygon class="cls-1" points="475.24 332.14 463.16 332.75 462.41 332.07 474.72 330.04 475.24 332.14"/><polygon class="cls-1" points="494.68 347.16 486.8 354.19 479.67 347.72 479.26 346.07 490.01 341.21 494.68 347.16"/><polygon class="cls-1" points="498.28 343.95 494.9 346.97 490.29 341.09 493.63 339.58 498.28 343.95"/><path class="cls-1" d="M529.17,413.05l13.56,12.73c0,.07-.06.16-.1.23l-20-7.36Z" transform="translate(-9.58 -49.07)"/><polygon class="cls-1" points="453.77 333.19 454.07 324.9 461.76 331.88 453.77 333.19"/><polygon class="cls-1" points="527.42 357.25 531.5 353.74 535.38 374.18 527.42 357.25"/><path class="cls-1" d="M520,382.21l-10.82,9.65-4.24-4,14.59-6.59A4.43,4.43,0,0,0,520,382.21Z" transform="translate(-9.58 -49.07)"/><path class="cls-1" d="M443.16,359.69l-10-1.17H433L431,354.34Z" transform="translate(-9.58 -49.07)"/><polygon class="cls-1" points="406.15 316.61 395.94 309.27 406.56 314.79 406.15 316.61"/><path class="cls-1" d="M463,373.72a.28.28,0,0,0,.09.1l-.3,8.17-19.29-19.13h0l0,0a.13.13,0,0,0,0-.06.13.13,0,0,0,0-.06.41.41,0,0,0,0-.11s0,0,0,0l0,0a.36.36,0,0,0,0-.09.21.21,0,0,1,0-.06l-.07-.06-.07-.05h0l-6.61-2.46,8.35,1h.14l.09,0,.06,0h0l17.47,12.54Z" transform="translate(-9.58 -49.07)"/><polygon class="cls-1" points="406.08 316.92 405.18 320.87 391.89 311.19 394.25 308.42 406.08 316.92"/><path class="cls-1" d="M431.11,368a1.36,1.36,0,0,0-.11.7,1.43,1.43,0,0,0,1.6,1.26,1.28,1.28,0,0,0,.42-.13l5.74,5.5L416.47,363.7l.83-3.64Z" transform="translate(-9.58 -49.07)"/><path class="cls-1" d="M439.71,376.19l-7.47,1h0l-.16,0-.06,0h0l0,0-16-11.48.42-1.86,23.11,12Z" transform="translate(-9.58 -49.07)"/><path class="cls-1" d="M396,368.5a1.13,1.13,0,0,0,0-.32,1.33,1.33,0,0,0-.54-.93l5.76-6.77L414.34,370Z" transform="translate(-9.58 -49.07)"/><path class="cls-1" d="M432.64,358.87v.07s0,.05,0,.08a.19.19,0,0,0,0,.08l0,.07s0,.05.06.07l0,.05h0l-1.13,3.84-3.61-1.75-5.63-8.51Z" transform="translate(-9.58 -49.07)"/><path class="cls-1" d="M438.85,369.54l-5-1.17s0,0,0-.06a1.45,1.45,0,0,0-1.61-1.27,1.6,1.6,0,0,0-.37.12l-3.5-5.29,3.29,1.6Z" transform="translate(-9.58 -49.07)"/><path class="cls-1" d="M427.87,361.61l3.76,5.69a1.18,1.18,0,0,0-.38.39l-13.88-7.93.66-2.93Z" transform="translate(-9.58 -49.07)"/><polygon class="cls-1" points="446.5 376.68 451.54 374.14 451.08 382.54 446.5 376.68"/><polygon class="cls-1" points="334.54 295.59 325.8 298.13 325.79 298.06 328.84 292.86 334.54 295.59"/><path class="cls-1" d="M344.71,344.49l-.18.05-6-2.86,3.09-5.25h0a.42.42,0,0,0,.22,0s0,0,0,0l.37-.16,1.32.2Z" transform="translate(-9.58 -49.07)"/><path class="cls-1" d="M349.05,336l-.42.87-4.77-.72-.09-.64a.31.31,0,0,0,.14-.11h0l0,0,0,0,5,.54Z" transform="translate(-9.58 -49.07)"/><path class="cls-1" d="M379.17,347.05l3.72-5.55a1.57,1.57,0,0,0,.86.14,1.68,1.68,0,0,0,.84-.36L395.53,356Z" transform="translate(-9.58 -49.07)"/><polygon class="cls-1" points="340.73 288.08 339.82 286.92 339.85 286.87 349.76 287.94 351.35 289.69 340.73 288.08"/><path class="cls-1" d="M398.64,349.93l4.86,7.18-7.28-.75L398,350A1.15,1.15,0,0,0,398.64,349.93Z" transform="translate(-9.58 -49.07)"/><path class="cls-1" d="M526.55,383a4.26,4.26,0,0,0,1.25-2.34l9.51,2.37,3.45,18.12Z" transform="translate(-9.58 -49.07)"/><path class="cls-1" d="M403.88,357.14l-5-7.33.17-.17,12.48,7.13Z" transform="translate(-9.58 -49.07)"/><polygon class="cls-1" points="477.59 392.55 482.46 396.47 473.33 410.67 472.68 410.15 454.29 386.64 477.59 392.55"/><path class="cls-1" d="M547.14,423.51l1.23-11.71,10.85,13.86-8.5,1.17A4.28,4.28,0,0,0,547.14,423.51Z" transform="translate(-9.58 -49.07)"/><polygon class="cls-1" points="329.3 285.38 329.55 284.72 330.83 286.13 329.3 285.38"/><polygon class="cls-1" points="354.18 289.25 352.36 289.5 350.96 287.96 351.81 287.3 354.23 288.42 354.18 289.25"/><path class="cls-1" d="M419.18,379H419s0,0-.05,0l-3.81-8.48,18.75,11.56a2,2,0,0,0-.12.19L419.22,379Z" transform="translate(-9.58 -49.07)"/><polygon class="cls-1" points="353.16 303.56 351.71 309.79 337.16 302.46 353.16 303.56"/><path class="cls-1" d="M417.65,356.48l-5.55.27-12.84-7.34.06-.15,14.49,2.12Z" transform="translate(-9.58 -49.07)"/><polygon class="cls-1" points="355.07 289.13 355.11 288.49 359 287.52 360.65 288.36 355.07 289.13"/><path class="cls-1" d="M413.56,351.05,399.4,349a.86.86,0,0,0,0-.32l9.83-3.34Z" transform="translate(-9.58 -49.07)"/><polygon class="cls-1" points="432.07 303.1 431.24 303.08 431.9 302.99 432.07 303.1"/><path class="cls-1" d="M565.57,503.72l-22.13-33.18a3.11,3.11,0,0,0,.52-.25L581,508.66Z" transform="translate(-9.58 -49.07)"/><path class="cls-1" d="M444.86,355l-14.15-1.18-2.6-5.27,7.64,3.73s0,.07,0,.1a.46.46,0,0,0,.36.38h.14l.89-.13,4.93.11s0,.05.06.07l2.95,2.17Z" transform="translate(-9.58 -49.07)"/><path class="cls-1" d="M523.08,375.64a4.29,4.29,0,0,0-3.29,2.25l-11-3.21,29.06-32.89.25.23-13.82,33.66A3.94,3.94,0,0,0,523.08,375.64Z" transform="translate(-9.58 -49.07)"/><path class="cls-1" d="M428.72,347.93l3.33-1.71a.38.38,0,0,0,.23.11h.46l1.06.7Z" transform="translate(-9.58 -49.07)"/><polygon class="cls-1" points="498.49 344.15 519.38 363.77 512.76 369.46 512.48 369.36 495.08 347.2 498.49 344.15"/><polygon class="cls-1" points="526.05 358.43 533.8 374.91 520.93 362.83 526.05 358.43"/><path class="cls-1" d="M520.16,382.45a4.25,4.25,0,0,0,3.93,1.71,4.19,4.19,0,0,0,.51-.11l10.89,23.17-5.2,4.48-20.91-19.64Z" transform="translate(-9.58 -49.07)"/><polygon class="cls-1" points="446.5 367.18 448.69 364.03 451.94 366.79 451.69 371.35 446.5 367.18"/><path class="cls-1" d="M461.88,409.27l-.34,6.22-3.1-2.63,2.61-3.74A2.78,2.78,0,0,0,461.88,409.27Z" transform="translate(-9.58 -49.07)"/><path class="cls-1" d="M395.26,367.11a1.44,1.44,0,0,0-.62-.14l1.51-10.22,4.89,3.56Z" transform="translate(-9.58 -49.07)"/><polygon class="cls-1" points="487.01 354.39 494.86 347.39 511.96 369.17 497.4 363.81 487.01 354.39"/><path class="cls-1" d="M439.57,363.11h0l-.11.05s0,0,0,0h0l0,.05a.18.18,0,0,0-.05.07.08.08,0,0,0,0,.05l-7.32-.17,1.12-3.79,8.54,3.18Z" transform="translate(-9.58 -49.07)"/><path class="cls-1" d="M418.72,379.16h0s0,0-.05.06a.35.35,0,0,0,0,.08.67.67,0,0,0-.06.12s0,0,0,.05,0,0,0,0a.41.41,0,0,0,0,.11l-5.16,1.59L413,381h0l1.92-10.36Z" transform="translate(-9.58 -49.07)"/><path class="cls-1" d="M494.24,406.87a3,3,0,0,0-.32-1l2.45-2.19,9.87,9-12.12-4.47A3.17,3.17,0,0,0,494.24,406.87Z" transform="translate(-9.58 -49.07)"/><polygon class="cls-1" points="451.67 371.7 451.56 373.8 446.31 376.44 443 372.2 446.34 367.42 451.67 371.7"/><polygon class="cls-1" points="344.25 292.56 340.99 288.42 351.59 290.02 344.25 292.56"/><path class="cls-1" d="M360.6,343.84l-5,0-1.56-2,7.41-2.57,0,0h0a.29.29,0,0,0,.12.07l-.53,4.14A.73.73,0,0,0,360.6,343.84Z" transform="translate(-9.58 -49.07)"/><polygon class="cls-1" points="358.79 296.57 358.82 295.56 358.82 295.56 360.05 295.18 358.79 296.57"/><path class="cls-1" d="M353.72,342l1.49,1.89-3.41,0h0l-4.63.37Z" transform="translate(-9.58 -49.07)"/><polygon class="cls-1" points="340.3 288.02 339.36 287.87 339.68 287.22 340.3 288.02"/><path class="cls-1" d="M493.66,409a.61.61,0,0,0,.07-.1L508,414.18l9.46,8.57L515,424.88Z" transform="translate(-9.58 -49.07)"/><polygon class="cls-1" points="336.39 295.29 335.73 295.34 339.22 288.15 340.57 288.35 343.95 292.67 336.39 295.29"/><polygon class="cls-1" points="516.77 334.59 531.41 353.31 531.44 353.41 527.3 356.97 516.77 334.59"/><path class="cls-1" d="M364.51,351.66l4-4.87h0l0,0h0l2-2.17a1.21,1.21,0,0,0,.95.32,1.24,1.24,0,0,0,1-.75l6.15,2.92Z" transform="translate(-9.58 -49.07)"/><path class="cls-1" d="M455.62,425.65l-6.38,3.21a4.13,4.13,0,0,0-1-1.38l4.14-6Z" transform="translate(-9.58 -49.07)"/><path class="cls-1" d="M368.06,346l-.07.08-14.73.38-5.58-1.34,4.12-.33h0l8.76-.06a.79.79,0,0,0,1.37,0l6.17,0Z" transform="translate(-9.58 -49.07)"/><path class="cls-1" d="M527.85,380.35c0-.1,0-.2,0-.31l9,.73.53,2Z" transform="translate(-9.58 -49.07)"/><polygon class="cls-1" points="537.85 360.58 531.97 353.06 528.65 335.64 538.55 353.9 537.85 360.58"/><path class="cls-1" d="M542,464.44a3.19,3.19,0,0,0-2,1.11l-44.31-21.84,47.57,10.42-1.08,10.31Z" transform="translate(-9.58 -49.07)"/><polygon class="cls-1" points="550.31 376.5 538.88 361.9 539.53 355.72 550.75 376.44 550.31 376.5"/><path class="cls-1" d="M519.46,378.7a4.52,4.52,0,0,0-.14.75l-22.16,1.13-3.26-3.06,13.73-2.26Z" transform="translate(-9.58 -49.07)"/><path class="cls-1" d="M527.85,379.46v-.06a4.28,4.28,0,0,0-2.46-3.39l6.16-15,5.15,19.15Z" transform="translate(-9.58 -49.07)"/><polygon class="cls-1" points="550.72 377.03 551.05 376.98 551.87 378.5 550.72 377.03"/><path class="cls-1" d="M532.63,431.89l9.81-2.9a4.31,4.31,0,0,0,3.09,2.92L544,446.39Z" transform="translate(-9.58 -49.07)"/><polygon class="cls-1" points="484.97 394.1 484.93 394.08 516.8 384.67 534.39 397.76 533.65 404.76 484.97 394.1"/><path class="cls-1" d="M550.82,427.4l8.81-1.21,3,3.89-11.86-1.87A4.37,4.37,0,0,0,550.82,427.4Z" transform="translate(-9.58 -49.07)"/><polygon class="cls-1" points="482.95 331.74 480.82 329.03 482.15 328.81 485.15 331.63 482.95 331.74"/><polygon class="cls-1" points="357.67 297.88 353.88 302.51 345.39 298.2 357.67 297.88"/><path class="cls-1" d="M371,342.54a1.18,1.18,0,0,0-.73.6l-2.06.65h-.07l-3.49-4.71,6.85-.94Z" transform="translate(-9.58 -49.07)"/><polygon class="cls-1" points="335.76 296.36 343.5 298.22 351.28 302.17 335.71 298.41 335.76 296.36"/><polygon class="cls-1" points="335.42 295.31 334.33 287.41 338.92 288.1 335.42 295.31"/><path class="cls-1" d="M372.5,343.88a1.13,1.13,0,0,0-1.22-1.39l.47-4.11,6.7,8.32Z" transform="translate(-9.58 -49.07)"/><path class="cls-1" d="M478.51,368.09a.31.31,0,0,1,0,.08l-14.81,5.08-7.31-14.37,22.22,7.49A4.94,4.94,0,0,0,478.51,368.09Z" transform="translate(-9.58 -49.07)"/><path class="cls-1" d="M461.93,371.65,450,358.06h0l0,0,0,0h0l-4.83-.29s0,0,0,0,0-.07,0-.1l0,0a.27.27,0,0,0-.08-.07l0,0-2.19-1.26,3.54-.48.07,0,.06,0a.31.31,0,0,0,.16-.12l8.69,2.93Z" transform="translate(-9.58 -49.07)"/><polygon class="cls-1" points="408.37 307.32 404.64 302.37 412.09 303.46 408.37 307.32"/><polygon class="cls-1" points="480.61 328.77 476.42 323.42 481.88 328.56 480.61 328.77"/><polygon class="cls-1" points="420.79 304.73 412.76 303.28 418.16 299.4 420.79 304.73"/><path class="cls-1" d="M492.07,410.16a3.06,3.06,0,0,0,1.41-.91l21.25,15.82-20.57,17.69Z" transform="translate(-9.58 -49.07)"/><polygon class="cls-1" points="348.29 302.35 335.87 301.5 335.62 301.43 335.68 299.3 348.29 302.35"/><polygon class="cls-1" points="328.58 292.74 325.73 297.59 325.46 295.64 326.85 291.91 328.58 292.74"/><polygon class="cls-1" points="334.88 296.4 334.83 298.36 326.97 298.7 334.88 296.4"/><polygon class="cls-1" points="354.35 303.31 354.81 303.43 386.55 335.88 379.62 332.66 369.31 326.95 354.33 303.32 354.35 303.31"/><path class="cls-1" d="M379.31,376.59,389,382l3.07,7.12a.57.57,0,0,0-.22.38.42.42,0,0,0,0,.16s0,.05,0,.07l1.56,5.87Z" transform="translate(-9.58 -49.07)"/><polygon class="cls-1" points="339.11 286.5 334.42 285.99 337.26 284.14 339.11 286.5"/><path class="cls-1" d="M392.7,389a.48.48,0,0,0-.18-.06.43.43,0,0,0-.16,0l-2.72-6.3,7.87,9.14L392.74,389Z" transform="translate(-9.58 -49.07)"/><polygon class="cls-1" points="339.67 286.56 339.52 286.54 337.5 283.98 342.51 280.71 339.67 286.56"/><polygon class="cls-1" points="333.99 287.06 333.19 286.94 333.93 286.6 333.99 287.06"/><polygon class="cls-1" points="331.36 286.71 331.82 287.21 328.73 292.49 326.96 291.64 329.2 285.66 331.36 286.71"/><path class="cls-1" d="M448,433.66a1.24,1.24,0,0,0,.18-.14l11.9,9.35-.28,5.2Z" transform="translate(-9.58 -49.07)"/><path class="cls-1" d="M389.68,382.28l6.54,3a.57.57,0,0,0,0,.26h0l1.84,6.44Z" transform="translate(-9.58 -49.07)"/><polygon class="cls-1" points="451.19 385.86 453.83 386.52 471.72 409.4 450.8 392.96 451.19 385.86"/><polygon class="cls-1" points="473.8 411.02 482.91 396.83 504.49 414.19 473.94 411.13 473.8 411.02"/><polygon class="cls-1" points="484.42 394.48 529.47 416.69 505.02 414.24 483.07 396.59 484.42 394.48"/><path class="cls-1" d="M449.25,432l11.23,2.85-.38,7-11.35-8.92A3.7,3.7,0,0,0,449.25,432Z" transform="translate(-9.58 -49.07)"/><polygon class="cls-1" points="388.39 333.71 394.7 340.05 387.55 335.87 388.39 333.71"/><path class="cls-1" d="M398.33,382.74l4,.7s0,0,0,.06,0,.08,0,.11,0,.05,0,.07a.94.94,0,0,0,0,.16h0l2.61,5.56Z" transform="translate(-9.58 -49.07)"/><path class="cls-1" d="M421.21,391.89l.12,0a.65.65,0,0,0,.24,0h0l21.52,35.35a2.5,2.5,0,0,0-.39.34l-38.59-42.85Z" transform="translate(-9.58 -49.07)"/><path class="cls-1" d="M532.09,477.39,515,463.65l24.55,2.46a3.11,3.11,0,0,0-.34,1.84,3,3,0,0,0,.21.78Z" transform="translate(-9.58 -49.07)"/><path class="cls-1" d="M367.76,343.79l-5.88,0a.74.74,0,0,0-.55-.31l.53-4.06,2.45-.33Z" transform="translate(-9.58 -49.07)"/><polygon class="cls-1" points="407.53 310.54 402.99 307.94 408.18 307.7 407.53 310.54"/><polygon class="cls-1" points="417.98 312.06 408.6 307.5 412.37 303.59 417.98 312.06"/><polygon class="cls-1" points="420.97 305.09 423.14 309.5 413.18 303.65 420.86 305.04 420.97 305.09"/><polygon class="cls-1" points="391.65 311.02 386.98 307.62 393.94 308.33 391.65 311.02"/><polygon class="cls-1" points="406.63 314.49 394.78 308.34 402.45 307.97 407.46 310.83 406.63 314.49"/><polygon class="cls-1" points="435.85 310.94 435.57 308.94 439.75 309.19 435.85 310.94"/><path class="cls-1" d="M443.54,355.21l-2.22.3h0l-.07,0-.08,0-.06.05-.06.07,0,0h0l-7.49-1.36Z" transform="translate(-9.58 -49.07)"/><path class="cls-1" d="M445.45,360.47v0s0,0,0,0v-.09l4.43-2,12.54,14.33Z" transform="translate(-9.58 -49.07)"/><path class="cls-1" d="M394.34,367a1.33,1.33,0,0,0-.67.39l-14.22-19.88,16.43,9Z" transform="translate(-9.58 -49.07)"/><path class="cls-1" d="M444.52,359.85l-.37-.05-12.48-5.46L441,356h0a.49.49,0,0,0,.1.22l0,0s0,.05.07.07l3.12,1.79Z" transform="translate(-9.58 -49.07)"/><polygon class="cls-1" points="451.95 371.93 453.23 372.96 451.86 373.65 451.95 371.93"/><path class="cls-1" d="M378.77,347.32l-1.44,8.16a.72.72,0,0,0-.28.13l-12.52-3.38-.2-.2Z" transform="translate(-9.58 -49.07)"/><path class="cls-1" d="M393.49,367.68l0,.05-15.18-11.4a.91.91,0,0,0,0-.17.79.79,0,0,0-.67-.69l1.41-8Z" transform="translate(-9.58 -49.07)"/><path class="cls-1" d="M427.52,388.6a.53.53,0,0,0-.11-.21l-4.86-5.64,35.27,30-2.2,3.16L436,400.11l-8.6-11A.55.55,0,0,0,427.52,388.6Z" transform="translate(-9.58 -49.07)"/><polygon class="cls-1" points="452.22 367.02 456.98 371.07 453.52 372.81 451.97 371.57 452.22 367.02"/><polygon class="cls-1" points="453.77 373.02 457.22 371.28 483.45 393.56 483.64 393.78 477.71 392.28 453.77 373.02"/><path class="cls-1" d="M482.62,372.28l1.61,6.54-12.52,2.07-7.94-7.2a.45.45,0,0,0,0-.16l14.79-5.07A4.79,4.79,0,0,0,482.62,372.28Z" transform="translate(-9.58 -49.07)"/><polygon class="cls-1" points="391.38 331.41 392.56 333.47 390.95 331.72 391.38 331.41"/><path class="cls-1" d="M426.68,389.29h0l.16.05a.6.6,0,0,0,.32-.05h0l7.83,10-19.47-15.66Z" transform="translate(-9.58 -49.07)"/><path class="cls-1" d="M393.34,368a1.43,1.43,0,0,0,0,.51,1.38,1.38,0,0,0,1.49,1.21l6,10.51-.48.35-21.74-23.65Z" transform="translate(-9.58 -49.07)"/><path class="cls-1" d="M403.68,383.29l-.55-.23h0a.5.5,0,0,0-.13,0h-.23l-1.57-2.73,4.69-3.41,6.32,4.46a.1.1,0,0,0,0,.07.29.29,0,0,0,0,.1h0Z" transform="translate(-9.58 -49.07)"/><polygon class="cls-1" points="445.88 367.05 442.63 371.72 427.22 352.04 445.88 367.05"/><path class="cls-1" d="M421.93,391.65l0-.06h0s0-.06,0-.09a.25.25,0,0,0,0-.12.25.25,0,0,0,0-.12s0-.07,0-.1a.75.75,0,0,0-.07-.12.25.25,0,0,0,0-.07l-5.81-6.53L435.8,400.3,452,421l-4.23,6.08a3.94,3.94,0,0,0-4.43,0l-21.51-35.33A1,1,0,0,0,421.93,391.65Z" transform="translate(-9.58 -49.07)"/><polygon class="cls-1" points="508.07 373.88 518.93 383.73 516.85 384.35 505.62 375.99 508.07 373.88"/><polygon class="cls-1" points="451.33 383.33 453.53 386.14 451.21 385.55 451.33 383.33"/><polygon class="cls-1" points="478.26 392.72 483.94 394.16 482.61 396.22 478.26 392.72"/><polygon class="cls-1" points="451.84 373.99 453.48 373.16 477.04 392.11 454 386.26 451.35 382.88 451.84 373.99"/><path class="cls-1" d="M449.56,430a4.68,4.68,0,0,0-.2-.84l6.45-3.25,4.82,6.17-.14,2.5-11.13-2.82A4,4,0,0,0,449.56,430Z" transform="translate(-9.58 -49.07)"/><path class="cls-1" d="M376.82,355.85a.86.86,0,0,0-.11.5.79.79,0,0,0,.89.7.77.77,0,0,0,.34-.12l17.9,27.32-30.9-31.6Z" transform="translate(-9.58 -49.07)"/><path class="cls-1" d="M396.62,384.86h0l-18.09-27.61,21.58,23.48-2.27,1.65h0s0,0,0,0,0,0,0,0l-.92,2.37A.6.6,0,0,0,396.62,384.86Z" transform="translate(-9.58 -49.07)"/><path class="cls-1" d="M412.22,381.82v0a.53.53,0,0,0,.06.1h0l7,7.88-15.15-6.34Z" transform="translate(-9.58 -49.07)"/><polygon class="cls-1" points="390.72 331.9 392.71 334.06 388.7 333.37 390.72 331.9"/><path class="cls-1" d="M484.81,378.73l-1.58-6.42a3.21,3.21,0,0,0,.62,0,4.46,4.46,0,0,0,1.32-.37l4.69,6Z" transform="translate(-9.58 -49.07)"/><polygon class="cls-1" points="493.4 339.37 490.1 340.86 483.17 332.02 485.45 331.91 493.4 339.37"/><path class="cls-1" d="M519.32,380.4a5.8,5.8,0,0,0,.13.6l-14.75,6.66-7.24-6.8,21.85-1.12A4.85,4.85,0,0,0,519.32,380.4Z" transform="translate(-9.58 -49.07)"/><polygon class="cls-1" points="479.19 345.79 475.9 332.4 482.81 332.04 489.83 340.98 479.19 345.79"/><polygon class="cls-1" points="475.83 332.11 475.3 329.94 480.49 329.09 482.59 331.76 475.83 332.11"/><path class="cls-1" d="M532.43,431.65l-9.34-11.91,19.28,7.1a4.15,4.15,0,0,0-.09,1.41c0,.16.07.31.1.46Z" transform="translate(-9.58 -49.07)"/><polygon class="cls-1" points="508.29 373.69 512.32 370.23 512.99 370.48 522.56 382.66 519.26 383.64 508.29 373.69"/><polygon class="cls-1" points="519.51 383.87 522.75 382.91 533.37 396.43 519.51 383.87"/><polygon class="cls-1" points="519.19 383.96 532.22 395.78 517.14 384.56 519.19 383.96"/><path class="cls-1" d="M546,423.5a2.21,2.21,0,0,0-.35.08l-3.84-20.2,5.55,7.1Z" transform="translate(-9.58 -49.07)"/><polygon class="cls-1" points="375.4 387.29 376.62 389.61 376.74 391.5 374.48 390.95 375.4 387.29"/><path class="cls-1" d="M656.38,488.33l-7.13,5a.37.37,0,0,0-.21,0l-31.33-19.4Z" transform="translate(-9.58 -49.07)"/><path class="cls-1" d="M644.69,505.29l-.05,0L616,484.06a3.08,3.08,0,0,0-4.23-4.15l-3.94-6.5,6.27-.86.12.07.66.25,33.81,20.94a.41.41,0,0,0,.25.31l0,0,3.38,7.67Z" transform="translate(-9.58 -49.07)"/><path class="cls-1" d="M599.36,413.78l17.21,27.8h0a.52.52,0,0,0-.06.13v0a.55.55,0,0,0,0,.18l1.41,10.24L602.8,438.79Z" transform="translate(-9.58 -49.07)"/><path class="cls-1" d="M616.58,522.92a3.25,3.25,0,0,0-.11-.3.38.38,0,0,0-.11-.14.48.48,0,0,0-.09-.11L614.52,521l3.78-.52a.85.85,0,0,0,.55-.31L634,525.54a3.27,3.27,0,0,0-.08,1.25,3.77,3.77,0,0,0,.43,1.34l-3.5,1.94a.57.57,0,0,0-.6,0l-13.65-6.91Z" transform="translate(-9.58 -49.07)"/><polygon class="cls-1" points="416.83 446.66 417.05 460.4 399.55 432.04 416.83 446.66"/><path class="cls-1" d="M388.69,481.18,388.32,469l15.3,11.08-12.79,3A2.16,2.16,0,0,0,388.69,481.18Z" transform="translate(-9.58 -49.07)"/><path class="cls-1" d="M663.79,274.2l.2-9.31,29.43,33.4a3.21,3.21,0,0,0-.3.21l-29.35-24.27Z" transform="translate(-9.58 -49.07)"/><path class="cls-1" d="M622.46,326.65l8.26-12.06,30.36,20.73L624,328.52A2.34,2.34,0,0,0,622.46,326.65Z" transform="translate(-9.58 -49.07)"/><path class="cls-1" d="M602.31,409l-1.22-20.08A2.61,2.61,0,0,0,603,387.3l10.12,6.87a3,3,0,0,0,.31,4Z" transform="translate(-9.58 -49.07)"/><path class="cls-1" d="M625.52,379l-30-34.66,7,.05h0l.1,0L637.9,366.9s0,0,0,.07l-12.29,12Z" transform="translate(-9.58 -49.07)"/><path class="cls-1" d="M265.68,499l-1.48-35.84,4.38,3.47h0l0,0a.16.16,0,0,0,.09,0l6.49,28.34a.25.25,0,0,0-.08.16L265.71,499Z" transform="translate(-9.58 -49.07)"/><path class="cls-1" d="M263.91,463,265.39,499l-8.71-5.37a2.91,2.91,0,0,0,.09-1.14,3.06,3.06,0,0,0-3.09-2.69l-1.52-22Z" transform="translate(-9.58 -49.07)"/><path class="cls-1" d="M239.24,465l.08-.07,2.52-.41a2.93,2.93,0,0,0,2.91,1.91L242,493.53a.3.3,0,0,0-.16.17l0,.11-14.24,9.24Z" transform="translate(-9.58 -49.07)"/><path class="cls-1" d="M373.05,482.94,380.38,454l7.53,14.85a.23.23,0,0,0,.12.12l.37,12.2a2.18,2.18,0,0,0-1.89,2.33L373.09,483Z" transform="translate(-9.58 -49.07)"/><path class="cls-1" d="M197,480,245,434.08l-32.66,42a2.87,2.87,0,0,0-1.85-.41,2.92,2.92,0,0,0-2.56,3l-4.36,1Z" transform="translate(-9.58 -49.07)"/><path class="cls-1" d="M722.81,216.61l0,0,32.35,7.4a.38.38,0,0,0,.09.13l-.69,7.68h-.15a3,3,0,0,0-2.35,1.66l-38.91-9.71Z" transform="translate(-9.58 -49.07)"/><path class="cls-1" d="M209.73,481.31a2.85,2.85,0,0,0,1.43.2,2.91,2.91,0,0,0,2.57-2.7l3.39.2-9,25.47a.24.24,0,0,0-.2.14l-.07.13-9.4,4.61Z" transform="translate(-9.58 -49.07)"/><path class="cls-1" d="M359.17,484.64a2.3,2.3,0,0,0-.28.06l-.1-32.78h0l0,0s0,0,0,0l3-4.82L372.65,483a.13.13,0,0,0,0,.09l-11.13,2.61A2.5,2.5,0,0,0,359.17,484.64Z" transform="translate(-9.58 -49.07)"/><path class="cls-1" d="M339.62,457.76l6.43-6.29,12,33.57a2.48,2.48,0,0,0-1,1.34l-14.08.79a.32.32,0,0,0-.1-.1l-3.3-29.29Z" transform="translate(-9.58 -49.07)"/><path class="cls-1" d="M316.78,491.08l-.48-26.56h0l9.24-6.05.9,27.27a3.65,3.65,0,0,0-2.19,3.67l-7.42,1.72S316.8,491.09,316.78,491.08Z" transform="translate(-9.58 -49.07)"/><path class="cls-1" d="M287.44,493.94l-3.85-30.51,4.54-3.14a4.18,4.18,0,0,0,3.34,1.12,4.06,4.06,0,0,0,1.59-.54L302,490.59a.36.36,0,0,0-.07.18l-10.44,5.07A4.31,4.31,0,0,0,287.44,493.94Z" transform="translate(-9.58 -49.07)"/><path class="cls-1" d="M279.33,429.75l3.88,33-6.55-4h-.05l-4.68-28.53Z" transform="translate(-9.58 -49.07)"/><path class="cls-1" d="M264.2,462.44l2.65-31.87,4.65-.3L268.69,466l-4.47-3.54Z" transform="translate(-9.58 -49.07)"/><path class="cls-1" d="M313.34,430.1,316,463.76l-5.86-4.47h0l.22-29.48Z" transform="translate(-9.58 -49.07)"/><path class="cls-1" d="M181.14,503.29l15.33-22.72h.06l6.74-.23L186.49,510.8h0l-5.33-7.29A.28.28,0,0,0,181.14,503.29Z" transform="translate(-9.58 -49.07)"/><polygon class="cls-1" points="370.6 404.54 363.26 433.51 352.59 397.83 370.6 404.54"/><path class="cls-1" d="M295.12,456.78a4.16,4.16,0,0,0-3.37-3.59l-3-24.06,9-.59,3.24,35.75-6.2-5.25A4.21,4.21,0,0,0,295.12,456.78Z" transform="translate(-9.58 -49.07)"/><path class="cls-1" d="M358.5,452l.1,32.81-.25.11-12-33.53Z" transform="translate(-9.58 -49.07)"/><path class="cls-1" d="M407.44,479.61l-3.26.39a.28.28,0,0,0-.33-.1h0L390.22,470Z" transform="translate(-9.58 -49.07)"/><polygon class="cls-1" points="572.79 484.6 578.75 485.06 579.14 485.17 591.59 506.36 572.79 484.6"/><path class="cls-1" d="M567.47,525.28l.08,0h0s0,0,0,0h0l19.21,4.41h.07l10.53,1h.14l8.58-1.18-1.1,2.75-6.8,2.82-9.51-2.69h-.09l-.08,0-7.2-.55L566.19,526l-8.93-5Z" transform="translate(-9.58 -49.07)"/><path class="cls-1" d="M580.83,533.52l.15,0h0l.09,0,.46,0,20.75,24-7.51-1.22L567.9,528.51Z" transform="translate(-9.58 -49.07)"/><path class="cls-1" d="M260.29,433.34a2.6,2.6,0,0,0,2.29-2.49l4-.26-2.65,31.82-11.67,4.7,7.26-33.81A2.61,2.61,0,0,0,260.29,433.34Z" transform="translate(-9.58 -49.07)"/><path class="cls-1" d="M363.52,375.14l7.51,8,9.14,16.91-3.7-4.53v-.07A.55.55,0,0,0,376,395l-3.36-4.12a1,1,0,0,0,0-.3.74.74,0,0,0-.8-.65L369.51,387a1,1,0,0,0,.13-.61,1.07,1.07,0,0,0-1.2-.95l-.16.05-6.37-7.79a1.84,1.84,0,0,0,.4-1.39,1.8,1.8,0,0,0-.35-.88Z" transform="translate(-9.58 -49.07)"/><polygon class="cls-1" points="324.5 286.39 320.67 288.2 321.07 282.14 321.25 281.86 321.31 281.84 325.97 284.1 324.5 286.39"/><path class="cls-1" d="M340,332.21h0l-.9.57L337.66,331l1.94-1.54.38,2.76Z" transform="translate(-9.58 -49.07)"/><polygon class="cls-1" points="334.16 285.66 330.99 283.25 333.03 280.56 336.13 283.2 334.16 285.66"/><path class="cls-1" d="M736.13,202.23a2.77,2.77,0,0,0-1-1.84l3-4.33,0,0,33.64-.94,3.29,8.38a2.4,2.4,0,0,0-1.7,1.95l-37.27-2.33A2.74,2.74,0,0,0,736.13,202.23Z" transform="translate(-9.58 -49.07)"/><path class="cls-1" d="M374.47,328l7.42-5.06a2.54,2.54,0,0,0,1.66.68l-1.49,4.52Z" transform="translate(-9.58 -49.07)"/><path class="cls-1" d="M185.24,470.47l54.26-35.2a.13.13,0,0,0,.05-.16l1-.28L190,480.61,187.55,477l-1.26-3.13h0l-1-3.34Z" transform="translate(-9.58 -49.07)"/><path class="cls-1" d="M239.48,464.28l12.66-32.7.19-.05,5.09-.33a2.56,2.56,0,0,0,1.25,1.79L246.2,461a2.86,2.86,0,0,0-1.95-.47,3,3,0,0,0-2.58,3.27l0,.1Z" transform="translate(-9.58 -49.07)"/><path class="cls-1" d="M251.45,431.77l-34,46.62-.12.05-3.61-.21a2.92,2.92,0,0,0-1.16-2l33.37-42.94Z" transform="translate(-9.58 -49.07)"/><polygon class="cls-1" points="231.62 385.58 235.53 384.49 187.02 430.91 186.91 430.91 186.9 430.92 186.89 430.91 180.91 431.51 231.62 385.58"/><path class="cls-1" d="M638.08,367.22,676,407.75l-4.71,3.68a1.82,1.82,0,0,0-1.2-.28,1.86,1.86,0,0,0-1.61,1.55l-10.06,1.39-32.5-34.92Z" transform="translate(-9.58 -49.07)"/><path class="cls-1" d="M184.65,470.43s0,0,0,.07v0L159.21,492l8.11-15L186.44,463Z" transform="translate(-9.58 -49.07)"/><path class="cls-1" d="M357,486.68a2.28,2.28,0,0,0,0,.74,2.53,2.53,0,0,0,2.26,2.2l15.56,63.5-2.67-.56s0,0,0,0l-.05,0L359.74,554l-16.63-66.56Z" transform="translate(-9.58 -49.07)"/><path class="cls-1" d="M302.34,490.55l-1-25.47,8.55-5.17,6.6,31.2-.05.05-14-.5A.36.36,0,0,0,302.34,490.55Z" transform="translate(-9.58 -49.07)"/><path class="cls-1" d="M376.05,551.59a1.13,1.13,0,0,0-.88.63l-15.35-62.63a2.48,2.48,0,0,0,2.12-2.76,2.43,2.43,0,0,0-.3-.92l11-2.57,14.81,60.44L381.27,551l-4,1.41A1.14,1.14,0,0,0,376.05,551.59Z" transform="translate(-9.58 -49.07)"/><path class="cls-1" d="M316.94,491.4l7.36-1.72a3.66,3.66,0,0,0,2.82,3l12.68,65.84-5.91,4.87a2.34,2.34,0,0,0-1.18-.2,2.18,2.18,0,0,0-1.88,1.84l-8.68.62Z" transform="translate(-9.58 -49.07)"/><path class="cls-1" d="M423.79,440.91l31.36,30.89-26.38-19.91a2.59,2.59,0,0,0-4.13-3.12l-6.9-5.2Z" transform="translate(-9.58 -49.07)"/><path class="cls-1" d="M426.68,452.94h0l31.52,61.31-3.47,6.31a3,3,0,0,0-1.73-.34,2.92,2.92,0,0,0-1.36.54l-14.14-16.37Z" transform="translate(-9.58 -49.07)"/><path class="cls-1" d="M288,502.52c.13,0,.27,0,.41,0a4.3,4.3,0,0,0,3.23-6.43l10.26-5,.26,75.8L292.88,575l-5.81-1Z" transform="translate(-9.58 -49.07)"/><path class="cls-1" d="M373.19,483.29l13.37.52a2.16,2.16,0,0,0,2.37,1.69h0L406,534a.42.42,0,0,0-.06.27l.71,4.61-3.5,4.13a2,2,0,0,0-1.42-.38A2,2,0,0,0,400,544.7l-12-1.11Z" transform="translate(-9.58 -49.07)"/><path class="cls-1" d="M461.13,476.77,499,497.05v0h0l2.32,5.32-12.6-1.19L461.11,476.8Z" transform="translate(-9.58 -49.07)"/><path class="cls-1" d="M406.54,533.76l-17-48.42a2.17,2.17,0,0,0,1.34-2l12.9-3,23.84,53.1-8.42,6.24L406.78,534A.46.46,0,0,0,406.54,533.76Z" transform="translate(-9.58 -49.07)"/><path class="cls-1" d="M168.24,508.2a3.51,3.51,0,0,0,5.12-3.54c0-.06,0-.11,0-.18l7.12-.87-37.06,64.14L88.19,642.31l28.47-62.56,32.07-30a.3.3,0,0,0,0-.37Z" transform="translate(-9.58 -49.07)"/><path class="cls-1" d="M143.85,568.1v0h0L181,503.8l5.24,7.16-35.91,54.75L95,634Z" transform="translate(-9.58 -49.07)"/><path class="cls-1" d="M158.77,492.72l5.3-.25-3.77,6.91h0a0,0,0,0,0,0,0s0,0,0,0,0,0,0,0h0v0s0,0,0,0l0,0,0,0,6.48,3.73a3.46,3.46,0,0,0-.46,2.18,3.26,3.26,0,0,0,.09.45l-11.81,4.82v0h0l-35.23,23.27a2.07,2.07,0,0,0-.43-.5l18.1-25Z" transform="translate(-9.58 -49.07)"/><path class="cls-1" d="M135.58,485.75a3.15,3.15,0,0,0,5.24-.19l2.45,2.08s0,0,.08,0h.08l23.77-11.1-.1.19-.47.34a.16.16,0,0,0,0,.21.12.12,0,0,0,.09.05.12.12,0,0,0,.1,0l-8.19,15.15-21.69,15.8-17.46,1.26v-.05a3,3,0,0,0-6,.71,2.93,2.93,0,0,0,.29.95L36,551.07,9.58,552.25a3.29,3.29,0,0,0,0-.77s0,0,0-.07Z" transform="translate(-9.58 -49.07)"/><path class="cls-1" d="M198.39,509.82s0-.09,0-.13l9.16-4.49L152.3,607.85l-17.48,12.34-4-4.91Z" transform="translate(-9.58 -49.07)"/><polygon class="cls-1" points="256.26 450.22 256.26 450.21 265.51 446.47 259.39 531.89 250.09 539.52 242.64 536.79 256.26 450.22"/><path class="cls-1" d="M227.54,503.49s0-.07,0-.1l14.1-9.14-29.07,97-8.4,5.06L195,590.54Z" transform="translate(-9.58 -49.07)"/><path class="cls-1" d="M275.49,495,269,466.65h0l0,0h0l7.45-7.17,10.08,34.69a4.3,4.3,0,0,0-2.72,2.7l-8.19-1.68A.23.23,0,0,0,275.49,495Z" transform="translate(-9.58 -49.07)"/><path class="cls-1" d="M253.16,495.82a3.15,3.15,0,0,0,.92.05,3.05,3.05,0,0,0,2.51-2l8.66,5.35L251.62,585.9l-11,9.92L233,592.57Z" transform="translate(-9.58 -49.07)"/><path class="cls-1" d="M245.05,466.36a2.91,2.91,0,0,0,2-1.32l4.78,2.73h0l1.51,22h0a3,3,0,0,0-2.63,2.47l-8.45,1.36,0,0Z" transform="translate(-9.58 -49.07)"/><path class="cls-1" d="M328.3,485.43l11-27.29,3.26,29a.34.34,0,0,0-.08.09l-11,1.13A3.65,3.65,0,0,0,328.3,485.43Z" transform="translate(-9.58 -49.07)"/><polygon class="cls-1" points="315.73 295.37 316.04 293.73 317.43 295.35 315.73 295.37"/><path class="cls-1" d="M781.26,172.62a1.48,1.48,0,0,0,1.16-1.62,1.5,1.5,0,0,0-3,0l-7.89-.52,3.76-5.35,30.45-12,40-2.42-49.15,22h0L780.77,184Z" transform="translate(-9.58 -49.07)"/><path class="cls-1" d="M711.56,169a2.28,2.28,0,0,0-.27-.64l65.85-28.7a1.84,1.84,0,0,0,1.71.76l.27-.06.76,5.57-27.3,17.43Z" transform="translate(-9.58 -49.07)"/><path class="cls-1" d="M560.71,515.91l-14.43-1-.43-.24a.86.86,0,0,0-.81,0l-13.9-5.25h0l-23.25-9.72Z" transform="translate(-9.58 -49.07)"/><path class="cls-1" d="M775.44,203.39l-.09,0-3.26-8.32,88.16,3.69a2.41,2.41,0,0,0,0,.38,2.33,2.33,0,0,0,4.64-.29l100.44-7.2L856,204.27l-77.86,1.15A2.4,2.4,0,0,0,775.44,203.39Z" transform="translate(-9.58 -49.07)"/><path class="cls-1" d="M757.8,234.44a3,3,0,0,0-2.92-2.66l.69-7.6L897.9,234.41l2.82,7L879.9,253.24a1.39,1.39,0,0,0-.83-.18,1.46,1.46,0,0,0-1.2,1L757.81,234.45Z" transform="translate(-9.58 -49.07)"/><path class="cls-1" d="M188.4,450.23a3.33,3.33,0,0,0,.46.59l-21.41,25.3-24.06,11.23L141,485.3a3.23,3.23,0,0,0,.31-1.78,3.1,3.1,0,0,0-.39-1.18Z" transform="translate(-9.58 -49.07)"/><polygon class="cls-1" points="329.83 304.93 344.92 310.8 330.82 308.09 329.72 304.97 329.83 304.93"/><path class="cls-1" d="M265.1,414.35l-4.4,2.91-52.5,23.58-.79.2h0l-13.8,5.75-.16,0a1.71,1.71,0,0,0-.18-.2l10.44-10.38a3.58,3.58,0,0,0,6-3.57Z" transform="translate(-9.58 -49.07)"/><path class="cls-1" d="M314.77,397.21,329,389.93a.15.15,0,0,0,.06-.2l28.78-10.93,1.9-.61a1.84,1.84,0,0,0,2-.27l2.47,3Z" transform="translate(-9.58 -49.07)"/><path class="cls-1" d="M898.05,233.83,756.12,223.64l10.79-6.6s0,0,.07,0h0l150.57-.59c0,.06,0,.12,0,.19a2.84,2.84,0,0,0,3.06,2.49l1.58,4.7Z" transform="translate(-9.58 -49.07)"/><polygon class="cls-1" points="697.95 513.86 699.26 523.41 633.78 471.7 697.95 513.86"/><path class="cls-1" d="M644.43,513.73l.18-7.17,69.6,34.62.14,0,3.45,10.26-73.35-37.74Z" transform="translate(-9.58 -49.07)"/><polygon class="cls-1" points="684.92 532.29 672.8 537.65 624.98 485 684.92 532.29"/><path class="cls-1" d="M592.87,556.91l37.25,36.89-17.53-2.5a.65.65,0,0,0-.09-.16l-22.32-25.48Z" transform="translate(-9.58 -49.07)"/><path class="cls-1" d="M720.31,524.41l-70.42-30.84,7.15-5,70.53,26.3a2.55,2.55,0,0,0-.2,1.34,2.65,2.65,0,0,0,.76,1.57Z" transform="translate(-9.58 -49.07)"/><path class="cls-1" d="M672.44,326.07A2.12,2.12,0,0,0,672,325l6.75-11.54a1.75,1.75,0,0,0,1.15.27,1.7,1.7,0,0,0,1.27-.82l76.46,48.92-2.48,9.41-13.93,4.63a2,2,0,0,0-2.12-1.44,1.93,1.93,0,0,0-1.41.89l-65.51-47.84A2.13,2.13,0,0,0,672.44,326.07Z" transform="translate(-9.58 -49.07)"/><polygon class="cls-1" points="591.29 448.33 606.85 464.17 607.62 469.75 603.13 470.37 589.32 457.21 591.29 448.33"/><path class="cls-1" d="M619.32,438.14l-16.94-28.76,11.22-11a3,3,0,0,0,2.23.63,3,3,0,0,0,1.48-.61L635.75,427h0l0,0-6.37,9.75-10,1.37h0Z" transform="translate(-9.58 -49.07)"/><path class="cls-1" d="M614.66,471.84l-1.06-7.68L652.5,479a1.52,1.52,0,0,0,1.3,1.81l2.83,6.66Z" transform="translate(-9.58 -49.07)"/><path class="cls-1" d="M488,368.62a4.58,4.58,0,0,0,.11-1.66,4.73,4.73,0,0,0-2.09-3.39l58-52.41c.06.07.13.13.19.19l-50.7,58.87Z" transform="translate(-9.58 -49.07)"/><polygon class="cls-1" points="368.01 390.57 370.54 403.68 359.76 388.56 368.01 390.57"/><polygon class="cls-1" points="339.98 286.59 342.96 280.45 349.46 287.61 339.98 286.59"/><polygon class="cls-1" points="355.83 387.6 359.33 388.45 370.27 403.79 359.05 399.62 355.83 387.6"/><polygon class="cls-1" points="365.14 374.23 368.8 374.73 375 386.52 373.91 390.81 368.08 389.39 365.14 374.23"/><polygon class="cls-1" points="368.32 390.65 373.63 391.94 370.77 403.3 368.32 390.65"/><path class="cls-1" d="M363.36,430.15l1.38,5.16-4.7-1.15a.75.75,0,0,1,0-.15,3.72,3.72,0,0,0-.56-1.51Z" transform="translate(-9.58 -49.07)"/><polygon class="cls-1" points="364.49 366.51 367.16 371.6 364.9 372.98 363.67 366.63 364.49 366.51"/><polygon class="cls-1" points="355.49 386.31 354.1 381.12 358.29 387 355.49 386.31"/><path class="cls-1" d="M373,413.53l.79,1.5-.64.09-.29-1.54Z" transform="translate(-9.58 -49.07)"/><polygon class="cls-1" points="367.76 389.31 358.72 387.1 354.23 380.81 364.87 374.36 367.76 389.31"/><path class="cls-1" d="M312.61,421.77l58.83-9.08v0a1,1,0,0,0,1.11.93l.29,1.52-72.28,10.16Z" transform="translate(-9.58 -49.07)"/><polygon class="cls-1" points="375.19 361.26 374.93 357.03 378.15 360.81 375.19 361.26"/><polygon class="cls-1" points="380.4 363.58 380.18 363.72 375.38 364.39 375.21 361.55 378.37 361.07 380.4 363.46 380.4 363.58"/><path class="cls-1" d="M373.56,412.46s0-.06,0-.1l11-1.69.17,2.83L374.08,415l-.86-1.64A1,1,0,0,0,373.56,412.46Z" transform="translate(-9.58 -49.07)"/><path class="cls-1" d="M399.53,425.5l-9.66-1.32.29-8.37.57-2.25.08-.05,9.62,11.3A2.78,2.78,0,0,0,399.53,425.5Z" transform="translate(-9.58 -49.07)"/><path class="cls-1" d="M358.39,408.29l25.81-2.51.27,4.6-11,1.71a1.08,1.08,0,0,0-1.07-.57,1.06,1.06,0,0,0-.91.87l-56.76,8.77Z" transform="translate(-9.58 -49.07)"/><path class="cls-1" d="M388.43,468.6l0-.08,5.23-15.71,13.94,26.53-19.12-10.63A.22.22,0,0,0,388.43,468.6Z" transform="translate(-9.58 -49.07)"/><polygon class="cls-1" points="378.47 393.13 379.32 394.74 378.55 416.62 377.11 392.8 378.47 393.13"/><path class="cls-1" d="M582.5,462.82l23.66,22.54-10.76-5.31a1,1,0,0,0,0-.3,1.5,1.5,0,0,0-1.66-1.31,1.55,1.55,0,0,0-.23.08l-14.21-15.33Z" transform="translate(-9.58 -49.07)"/><polygon class="cls-1" points="384.17 403.36 386.89 395.19 394.5 397.04 398.05 429.77 384.17 403.36"/><path class="cls-1" d="M396.83,443.14l4.3-12.91a2.67,2.67,0,0,0,.94.06c.09,0,.18-.05.28-.06l1.59,14.65Z" transform="translate(-9.58 -49.07)"/><path class="cls-1" d="M493.64,377.27l-6.87-6.45a4.86,4.86,0,0,0,.9-1.37l5.61,1.63a.54.54,0,0,0,.09.12.67.67,0,0,0,.28.14.58.58,0,0,0,.34,0l3.29,1a.61.61,0,0,0,.07.1.65.65,0,0,0,.3.15.57.57,0,0,0,.34-.05l9,2.62Z" transform="translate(-9.58 -49.07)"/><polygon class="cls-1" points="543.38 318.96 545.92 319.9 553.01 333.18 541.98 332.29 543.38 318.96"/><polygon class="cls-1" points="547.03 284.57 563.12 278.53 580.01 317.85 547.03 284.57"/><polygon class="cls-1" points="546.34 320.06 570.48 329.02 573.63 334.84 553.36 333.21 546.34 320.06"/><path class="cls-1" d="M261.63,424.72l74.83-14.29,18.85-1.84-44.93,13.23-48.25,7.46a2.59,2.59,0,0,0-4.65.72l-.32.05-5,.32-.06,0h-.06L250,431Z" transform="translate(-9.58 -49.07)"/><path class="cls-1" d="M580.47,378.25l17.87,6.63c-.06.08-.11.16-.16.24l-14.64-1.18Z" transform="translate(-9.58 -49.07)"/><path class="cls-1" d="M543.12,337.45a3.83,3.83,0,0,0-.48-.6l89.93-92-10.24,14-66.07,73.7Z" transform="translate(-9.58 -49.07)"/><path class="cls-1" d="M579.62,287.3,637.42,227l15.52-8.73-2.64,2.37,0,0s0,0,0,0l-1.53,2.09L570.4,299.2Z" transform="translate(-9.58 -49.07)"/><polygon class="cls-1" points="375.12 365.02 375.23 366.72 367.41 371.45 364.79 366.47 375.12 365.02"/><path class="cls-1" d="M440.8,351.27l-1.64-1.08,1-.81a.47.47,0,0,0,.15.06.43.43,0,0,0,.38-.13l3.22,1.52Z" transform="translate(-9.58 -49.07)"/><polygon class="cls-1" points="624.63 179.55 576.89 229.4 608.17 189.04 624.63 179.55"/><path class="cls-1" d="M544.44,470a3.66,3.66,0,0,0,.54-.64l36.24,22.48v0l0,16.23Z" transform="translate(-9.58 -49.07)"/><polygon class="cls-1" points="267.61 367.13 254.12 374.06 241.3 376.51 253.16 368.54 267.61 367.13"/><path class="cls-1" d="M240.64,433.6l0-.1.53-.06Z" transform="translate(-9.58 -49.07)"/><path class="cls-1" d="M248.4,427.24l11.32-2.16-12.36,6.63-2.84.8-3.76.39c0-.11,0-.23,0-.35a.58.58,0,0,0,0-.14Z" transform="translate(-9.58 -49.07)"/><polygon class="cls-1" points="314.18 362.59 255.14 373.87 268.4 367.05 314.18 362.59"/><path class="cls-1" d="M389.83,407l-8.47-6.15h0a.34.34,0,0,0-.12-.06s-.05,0-.08,0h-.27l-8.8-16.29Z" transform="translate(-9.58 -49.07)"/><path class="cls-1" d="M581.23,509v0s0,.06,0,.1a.64.64,0,0,0,0,.07s0,0,0,0a0,0,0,0,0,0,0,.41.41,0,0,0,.05.09s0,0,0,0l12.32,15.37h0a.4.4,0,0,0,.12.1l0,0,.2.07h0l.17,1.29-21-12.14h0a1.39,1.39,0,0,0-1.5-1.22l-5.88-8.83Z" transform="translate(-9.58 -49.07)"/><polygon class="cls-1" points="270.42 365.68 261.07 366.6 273.11 364.3 270.42 365.68"/><path class="cls-1" d="M375,386a1.58,1.58,0,0,0,1.75,1.38,1.53,1.53,0,0,0,.76-.32L387,401a.22.22,0,0,0,0,.08l-.06.1a.43.43,0,0,0,0,.11s0,.07,0,.11a.5.5,0,0,0,0,.12.64.64,0,0,0,0,.07v0a.06.06,0,0,1,0,0l2.11,3.85-17.33-22,3.48,1.69A1.55,1.55,0,0,0,375,386Z" transform="translate(-9.58 -49.07)"/><polygon class="cls-1" points="590.25 447.25 590.32 447.33 588.23 456.8 573.93 443.7 590.25 447.25"/><polygon class="cls-1" points="377.74 391.75 377.03 391.57 376.95 390.24 377.74 391.75"/><path class="cls-1" d="M358,328.33l-1.74-.56,4.3-.59a.88.88,0,0,0,.45.4l.23,1.68-3.24-.93Z" transform="translate(-9.58 -49.07)"/><polygon class="cls-1" points="324.92 295.76 325.18 295.77 325.48 298 325.2 298.49 321.5 301.88 321.45 301.48 324.92 295.76"/><path class="cls-1" d="M453.27,354.63l-7.9-3.46s0-.06,0-.09a.44.44,0,0,0-.5-.37l-.41.05-3.55-1.68,1.85-2.44h.33a.43.43,0,0,0,.38-.26l5.79.39Z" transform="translate(-9.58 -49.07)"/><path class="cls-1" d="M543.29,297.15l-14.78,8.52,3.42-3.77,9.23-4.18a.1.1,0,0,0,0-.05h0L556.37,275l1.93-2.12,3-2.24,29.2-16.84Z" transform="translate(-9.58 -49.07)"/><polygon class="cls-1" points="351.38 309.95 346.52 311.09 336.75 302.58 351.38 309.95"/><path class="cls-1" d="M371.19,390.66,296.5,406.6l2.55-1.31,68.79-18a1.08,1.08,0,0,0,.86.3,1,1,0,0,0,.64-.34l2.22,2.73A.74.74,0,0,0,371.19,390.66Z" transform="translate(-9.58 -49.07)"/><path class="cls-1" d="M375.35,395.44l-90.73,17.27,10.88-5.59L371.26,391a.74.74,0,0,0,.76.43.81.81,0,0,0,.47-.26l3.18,3.89A.53.53,0,0,0,375.35,395.44Z" transform="translate(-9.58 -49.07)"/><polygon class="cls-1" points="375.77 375.68 376.15 381.93 375.1 386.09 369.16 374.78 375.77 375.68"/><polygon class="cls-1" points="288.18 356.56 285.83 357.76 273.52 360.39 288.18 356.56"/><polygon class="cls-1" points="545.47 227.38 531.42 248.4 522.85 252.28 545.47 227.38"/><path class="cls-1" d="M308.29,422.44l-11.65,3.43-21.07,3-13.21.87-.07-.16Z" transform="translate(-9.58 -49.07)"/><path class="cls-1" d="M637,240.73l26.44,23.58s0,0,0,0l-.21,9.42-31.58-25.7Z" transform="translate(-9.58 -49.07)"/><path class="cls-1" d="M630.19,314.34l-8.34,12.17a1.93,1.93,0,0,0-.48,0,2.35,2.35,0,0,0-1.21.51L595.3,302.77Z" transform="translate(-9.58 -49.07)"/><path class="cls-1" d="M584.2,326.38a3.51,3.51,0,0,0-.44-5.5l5.38-8.51,20.63,18.29-7.43,13.09Z" transform="translate(-9.58 -49.07)"/><path class="cls-1" d="M608.39,485.65l-.38-.3-.3-11.08,3.62,6a3.08,3.08,0,0,0-.7,3.78Z" transform="translate(-9.58 -49.07)"/><polygon class="cls-1" points="588.62 199.97 583.1 203.15 608.4 179.94 588.62 199.97"/><path class="cls-1" d="M640.65,235.74l34.68,18.18h0l.73,7-38.79-20.54Z" transform="translate(-9.58 -49.07)"/><path class="cls-1" d="M662.31,207.93h0l-.14.17L651,213a1.3,1.3,0,0,0-.19-.22l34.6-27.44,2.36-1.33L662.33,207.9Z" transform="translate(-9.58 -49.07)"/><path class="cls-1" d="M542.86,335.8,569.22,301a.26.26,0,0,0,0-.24l78.38-76.5L635,241.49Z" transform="translate(-9.58 -49.07)"/><path class="cls-1" d="M482.72,362.75a4.79,4.79,0,0,0-3.42,2.13l-2.71-2.07L516.38,319l27.06-21.62h0l48.21-44.25,5.74-3.3-112,113.41A4.81,4.81,0,0,0,482.72,362.75Z" transform="translate(-9.58 -49.07)"/><polygon class="cls-1" points="712.31 167.5 702.95 174.42 702.64 174.52 643.83 171.93 712.31 167.5"/><path class="cls-1" d="M336.27,409.27l-55.49,5.41,2.92-1.5,91.68-17.45a.57.57,0,0,0,.59.36.58.58,0,0,0,.39-.23l4.08,5Z" transform="translate(-9.58 -49.07)"/><polygon class="cls-1" points="376.51 382.91 378.25 376.01 379.96 376.25 379.41 392.16 378.12 391.84 376.91 389.53 376.51 382.91"/><polygon class="cls-1" points="379.36 393.35 379.34 394.15 378.85 393.22 379.36 393.35"/><polygon class="cls-1" points="379.59 395.26 383.85 403.38 378.77 418.65 379.59 395.26"/><path class="cls-1" d="M389.27,441.3l.56-15.94,9.1,1.23a2.77,2.77,0,0,0-.09,1.15,2.89,2.89,0,0,0,2,2.42l-4.29,12.92Z" transform="translate(-9.58 -49.07)"/><polygon class="cls-1" points="376 374.53 375.59 367.86 380.35 364.98 380.34 365.32 377.95 374.8 376 374.53"/><polygon class="cls-1" points="376.27 383.85 376.58 388.9 375.51 386.87 376.27 383.85"/><polygon class="cls-1" points="378.53 374.87 380.24 368.09 380 375.07 378.53 374.87"/><polygon class="cls-1" points="378.91 364.49 375.51 366.54 375.42 364.98 378.91 364.49"/><polygon class="cls-1" points="386.6 395.12 383.98 402.99 379.61 394.67 379.65 393.42 386.6 395.12"/><polygon class="cls-1" points="376.07 375.72 377.66 375.93 376.39 380.99 376.07 375.72"/><polygon class="cls-1" points="367.71 372.64 368.14 373.46 366.68 373.26 367.71 372.64"/><path class="cls-1" d="M288.45,429.15l3,24a3.85,3.85,0,0,0-1,0h-.06l-10.61-23.42Z" transform="translate(-9.58 -49.07)"/><path class="cls-1" d="M325.32,431.31l8,.8-7.55,25.22-2.87-22.64A3.58,3.58,0,0,0,325.32,431.31Z" transform="translate(-9.58 -49.07)"/><polygon class="cls-1" points="280.18 378.83 273.88 379.24 283.24 377.93 280.18 378.83"/><path class="cls-1" d="M353,434.08a3.3,3.3,0,0,0,0,.77,3.56,3.56,0,0,0,3.64,3.12l1.85,13.41-12.3-.61-2.81-17.65Z" transform="translate(-9.58 -49.07)"/><path class="cls-1" d="M358.68,431.62a3.54,3.54,0,0,0-5.39,1.32l-21.42-2.15,29.34-.7Z" transform="translate(-9.58 -49.07)"/><polygon class="cls-1" points="362.78 354.5 351.68 357.77 339.4 358.96 362.78 354.5"/><polygon class="cls-1" points="375.7 374.49 368.49 373.51 367.96 372.49 375.31 368.03 375.7 374.49"/><polygon class="cls-1" points="354.75 357.47 368.64 353.38 371.31 352.87 371.54 353.04 373.74 355.62 354.75 357.47"/><path class="cls-1" d="M359.94,435.34l5.15,1.25,3.2,12-6.3-2.34s0,0-.07,0l-3.87-8.61A3.57,3.57,0,0,0,359.94,435.34Z" transform="translate(-9.58 -49.07)"/><polygon class="cls-1" points="505.39 376.18 516.5 384.45 484.93 393.77 505.39 376.18"/><path class="cls-1" d="M189.07,451a2.75,2.75,0,0,0,.94.54l-3.43,10.86h0l0,.12-18.9,13.8,0,0Z" transform="translate(-9.58 -49.07)"/><path class="cls-1" d="M187.15,477.39,189.6,481l-17.84,21.08a3.54,3.54,0,0,0-2.31-.54,3.46,3.46,0,0,0-2.46,1.49l-6.31-3.64Z" transform="translate(-9.58 -49.07)"/><polygon class="cls-1" points="303.43 348.72 264.5 361.55 264.32 361.59 318.21 341.12 303.43 348.72"/><polygon class="cls-1" points="175.16 421.77 176.15 424.89 154.7 443.1 149.57 443.34 175.16 421.77"/><polygon class="cls-1" points="176.26 425.18 177.43 428.06 151.34 449.77 154.86 443.34 176.26 425.18"/><path class="cls-1" d="M363.35,374.88l-1.62.31a1.81,1.81,0,0,0-1.46-.48,1.63,1.63,0,0,0-.3.07l-3.29-12.66Z" transform="translate(-9.58 -49.07)"/><path class="cls-1" d="M325.55,344.67l1.63,0,1.28,9.29-1.12-.4-.15-.21-1.86-8.73C325.55,344.64,325.69,344.63,325.55,344.67Z" transform="translate(-9.58 -49.07)"/><polygon class="cls-1" points="327.65 302.74 328.43 303.9 324.29 302.82 327.65 302.74"/><polygon class="cls-1" points="318.96 305.26 320.72 308.95 318.03 304.93 318.96 305.26"/><polygon class="cls-1" points="319.24 305.16 321.03 303.2 321.17 309.22 319.24 305.16"/><path class="cls-1" d="M271.74,430.88l4.58,27.93h0l-7.32,7Z" transform="translate(-9.58 -49.07)"/><path class="cls-1" d="M293.31,460.7a4.26,4.26,0,0,0,1.13-1.15l6.51,5.51.06,0,1,24.56Z" transform="translate(-9.58 -49.07)"/><path class="cls-1" d="M283.27,463.45h0L287.15,494l-.31.07-10-34.52Z" transform="translate(-9.58 -49.07)"/><polygon class="cls-1" points="288.42 379.49 300.42 380.69 300.2 410.2 300.2 410.2 291.68 415.36 288.42 379.49"/><path class="cls-1" d="M327.48,485.43a3.62,3.62,0,0,0-.74.17l-.91-27.28,13.31-.47L328,485.42A4.34,4.34,0,0,0,327.48,485.43Z" transform="translate(-9.58 -49.07)"/><path class="cls-1" d="M316,464.5l0,0,.46,25.27-6.28-29.7Z" transform="translate(-9.58 -49.07)"/><path class="cls-1" d="M247.52,463.11a2.92,2.92,0,0,0-1.08-1.94l12.49-28.05a1.78,1.78,0,0,0,.29.12l-7.29,33.9-4.6-2.62A2.89,2.89,0,0,0,247.52,463.11Z" transform="translate(-9.58 -49.07)"/><polygon class="cls-1" points="241.19 384.13 217.4 425.54 217.15 425.75 208.37 429.13 241.19 384.13"/><path class="cls-1" d="M251.41,432.68l-12.26,31.65h0s0,0-.06,0-.06,0-.08,0l-11.38,9.66Z" transform="translate(-9.58 -49.07)"/><path class="cls-1" d="M172,502.28l17.83-21.06h.08l6.18-.62L180.9,503.13a.26.26,0,0,0-.26.13l0,0-7.36.91A3.52,3.52,0,0,0,172,502.28Z" transform="translate(-9.58 -49.07)"/><polygon class="cls-1" points="320.02 288.69 317.68 295.2 316.12 293.37 317.11 288.19 320.02 288.69"/><path class="cls-1" d="M446.11,340.39a.21.21,0,0,0,0,.08v0l-6.06,3.38,0,0-.09,0,0,0L431.42,341l10.12-3.8,4.58,3.08A.22.22,0,0,0,446.11,340.39Z" transform="translate(-9.58 -49.07)"/><path class="cls-1" d="M473.13,325.42l-26.3,14.67h-.06l-.12-.06h-.16l-.06,0-.09,0h0l-.05,0-4.41-3,31.23-11.74Z" transform="translate(-9.58 -49.07)"/><path class="cls-1" d="M598.87,241.45l-104.27,77-45,20.37,23.65-13.19a2.69,2.69,0,0,0,4.89-1.83,2.4,2.4,0,0,0-.12-.53Z" transform="translate(-9.58 -49.07)"/><polygon class="cls-1" points="320.37 288.34 320.19 288.42 317.26 287.92 320.75 282.64 320.37 288.34"/><polygon class="cls-1" points="394.76 431.2 398.11 430.81 398.66 431.7 415.23 476.78 394.76 431.2"/><path class="cls-1" d="M681.63,187.48l-49,32.29a2.14,2.14,0,0,0-2.09-1,2.16,2.16,0,0,0-1.88,2.39,2.34,2.34,0,0,0,.2.65l-5.66,2.52,3.44-5.78Z" transform="translate(-9.58 -49.07)"/><path class="cls-1" d="M726.09,174.13l-.11,0h0l-14.35-3.82a2.8,2.8,0,0,0,0-.87s0-.1,0-.15l41-5.64h.2Z" transform="translate(-9.58 -49.07)"/><path class="cls-1" d="M737.18,176.87a1.69,1.69,0,0,0-2.86.07l-7.8-2.67,27-10.61,20.94,1.49Z" transform="translate(-9.58 -49.07)"/><path class="cls-1" d="M690.84,181.22a.59.59,0,0,0-.52,0l-34.65,19.58L703,172.71Z" transform="translate(-9.58 -49.07)"/><path class="cls-1" d="M738.36,195.73l4.75-6s0,0,0,0,0,0,0,0l37.12-5.1L771.8,194.8Z" transform="translate(-9.58 -49.07)"/><path class="cls-1" d="M434,333.1l-7,7,2.06-8.49a2.57,2.57,0,0,0,.48,0,2.71,2.71,0,0,0,1.72-.92l3,2Z" transform="translate(-9.58 -49.07)"/><polygon class="cls-1" points="421.56 291.44 425.55 283.82 431.37 287.75 421.56 291.44"/><path class="cls-1" d="M428.76,331.54l-2.14,8.83-27.06-4.49,27.08-6.1A2.72,2.72,0,0,0,428.76,331.54Z" transform="translate(-9.58 -49.07)"/><path class="cls-1" d="M345.66,331.08l-2.54-2.15a.38.38,0,0,0-.18-.13l.48-5.29Z" transform="translate(-9.58 -49.07)"/><polygon class="cls-1" points="344.49 278.17 344.39 278.22 334.18 273.69 342.71 271.13 344.49 278.17"/><path class="cls-1" d="M339,324.87l.49,3.58-.08,0-2.16,1.72-2.56-1.37,4.08-4A.44.44,0,0,0,339,324.87Z" transform="translate(-9.58 -49.07)"/><path class="cls-1" d="M334.19,329.69l2.43,1.8-.91,1.43-4.46-2.16,2.88-1.16A.12.12,0,0,0,334.19,329.69Z" transform="translate(-9.58 -49.07)"/><path class="cls-1" d="M340.31,332.17h0l-.39-2.86,2.4.28Z" transform="translate(-9.58 -49.07)"/><path class="cls-1" d="M382.35,328.25l1.51-4.59h.08a2.59,2.59,0,0,0,1.88-1.21l12.37,13Z" transform="translate(-9.58 -49.07)"/><path class="cls-1" d="M381.67,322.77l-7.39,5.05-1.93-2.65,9-3A2.42,2.42,0,0,0,381.67,322.77Z" transform="translate(-9.58 -49.07)"/><polygon class="cls-1" points="345.17 278.03 344.77 278.08 343 271.07 357.42 269.08 345.17 278.03"/><polygon class="cls-1" points="356.44 276.48 358.03 269.26 361.86 275.73 356.44 276.48"/><path class="cls-1" d="M408.24,479.1V479L415.68,449,424.2,451a2.55,2.55,0,0,0,1.48,1.7l.71,42.23L408.5,479.82Z" transform="translate(-9.58 -49.07)"/><path class="cls-1" d="M599.08,384.17,572.94,364.3l-4.79-8.87,21.6,12.16v0s0,.07,0,.1h0L599.43,384A2.37,2.37,0,0,0,599.08,384.17Z" transform="translate(-9.58 -49.07)"/><polygon class="cls-1" points="580.75 318.45 585.65 295.41 615.54 329.89 580.75 318.45 580.75 318.45"/><polygon class="cls-1" points="593.23 295.05 600.61 282.05 627.98 317.26 593.23 295.05"/><path class="cls-1" d="M643.5,308.55l-.77-8.95,26,25.38-.13.18-25.08-16.57S643.5,308.57,643.5,308.55Z" transform="translate(-9.58 -49.07)"/><path class="cls-1" d="M610,330.45h0L589.3,312.12l5.79-9.15L620,327.24a2.4,2.4,0,0,0-.58,1L610,330.45Z" transform="translate(-9.58 -49.07)"/><polygon class="cls-1" points="592.9 242.23 598.58 233.26 633.22 259.38 620.88 264.97 592.9 242.23"/><polygon class="cls-1" points="575.23 374.14 592.95 389.86 595.69 409.72 575.23 374.14"/><polygon class="cls-1" points="574.33 390.15 574.91 374.35 584.11 394.46 574.33 390.15"/><path class="cls-1" d="M584.52,422.53s0,0,0,0v-.05s0,0,0,0,0,0,0,0,0,0,0-.06l0,0-.09,0,0,0-11.75-22,26.49,13,3.48,25.28-18-15.91Z" transform="translate(-9.58 -49.07)"/><path class="cls-1" d="M600.69,389h.11L602,409.31l-2.74,3.36Z" transform="translate(-9.58 -49.07)"/><path class="cls-1" d="M755.63,223.6h-.16a.25.25,0,0,0-.22.09L723,216.31l3.78-6.81,39.84,7.37Z" transform="translate(-9.58 -49.07)"/><path class="cls-1" d="M688.7,234.94l-42.84-6.32,5.27-7.21.14-.12,42.14,8.37-4.7,5.27Z" transform="translate(-9.58 -49.07)"/><path class="cls-1" d="M671.74,324.74a2.09,2.09,0,0,0-1.66-.52,2.06,2.06,0,0,0-1.18.55l-26.15-25.56,11-5.44,24.59,17.05a1.71,1.71,0,0,0,.16,2.41Z" transform="translate(-9.58 -49.07)"/><polygon class="cls-1" points="593.5 421.95 585.91 398.41 597.43 423.63 593.5 421.95"/><polygon class="cls-1" points="636.9 179.94 679.05 186.16 678.61 195.35 636.9 179.94"/><path class="cls-1" d="M726.36,209.1a.06.06,0,0,0,0,0s0,0,0,0v0l-68.07,6.48,79.09-19.49-2.67,3.88a2.84,2.84,0,0,0-3.49,4.34Z" transform="translate(-9.58 -49.07)"/><path class="cls-1" d="M693.7,229.38s-.05,0-.07,0h0l-41-8.16,58.79,2.6-17.63,5.47S693.72,229.36,693.7,229.38Z" transform="translate(-9.58 -49.07)"/><polygon class="cls-1" points="631.25 186.43 636.01 179.92 678.42 195.59 665.88 204.58 631.25 186.43"/><path class="cls-1" d="M678.51,310.61l-24.64-17.09s0,0,0,0l-1.8-13.12a2.64,2.64,0,0,0,.28,0l.07,0,26.14,30.22Z" transform="translate(-9.58 -49.07)"/><path class="cls-1" d="M652,277.36a1.49,1.49,0,0,0-1,.59l-19.26-29.42,31.37,25.52-9.6,4.05A1.51,1.51,0,0,0,652,277.36Z" transform="translate(-9.58 -49.07)"/><path class="cls-1" d="M663.63,264.08l-26-23.18,38.14,20.21-12.14,3Z" transform="translate(-9.58 -49.07)"/><path class="cls-1" d="M608,528.16h0L592.27,512.9l5.68-5.09L611.8,521s0,0,0,0l0,0,3,2.46.71,5.15-6.23.86Z" transform="translate(-9.58 -49.07)"/><path class="cls-1" d="M461.76,475.77l25.21,6,11.47,14-36.79-19.73C461.69,476,461.72,475.87,461.76,475.77Z" transform="translate(-9.58 -49.07)"/><path class="cls-1" d="M434.33,436.29,457,472.72a1.2,1.2,0,0,0-.22.23l-32.66-32.16Z" transform="translate(-9.58 -49.07)"/><path class="cls-1" d="M500.16,496.49l-.43-.18h0a.52.52,0,0,0-.21,0h-.06l-.07,0-.27-.15-11.68-14.26,32,7.6a2,2,0,0,0-.13.93s0,0,0,.06Z" transform="translate(-9.58 -49.07)"/><path class="cls-1" d="M564.51,517.32l2.68,6.58-18.28-7.63,15.49,1.07Z" transform="translate(-9.58 -49.07)"/><path class="cls-1" d="M570.54,513.81a1.39,1.39,0,0,0-.11.65l-6,1.71-.68,0-38.62-24.29Z" transform="translate(-9.58 -49.07)"/><polygon class="cls-1" points="395.35 360.37 414.38 370.51 424.29 386.47 413.83 391.06 402.19 379.59 395.35 360.37"/><path class="cls-1" d="M424.16,449.82l-8.2-2,.94-3.79,7.33,5.53A2.5,2.5,0,0,0,424.16,449.82Z" transform="translate(-9.58 -49.07)"/><path class="cls-1" d="M767,216.5a.3.3,0,0,0-.22.1l-39.76-7.35,4.53-4.45a2.86,2.86,0,0,0,2.08.58,2.82,2.82,0,0,0,2.37-2l37.3,2.33c0,.12,0,.23,0,.35a2.44,2.44,0,0,0,1,1.65l-7.21,8.79Z" transform="translate(-9.58 -49.07)"/><path class="cls-1" d="M548.64,518.23l16.75,9.3.06,0,0,0,1.11.43,27.22,28.23-1-.16h0a.14.14,0,0,0-.09,0h-.08l0,0h0s0,0,0,.07l0,0-2.73,8.87Z" transform="translate(-9.58 -49.07)"/><polygon class="cls-1" points="407.16 393.55 402.41 380.22 413.55 391.18 407.43 393.87 407.16 393.55"/><path class="cls-1" d="M617.5,547.41l-11.06-14,0-.06s0,0,0-.07h0l1.2-3,.74.72,0,0h0l0,0,.16.12a1,1,0,0,0,.25.08,1.22,1.22,0,0,0,.27,0l.29,0,9,9.12Z" transform="translate(-9.58 -49.07)"/><path class="cls-1" d="M575.89,463.59l2.72-.32L593,478.81a1.45,1.45,0,0,0-.55,1.3,1.49,1.49,0,0,0,1.66,1.31,1.52,1.52,0,0,0,.36-.12L598.63,492Z" transform="translate(-9.58 -49.07)"/><path class="cls-1" d="M618.12,512.69l0-.08a.76.76,0,0,0-.06-.16.86.86,0,0,0-.1-.16s0-.06,0-.08l-13.8-14,32.12,18Z" transform="translate(-9.58 -49.07)"/><polygon class="cls-1" points="584.01 507.73 593.3 509.24 618.48 541.87 584.01 507.73"/><path class="cls-1" d="M637.08,522.8a3.58,3.58,0,0,0-2.87,2.18L619,519.56s0-.08,0-.11l-.85-6.15,18.39,3.59s0,.07,0,.1a1.24,1.24,0,0,0,1,1.08l-.07,4.72Z" transform="translate(-9.58 -49.07)"/><path class="cls-1" d="M607.62,486.74l.07,0h.09a.13.13,0,0,0,.08,0h0l23.92,18.64-34-23.45Z" transform="translate(-9.58 -49.07)"/><path class="cls-1" d="M606.17,549.79h-.11l-5.76-13.66,5.69-2.36L617.2,548l-9.35,2.71A1.67,1.67,0,0,0,606.17,549.79Z" transform="translate(-9.58 -49.07)"/><polygon class="cls-1" points="417.4 446.38 416.71 404.81 427.2 454.68 417.4 446.38"/><path class="cls-1" d="M605.37,552.8,603,557.43l-13.49-23,8.51,2.41.09,0a1,1,0,0,0,.29,0l.08,0a.2.2,0,0,0,.11,0l1.15-.47L605.51,550a1.67,1.67,0,0,0-.81,1.63A1.65,1.65,0,0,0,605.37,552.8Z" transform="translate(-9.58 -49.07)"/><path class="cls-1" d="M608.87,486l2.08-1.51a3.11,3.11,0,0,0,2.76,1.14,3.15,3.15,0,0,0,1.59-.69L644,506.24h0l-.18,7Z" transform="translate(-9.58 -49.07)"/><path class="cls-1" d="M599.3,413.12l2.87-3.51,16.9,28.68,0,0-2.29,3Z" transform="translate(-9.58 -49.07)"/><path class="cls-1" d="M636.35,426.91l0,0-.06,0-.07,0H636l-18.46-28.65a3,3,0,0,0-.17-4.54l8.15-14,32.39,34.8L650.45,429a1.23,1.23,0,0,0-.33,0,1.14,1.14,0,0,0-.9.68l-6.09.84a2,2,0,0,0-3.59-.82l-3.16-2.76Z" transform="translate(-9.58 -49.07)"/><path class="cls-1" d="M794.39,333.31a3.68,3.68,0,0,0-2.68,1.73l-89.57-48.27,8.36-6a2.3,2.3,0,0,0,1.7.5,2.27,2.27,0,0,0,1.6-1l96.4,41.85-2.08,9.54L798,335.08A3.67,3.67,0,0,0,794.39,333.31Z" transform="translate(-9.58 -49.07)"/><path class="cls-1" d="M810.56,321.71l-96.49-41.89a2.31,2.31,0,0,0,.13-1.05,2.28,2.28,0,0,0-1.76-1.95l.15-11.28a2.44,2.44,0,0,0,.38,0,3.15,3.15,0,0,0,2.46-1.75l113.13,42.6a3.08,3.08,0,0,0,0,.43,2.07,2.07,0,0,0,.87,1.43l-1.4,8.58Z" transform="translate(-9.58 -49.07)"/><path class="cls-1" d="M830.34,304.55a2,2,0,0,0-1.64,1.26L715.64,263.23a3,3,0,0,0,.1-1.21,3.14,3.14,0,0,0-1-2l7.22-8.14L840,285.15a1.82,1.82,0,0,0,0,.33,2.08,2.08,0,0,0,1.32,1.7l.33,12.13L832,305.1A2,2,0,0,0,830.34,304.55Z" transform="translate(-9.58 -49.07)"/><path class="cls-1" d="M381.19,321.93l-9,3,0,0a.08.08,0,0,0,0,0h0l0,0,0,0,.65-4.87a1.35,1.35,0,0,0,.35,0,1.3,1.3,0,0,0,1-.72l7.09,1.35a2.43,2.43,0,0,0,0,.81A3.12,3.12,0,0,0,381.19,321.93Z" transform="translate(-9.58 -49.07)"/><path class="cls-1" d="M700.07,393.64l-47.93-40.76a3,3,0,0,0,.79-2.37,3,3,0,0,0-1.17-2l9.91-12.56,54.64,46.44a2,2,0,0,0-.37,1.42,2,2,0,0,0,1.24,1.63l-4.66,6.51Z" transform="translate(-9.58 -49.07)"/><path class="cls-1" d="M878.49,262.72a2,2,0,0,0-1.41-.38,2,2,0,0,0-1.74,1.9l-22.63,1.59L742.1,242.48,752,236a3,3,0,0,0,5.78-1l120,19.57s0,0,0,.07a1.46,1.46,0,0,0,1.62,1.28,1.44,1.44,0,0,0,1.16-.9l4.21.69Z" transform="translate(-9.58 -49.07)"/><path class="cls-1" d="M688.39,405.84l-11.91,1.63-38-40.69,9.69-13.53a2.94,2.94,0,0,0,2.15.59,2.86,2.86,0,0,0,1.4-.57L699.57,394l-8.28,10.14a2,2,0,0,0-1-.14A2.11,2.11,0,0,0,688.39,405.84Z" transform="translate(-9.58 -49.07)"/><path class="cls-1" d="M717.71,381.52a2,2,0,0,0-1,.42l-54.67-46.46,7.38-7.25a2.13,2.13,0,0,0,1.15.19,2.05,2.05,0,0,0,1.18-.54l65.62,47.93a2,2,0,0,0,.51,1.91l-3.64,3.76-14.27,2a.76.76,0,0,0,0-.15A2,2,0,0,0,717.71,381.52Z" transform="translate(-9.58 -49.07)"/><path class="cls-1" d="M758,361.33l-76.61-49a1.79,1.79,0,0,0,0-.57,1.75,1.75,0,0,0-.37-.87l11.4-7a3.92,3.92,0,0,0,3.65,1.63,4,4,0,0,0,3-2.09l76.12,46.95-2,4.66a2.53,2.53,0,0,0-3.84,2.46,3.63,3.63,0,0,0,.1.45Z" transform="translate(-9.58 -49.07)"/><path class="cls-1" d="M775.61,349.88l-76.3-47.06a3.84,3.84,0,0,0,.2-1.73,3.94,3.94,0,0,0-1.92-2.92l4.16-10.94,89.7,48.33a3.7,3.7,0,0,0-.27,1.82,3.66,3.66,0,0,0,2,2.85l-.88,5.21Z" transform="translate(-9.58 -49.07)"/><path class="cls-1" d="M431.71,329.91a2.67,2.67,0,0,0,.21-1.35l39.54-9.46-36.42,13Z" transform="translate(-9.58 -49.07)"/><path class="cls-1" d="M778.41,136.7a1.85,1.85,0,0,0-1.62,2.05,1.88,1.88,0,0,0,.2.62l-65.87,28.69a2.74,2.74,0,0,0-4.91,2c0,.1,0,.2.06.3l-.33.3-62.15,36.9L626,217.6l0,0-.09.08-.08.08v0l-4,6.72L477.45,322.31a2.72,2.72,0,0,0-2.27-.83,2.69,2.69,0,0,0-2.35,3,2.17,2.17,0,0,0,.07.35L441.28,336.7l-6-4,40.12-14.36,0,0h0l129.85-87.21v0h0l24.56-23.75,77.48-40.36.07,0a.43.43,0,0,0,.31-.07l62.61-38.8a2.08,2.08,0,0,0,1.68.56,2.1,2.1,0,0,0,1.84-2.33,1.5,1.5,0,0,0-.06-.29L874,54.53l.09,0-5,12.32-88.61,70.39-.37.21A1.82,1.82,0,0,0,778.41,136.7Z" transform="translate(-9.58 -49.07)"/><path class="cls-1" d="M920.09,213.52a2.84,2.84,0,0,0-2.46,2.39l-150.17.59,7.08-8.63a2.4,2.4,0,0,0,3.58-1.87L856,204.85h0l73.29-8.44,18.29,9.14-24.78,9.26A2.87,2.87,0,0,0,920.09,213.52Z" transform="translate(-9.58 -49.07)"/><path class="cls-1" d="M402.75,324.69l-4,10.95L386,322.18a2.64,2.64,0,0,0,.19-.64l.89.17Z" transform="translate(-9.58 -49.07)"/><path class="cls-1" d="M426.56,329.5,399,335.7l4-11,8.31,1.58a1.61,1.61,0,0,0,0,.38,1.65,1.65,0,0,0,3.21.35l11.93,1.89a1.92,1.92,0,0,0,0,.24C426.5,329.29,426.54,329.39,426.56,329.5Z" transform="translate(-9.58 -49.07)"/><path class="cls-1" d="M822.55,131.61a1.6,1.6,0,1,0-2.56,1.91l-14.35,19.37-30.45,12-21.06-1.5.1,0a.14.14,0,0,0,.08-.19.15.15,0,0,0-.19-.08l-.66.27-.38,0,27-17.27,0,0,0-.05a.06.06,0,0,0,0,0s0,0,0,0l-.79-5.73a1.84,1.84,0,0,0,1.06-1.89h0L934.63,49.07a1.75,1.75,0,0,0,.32.29L915.64,77Z" transform="translate(-9.58 -49.07)"/><path class="cls-1" d="M881.39,131.47a2.32,2.32,0,0,0-2,2.56c0,.11,0,.22.07.32l-32.88,16L806,152.85l14.16-19.12a1.6,1.6,0,0,0,2.6-1.32L972,76.39a1.47,1.47,0,0,0,.13.37L940.64,104.5,883.5,132.37A2.3,2.3,0,0,0,881.39,131.47Z" transform="translate(-9.58 -49.07)"/><path class="cls-1" d="M864.81,198.29a2.32,2.32,0,0,0-4.53.2l-88.11-3.68,8.5-10.33,59.8,7.44s0,0,0,0,0,0,0,0l49-12.65a2.3,2.3,0,0,0,4.33-.41L976,190.32Z" transform="translate(-9.58 -49.07)"/><path class="cls-1" d="M891.32,176a2.32,2.32,0,0,0-2,2.56,2.59,2.59,0,0,0,.09.4l-48.89,12.64L781,184.22l15.71-11.16,18.38,8.61h.13l47.1-13.92s0,0,.06-.05h0l4.36-6.8a1.51,1.51,0,0,0,.67.07,1.59,1.59,0,0,0,1.4-1.41l71.76-9.88,56.13,6.85-102.87,21.4A2.31,2.31,0,0,0,891.32,176Z" transform="translate(-9.58 -49.07)"/><path class="cls-1" d="M867.06,157.77a1.6,1.6,0,0,0-.57,3l-4.31,6.7-47,13.91L797,172.89l49.61-22.23h0l32.88-16a2.3,2.3,0,0,0,4.43-1.11l97.63-13.43-44.06,18.57L876.81,154h0l-8.12,4.62A1.57,1.57,0,0,0,867.06,157.77Z" transform="translate(-9.58 -49.07)"/><path class="cls-1" d="M841.85,283.15a2.1,2.1,0,0,0-1.74,1.42L722.61,251.5l18.8-8.61s0,.05.09.06l110.89,23.41-.08,13.24-8.61,4.3A2.09,2.09,0,0,0,841.85,283.15Z" transform="translate(-9.58 -49.07)"/><path class="cls-1" d="M150.8,566.05h0l35.94-54.8s0,0,0,0l10.91-1.33L130.27,615.1,111,629.64l1.69-16.54,38.07-47Z" transform="translate(-9.58 -49.07)"/><path class="cls-1" d="M176.5,603.33a1.75,1.75,0,0,0-.51-1l40-93.54s0-.05,0-.07l10.84-4.94-32.43,86.78-9.79,13.26a3.14,3.14,0,0,0-1.83-.34,3.09,3.09,0,0,0-2.71,3.44,1.89,1.89,0,0,0,.05.23l-6.67,1.14,1.27-3H175A1.76,1.76,0,0,0,176.5,603.33Z" transform="translate(-9.58 -49.07)"/><path class="cls-1" d="M208.34,505l7,3.64L175.5,602a1.78,1.78,0,0,0-.95-.17,1.75,1.75,0,0,0-1.53,2,1.59,1.59,0,0,0,.09.39l-13.7,7.26a2.36,2.36,0,0,0-2.11-.86,2.3,2.3,0,0,0-1.78,1.2l-2.65-3.7Z" transform="translate(-9.58 -49.07)"/><path class="cls-1" d="M728,514.13l-70.65-26.36-3-7a1.61,1.61,0,0,0,.91-.7l72.95,27.85,1.68,5.3h-.23A2.62,2.62,0,0,0,728,514.13Z" transform="translate(-9.58 -49.07)"/><path class="cls-1" d="M242.35,493.89l8.32-1.34a2.66,2.66,0,0,0,0,.63,3.06,3.06,0,0,0,1.92,2.48l-20.19,96.9-7.23,3.64a2.43,2.43,0,0,0-4.25.31l-7.78-5.23Z" transform="translate(-9.58 -49.07)"/><path class="cls-1" d="M115.41,557.44a3.18,3.18,0,0,0,2.8-3.29l4,0h0l.06,0h0l30.36-26.5s0,0,0-.05,0,0,0,0l2.12-16.5,11.7-4.77A3.52,3.52,0,0,0,168,508L148.5,549.25a.36.36,0,0,0-.17.07l-32.11,30h0L55.77,641.6,74.9,601.42a.81.81,0,0,0,.16,0A1.3,1.3,0,0,0,76.2,600a1.4,1.4,0,0,0-.13-.41l36.57-43.21A3.22,3.22,0,0,0,115.41,557.44Z" transform="translate(-9.58 -49.07)"/><path class="cls-1" d="M302.75,566.35l-.26-75.4,13.86.5,5.21,74-8.86-4.88a3.07,3.07,0,0,0,.06-1,2.89,2.89,0,1,0-5.2,2Z" transform="translate(-9.58 -49.07)"/><path class="cls-1" d="M116.8,512.85a3,3,0,0,0,2.66-3l17.2-1.25-18,24.81a2.21,2.21,0,0,0-3.37,2.15,2.1,2.1,0,0,0,.25.78L44,580.35,10.65,590l103.62-78.1A3.06,3.06,0,0,0,116.8,512.85Z" transform="translate(-9.58 -49.07)"/><path class="cls-1" d="M117.81,537.48a2.21,2.21,0,0,0,2-2.46,2.16,2.16,0,0,0-.22-.72l35-23.1-2.08,16.21-30.29,26.43-4,0a3.19,3.19,0,0,0-6.33.78,3,3,0,0,0,.09.43l-3.72,2a1.55,1.55,0,0,0-2.72,1.17,1.37,1.37,0,0,0,.08.35L69,593.24,37.44,615.11l53-62.65,25.46-15.67A2.2,2.2,0,0,0,117.81,537.48Z" transform="translate(-9.58 -49.07)"/><path class="cls-1" d="M274.8,580.89a3.45,3.45,0,0,0-2.3,1.28l-2.94-1.24,6.11-85.47,8.08,1.66a4.55,4.55,0,0,0-.12,1.61,4.3,4.3,0,0,0,3.79,3.77l-.94,71.6-8.64,8A3.46,3.46,0,0,0,274.8,580.89Z" transform="translate(-9.58 -49.07)"/><path class="cls-1" d="M672.47,590a.93.93,0,0,0-.2.07l-41.59-51.75a.32.32,0,0,0-.14-.12l.28-6.52,50.77,55.89.08.06-.59,4.89-7.15-1.18a1,1,0,0,0,0-.17A1.33,1.33,0,0,0,672.47,590Z" transform="translate(-9.58 -49.07)"/><path class="cls-1" d="M668.52,597l-49.13-56.51,10.38-1.43a0,0,0,0,0,0,0l41.62,51.8a1.29,1.29,0,0,0-.09.62,1.31,1.31,0,0,0,1.47,1.16,1,1,0,0,0,.24-.08l2.39,3.48Z" transform="translate(-9.58 -49.07)"/><path class="cls-1" d="M608.33,594.77l-15.28-24.06,18.54,21.16-1.28,2.82a2.57,2.57,0,0,0-2,.08Z" transform="translate(-9.58 -49.07)"/><path class="cls-1" d="M707.75,562.39l-68.7-45.15a1.26,1.26,0,0,0,.06-.55s0,0,0,0l4.68-2,0,0,.05,0,73.39,37.76a1.94,1.94,0,0,0,0,.54.76.76,0,0,0,0,.16Z" transform="translate(-9.58 -49.07)"/><path class="cls-1" d="M590.9,590.27l-10.39-23.44,26.93,28.57a2.89,2.89,0,0,0-.33.45l-15.53-4.61Z" transform="translate(-9.58 -49.07)"/><path class="cls-1" d="M327.73,492.73a4.14,4.14,0,0,0,.61,0,3.67,3.67,0,0,0,3.22-4.08h0l11-1.13,16.68,66.76-5.37,6.34a2.41,2.41,0,0,0-1.2-.17,2.35,2.35,0,0,0-1.72,1.1l-10.54-3.15Z" transform="translate(-9.58 -49.07)"/><path class="cls-1" d="M438,505.81l13.25,15.35a2.85,2.85,0,0,0-.74,1.55l-7.31-.89Z" transform="translate(-9.58 -49.07)"/><path class="cls-1" d="M468.31,515.67,427.55,452.8a2.45,2.45,0,0,0,.58-.3l28.17,21.26a2.75,2.75,0,0,0-.17,1.34,2.92,2.92,0,0,0,3.24,2.56,1.83,1.83,0,0,0,.32-.07l16.49,28.77-.58,5.32Z" transform="translate(-9.58 -49.07)"/><path class="cls-1" d="M476.65,506l-16.4-28.61a3.78,3.78,0,0,0,.4-.22l27.62,24.44-.19,5.18Z" transform="translate(-9.58 -49.07)"/><path class="cls-1" d="M711.67,276.77a2.27,2.27,0,0,0-1.56.91L676,254l12.6-9L710,260.68a3.11,3.11,0,0,0-.5,2.08,3.16,3.16,0,0,0,2.84,2.78l-.15,11.23A1.93,1.93,0,0,0,711.67,276.77Z" transform="translate(-9.58 -49.07)"/><polygon class="cls-1" points="635.79 456.55 643.21 453.2 711.39 484.87 705.06 491.02 635.79 456.55"/><polygon class="cls-1" points="643.44 452.67 640.23 445.42 710.42 476.15 711.53 484.29 643.44 452.67"/><polygon class="cls-1" points="593.29 390.16 608.36 403.52 596.01 409.91 593.29 390.16"/><path class="cls-1" d="M737.64,195.72h0l0,.09L657.71,215.5l3.77-3.39,80.77-22.27-4.61,5.87Z" transform="translate(-9.58 -49.07)"/><path class="cls-1" d="M614.08,471.94l0,0-6.64.91h0l-12.68-27.75-.38-1.19h0a.6.6,0,0,0-.08-.08s0-.06,0-.07h0l-.1,0-8.42-18.42,19.51,33.94,0,0,0,0a0,0,0,0,1,0,0l0,.09v.08a.22.22,0,0,0,0,.08.19.19,0,0,0,0,.08s0,0,0,0l0,0,.07.08.06.05,0,0,7.67,4Z" transform="translate(-9.58 -49.07)"/><path class="cls-1" d="M637.7,515.58a1.22,1.22,0,0,0-.75.39l-34.34-19.28-1.34-1.37-.82-1-5.24-13.5,44.59,30.8,3.45,2.69-4.37,1.83A1.25,1.25,0,0,0,637.7,515.58Z" transform="translate(-9.58 -49.07)"/><path class="cls-1" d="M617.43,529.62a1,1,0,0,0,0-.34l-.75-5.41L630,530.6a.54.54,0,0,0,.14.35l.12.13-.31,7.09Z" transform="translate(-9.58 -49.07)"/><path class="cls-1" d="M632.18,531.45l-.87-1,3.4-1.88a3.55,3.55,0,0,0,3.22,1.33,3.62,3.62,0,0,0,2.08-1l1.68,1.23,59.52,48.91-6.1,2Z" transform="translate(-9.58 -49.07)"/><path class="cls-1" d="M702.92,573.6,640.71,528a3.56,3.56,0,0,0-2.59-5.14l.07-4.81a1.26,1.26,0,0,0,.46-.24L708.5,573l-5.48.75A.52.52,0,0,0,702.92,573.6Z" transform="translate(-9.58 -49.07)"/><polygon class="cls-1" points="640.65 487.35 692.64 525.45 692.02 529.55 640.65 487.35"/><path class="cls-1" d="M610.22,531.16l6.49-.9a.77.77,0,0,0,.39-.17l12.34,8.43L618.93,540Z" transform="translate(-9.58 -49.07)"/><path class="cls-1" d="M701.84,286.63a.23.23,0,0,0-.18,0l-25-25.29a.24.24,0,0,0,0-.09l-.72-6.92,34,23.61a2.32,2.32,0,0,0-.28,1.38,2.26,2.26,0,0,0,.61,1.29Z" transform="translate(-9.58 -49.07)"/><path class="cls-1" d="M741.69,242.39h-.07a.28.28,0,0,0-.25.08l-46.74-12.79L712.75,224s0,0,0,0h.05l0,0,39.1,9.77a3.21,3.21,0,0,0-.19,1.42,4.76,4.76,0,0,0,.13.57Z" transform="translate(-9.58 -49.07)"/><path class="cls-1" d="M712.23,259.25a3.17,3.17,0,0,0-2.12,1.18l-21.36-15.72,0,0,.43-9.26,32.52,16.23a.11.11,0,0,0,0,.05l-7.24,8.16A3.12,3.12,0,0,0,712.23,259.25Z" transform="translate(-9.58 -49.07)"/><path class="cls-1" d="M697.34,298a3.93,3.93,0,0,0-2.21-.39,4.05,4.05,0,0,0-1.47.49l-29.57-33.56,12.36-3h0l25,25.28a.36.36,0,0,0,0,.23Z" transform="translate(-9.58 -49.07)"/><path class="cls-1" d="M615.12,393a3,3,0,0,0-1.84,1L603.06,387a2.68,2.68,0,0,0,.06-.94,2.63,2.63,0,0,0-2.93-2.31,1.06,1.06,0,0,0-.19,0l-9.44-15.9,34.74,11.43a.14.14,0,0,1,0,.06l-8.2,14.09A3,3,0,0,0,615.12,393Z" transform="translate(-9.58 -49.07)"/><path class="cls-1" d="M722.07,251.35a.24.24,0,0,0-.23,0l-32.55-16.24,4.72-5.29.11,0,47,12.86-19,8.69Z" transform="translate(-9.58 -49.07)"/><path class="cls-1" d="M638.21,366.62h-.05L610.42,331l8.88-2.09a2.72,2.72,0,0,0,0,.28,2.35,2.35,0,0,0,2.61,2.06,2.41,2.41,0,0,0,1.6-.91l23.79,19.15a3.07,3.07,0,0,0-.34,1.78,3,3,0,0,0,.95,1.84Z" transform="translate(-9.58 -49.07)"/><path class="cls-1" d="M680.81,310.65a1.76,1.76,0,0,0-1.37-.44,1.62,1.62,0,0,0-.62.2l-26.08-30.14a1.53,1.53,0,0,0,1-1.58s0,0,0,0l9.92-4.19,29.3,24.23a4,4,0,0,0-1.22,3.31,4.2,4.2,0,0,0,.56,1.58Z" transform="translate(-9.58 -49.07)"/><path class="cls-1" d="M649.6,347.88a3,3,0,0,0-2.13,1.32L623.68,330a2.31,2.31,0,0,0,.31-1.22l37.48,6.88-10,12.62A3,3,0,0,0,649.6,347.88Z" transform="translate(-9.58 -49.07)"/><path class="cls-1" d="M661.63,335.35,631,314.43l12.33-5.59h0l25.09,16.57a2.26,2.26,0,0,0-.19,1.16,2.14,2.14,0,0,0,.94,1.51l-7.37,7.25A.25.25,0,0,0,661.63,335.35Z" transform="translate(-9.58 -49.07)"/><polygon class="cls-1" points="615.47 507.24 653.34 547.25 652.14 550.35 615.47 507.24"/><path class="cls-1" d="M226.93,475.36l0,0h0l.06,0,11.76-10-11.63,37.81a.28.28,0,0,0-.2.17l0,.08-11,5Z" transform="translate(-9.58 -49.07)"/><path class="cls-1" d="M208.36,504.59,217.43,479h0l9.1-3.5-10.93,32.88a.16.16,0,0,0-.09,0l-7.14-3.68A.3.3,0,0,0,208.36,504.59Z" transform="translate(-9.58 -49.07)"/><polygon class="cls-1" points="458.02 466.58 449.17 464.92 419.29 406.83 458.02 466.58"/><polygon class="cls-1" points="427.27 483.4 417.65 461.39 417.42 447.16 427.41 455.62 433.06 472.99 427.27 483.4"/><path class="cls-1" d="M203.6,480.31h.06l4.33-1a2.94,2.94,0,0,0,1.46,1.9L198.1,509.38a.3.3,0,0,0-.2.12l0,.05-11.11,1.35Z" transform="translate(-9.58 -49.07)"/><polygon class="cls-1" points="400.19 434.18 417.11 461.6 426.81 483.79 418.57 484.19 400.19 434.18"/><path class="cls-1" d="M131.93,474.69a3.07,3.07,0,0,0,2.69-3.41,2.76,2.76,0,0,0-.29-1L194.51,435a1.64,1.64,0,0,0,1.31.41,1.67,1.67,0,0,0,1.44-1.29l5.4-.38a3.57,3.57,0,0,0,0,.46,3.53,3.53,0,0,0,.63,1.62l-10.51,10.44a3,3,0,0,0-4.77,2.82,2.62,2.62,0,0,0,.26.89L140.72,482.1a3.15,3.15,0,0,0-5.73,2.17,3.27,3.27,0,0,0,.1.45l-85.64,29.7-7.37-1.34a3.57,3.57,0,0,0,.06-1.18,3.65,3.65,0,0,0-.25-.93l87-37.91A3,3,0,0,0,131.93,474.69Z" transform="translate(-9.58 -49.07)"/><path class="cls-1" d="M343.17,323l-.52,5.79-2.89-.34-.5-3.58a.53.53,0,0,0,.31-.55h0Z" transform="translate(-9.58 -49.07)"/><polygon class="cls-1" points="653.83 546.91 608.43 498.96 609.45 491.87 658.04 547.78 653.83 546.91"/><path class="cls-1" d="M279.12,404h0l73.41-23.51-81.26,30.86-3.95,1h0l-58.15,19.25a3.58,3.58,0,0,0-6.43,1.5l-5.41.38h0a1.7,1.7,0,0,0-3.37.4,3,3,0,0,0,.08.35l-54.2,31.83,58.94-37.54a2.55,2.55,0,0,0,4.7-1.65,3.4,3.4,0,0,0-.07-.34Z" transform="translate(-9.58 -49.07)"/><path class="cls-1" d="M355.94,360.45l.05.21a.14.14,0,0,0,0,.14l.08.17,3.62,13.92-.17.09-18.75-17.45Z" transform="translate(-9.58 -49.07)"/><path class="cls-1" d="M646.2,594.29l-38.32-42.15a1.56,1.56,0,0,0,.15-.89v0l9.57-2.77,43.34,50.94-13.54-4.23A1.43,1.43,0,0,0,646.2,594.29Z" transform="translate(-9.58 -49.07)"/><polygon class="cls-1" points="600.1 506.78 635.38 545.58 624.74 544.43 600.1 506.78"/><path class="cls-1" d="M372.4,319.87l-.66,4.89-3.92-6.64,3.75.56s0,.08,0,.13A1.32,1.32,0,0,0,372.4,319.87Z" transform="translate(-9.58 -49.07)"/><path class="cls-1" d="M603.38,558l2.51-5a1.72,1.72,0,0,0,1.17-.09l.13.14,26.47,40.45-2.58.35Z" transform="translate(-9.58 -49.07)"/><polygon class="cls-1" points="560.29 511.73 569.76 516.53 579.64 538.85 560.29 511.73"/><path class="cls-1" d="M519.39,490.75a1.93,1.93,0,0,0,3.66.14L562.94,516l-60.51-18.55-1.85-.78Z" transform="translate(-9.58 -49.07)"/><path class="cls-1" d="M544.62,515.77a.81.81,0,0,0,.38.44l.61.34,43,49.14-9-.59-43.55-51.55-1-1.34Z" transform="translate(-9.58 -49.07)"/><polygon class="cls-1" points="568.83 515.4 559.55 510.69 530.72 470.28 568.83 515.4"/><polygon class="cls-1" points="570.71 516.66 579.63 517.24 580.97 518.77 598.05 545.67 570.71 516.66"/><polygon class="cls-1" points="597.83 435.38 593.73 422.68 597.53 424.3 597.83 435.38"/><path class="cls-1" d="M398.65,336.09l-.59,11.53a1.22,1.22,0,0,0-.85.56l-12.13-7.59a1.62,1.62,0,0,0,.1-.76l0-.12Z" transform="translate(-9.58 -49.07)"/><path class="cls-1" d="M383.37,338.41a1.62,1.62,0,0,0-1.33,1l-9.89-1.85,0-.2,9.87-8.79,1.35,9.79Z" transform="translate(-9.58 -49.07)"/><polygon class="cls-1" points="362.74 287.84 364.84 279.26 372.22 279.4 362.74 287.84"/><polygon class="cls-1" points="361.82 287.96 359.52 286.81 360 283.38 363.69 280.3 361.82 287.96"/><polygon class="cls-1" points="547.04 284.99 579.6 317.86 558.31 305.87 547.04 284.99"/><path class="cls-1" d="M438,346.27l-3.81.68-1-.63,4.78-.11A.13.13,0,0,0,438,346.27Z" transform="translate(-9.58 -49.07)"/><polygon class="cls-1" points="320.08 293.67 320.32 295.39 318.12 295.35 320.08 293.67"/><path class="cls-1" d="M431.93,345.79s0,0,0,.07a.43.43,0,0,1,0,.05s0,0,0,0v0l-4,2.07-1-7.1,5,4.79A.64.64,0,0,1,431.93,345.79Z" transform="translate(-9.58 -49.07)"/><path class="cls-1" d="M399.33,348.38a1.2,1.2,0,0,0-.84-.74c-.05,0-.09,0-.14,0l.58-11.42L409,345.09Z" transform="translate(-9.58 -49.07)"/><path class="cls-1" d="M440.08,348.75a.44.44,0,0,0-.06.4l-1.12.87-4.33-2.83,3.52-.64a.39.39,0,0,0,.28.22h.09l3.19-.1Z" transform="translate(-9.58 -49.07)"/><polygon class="cls-1" points="418.04 299 400.4 296.05 417.03 291.64 418.04 299"/><polygon class="cls-1" points="329.33 284.48 329.04 285.26 328.32 284.91 329.3 284.45 329.33 284.48"/><polygon class="cls-1" points="332.26 286.4 330.29 284.23 330.58 284.05 333.15 286 332.26 286.4"/><polygon class="cls-1" points="327.99 285.07 328.94 285.53 326.69 291.51 322.77 289.63 324.7 286.62 327.99 285.07"/><polygon class="cls-1" points="325.22 295.43 320.41 293.32 322.61 289.88 326.59 291.78 325.22 295.43"/><polygon class="cls-1" points="322.35 289.75 320.37 292.83 320.63 288.93 322.35 289.75"/><polygon class="cls-1" points="348.02 280.05 350.39 284.24 351.24 286.63 350.37 287.31 343.47 279.7 344.77 279 348.02 280.05"/><path class="cls-1" d="M364.91,332.42a1.19,1.19,0,0,0-1,1.32,1.17,1.17,0,0,0,.73.93l-1.22.17-.57-1.19,1.59-1.75.8.55A1.43,1.43,0,0,0,364.91,332.42Z" transform="translate(-9.58 -49.07)"/><path class="cls-1" d="M364.11,331h0l0,.05-.05,0-2,2.24a.47.47,0,0,0-.06.09.44.44,0,0,0,0,.39h0l.83,1.74.06.08.05.06a.53.53,0,0,0,.21.11h.14l1.73-.24h0l1.33-.27a.23.23,0,0,0,.12-.06h0a.41.41,0,0,0,.17-.22v0l.47-1.61,1.57-.47-.41,2.94-3.92,1-2.63-1.22-.9-2.54a.05.05,0,0,1,0,0l0,0-1.94-3.47,2.86.82h.19l4-.38Z" transform="translate(-9.58 -49.07)"/><polygon class="cls-1" points="342.75 280.21 337.33 283.75 336.92 283.23 342.68 280.13 342.75 280.21"/><path class="cls-1" d="M346,332.45a.42.42,0,0,0,.22,0l.42.55-2.4,1.57,1.7-2.13Z" transform="translate(-9.58 -49.07)"/><path class="cls-1" d="M366.16,333.3a.85.85,0,0,0-.08-.24l.13.08Z" transform="translate(-9.58 -49.07)"/><path class="cls-1" d="M610.19,279.12l31.92,19.94v0l.78,9.05-34.57-26.05Z" transform="translate(-9.58 -49.07)"/><path class="cls-1" d="M572.24,326.52l-14.8,5.56,61.42-68.52-1.5,2.05v0h0l-15.87,25.08Z" transform="translate(-9.58 -49.07)"/><polygon class="cls-1" points="632.69 249.74 600.77 229.8 608.64 217.37 643.62 244.31 632.69 249.73 632.69 249.74"/><path class="cls-1" d="M650.78,278.31l-25.73-21.24,6.29-8.6,19.47,29.75Z" transform="translate(-9.58 -49.07)"/><polygon class="cls-1" points="620.28 264.85 585.82 253.42 592.74 242.48 620.28 264.85"/><path class="cls-1" d="M618.38,266.19l6.5-8.88,25.81,21.31a1.46,1.46,0,0,0,.78,1.55L653.24,293Z" transform="translate(-9.58 -49.07)"/><path class="cls-1" d="M573.13,327.43l5.46-2.05a3.55,3.55,0,0,0,3.6,2,3.63,3.63,0,0,0,1.09-.33l11.49,16.91s0,0,0,.05L593,352Z" transform="translate(-9.58 -49.07)"/><polygon class="cls-1" points="563.57 278.85 583.37 303.34 580.3 317.79 563.57 278.85"/><path class="cls-1" d="M595,343.75l-11.46-16.87a4.15,4.15,0,0,0,.43-.3l18,17.22-7-.06Z" transform="translate(-9.58 -49.07)"/><path class="cls-1" d="M581.35,320.27a3.56,3.56,0,0,0-3.12,4s0,0,0,0l-3.84,1.44,21.87-26.79L582.7,320.38A3.57,3.57,0,0,0,581.35,320.27Z" transform="translate(-9.58 -49.07)"/><path class="cls-1" d="M584.53,280.49l-87.06,90.9-2.78-.81L545.15,312a2.79,2.79,0,0,0,1.22.14,2.72,2.72,0,0,0,2.39-3,2.47,2.47,0,0,0-.3-.95l1.82-2.12h0l8.84-9.21a2.21,2.21,0,0,0,1.12.16,2.28,2.28,0,0,0,2-2.54,2.31,2.31,0,0,0-.2-.66L612.69,241l4.39-2.53Z" transform="translate(-9.58 -49.07)"/><polygon class="cls-1" points="712.84 167.11 712.74 167.18 642.23 171.74 647.49 167.01 716.55 160.43 712.84 167.11"/><polygon class="cls-1" points="508.04 268.59 518.29 257.31 532.2 249.29 508.04 268.59"/><path class="cls-1" d="M454.06,346.71s0,.05,0,.08l-3.89-.26-2.33-4.6Z" transform="translate(-9.58 -49.07)"/><path class="cls-1" d="M561.31,292.85a2.28,2.28,0,0,0-3.6,2.12,2.2,2.2,0,0,0,.48,1.14l-8.75,9.1v0h0l-1.72,2a2.72,2.72,0,0,0-3.91,3.68L485.72,363.4h0L598.37,249.28l10.7-6.17Z" transform="translate(-9.58 -49.07)"/><polygon class="cls-1" points="501.07 274.53 466.09 313.03 459.32 307.87 501.07 274.53"/><path class="cls-1" d="M511.87,322.24l-43.21,34.52-9.69-7.4a2.83,2.83,0,0,0,.54-2,2.69,2.69,0,0,0-.42-1.17l1.14-.84,64.33-37.06Z" transform="translate(-9.58 -49.07)"/><path class="cls-1" d="M654.93,216.43l-16.12,9.07,9.83-10.27a1.62,1.62,0,0,0,2.64-1.44,1.74,1.74,0,0,0-.15-.52l10.64-4.66-4.62,5.83Z" transform="translate(-9.58 -49.07)"/><path class="cls-1" d="M634.93,227.87l-16.71,9.63,9-11.6,2.88-3a2.12,2.12,0,0,0,2.86-1.65L647.3,215Z" transform="translate(-9.58 -49.07)"/><path class="cls-1" d="M453.89,348a2.84,2.84,0,0,0,3.15,2.48,2.78,2.78,0,0,0,1.29-.52l16.94,12.93a.59.59,0,0,0,.17.31.49.49,0,0,0,.29.14.25.25,0,0,0,.12,0l3,2.32s-.05.11-.07.17l-24.27-10.64-4.25-8.36,3.66.25A3.19,3.19,0,0,0,453.89,348Z" transform="translate(-9.58 -49.07)"/><polygon class="cls-1" points="607.98 188.81 603.84 191.2 615.72 178.82 607.98 188.81"/><polygon class="cls-1" points="357.22 283.41 355.56 282.28 357.93 280.84 358.96 282.89 357.22 283.41"/><polygon class="cls-1" points="522.15 311.5 522.31 311.14 542.25 318.54 540.81 332.2 527.43 331.12 522.15 311.5"/><path class="cls-1" d="M537.93,382.93l-.08-.14s0,0-.05,0a.34.34,0,0,0-.09-.08l0,0-.5-1.86,13.16,1.06-.71,6.82Z" transform="translate(-9.58 -49.07)"/><polygon class="cls-1" points="529.01 334.5 540.01 339.9 539.63 343.52 529.01 334.5"/><path class="cls-1" d="M541.65,342.4a3.3,3.3,0,0,0,1-.74l11,8.35-1.31,12.46Z" transform="translate(-9.58 -49.07)"/><polygon class="cls-1" points="543.41 318.66 543.71 315.76 545.72 319.52 543.41 318.66"/><path class="cls-1" d="M532,359.94l7.13-17.38a3.47,3.47,0,0,0,1.48.15,3.34,3.34,0,0,0,.77-.19L552.3,363l-.45,4.32Z" transform="translate(-9.58 -49.07)"/><polygon class="cls-1" points="551.67 376.9 572.18 374.08 553.92 381.05 551.67 376.9"/><path class="cls-1" d="M549.63,430.71a4.26,4.26,0,0,0,1.08-1.93l12.47,2,18.18,30.18Z" transform="translate(-9.58 -49.07)"/><polygon class="cls-1" points="528.83 334.74 539.6 343.87 538.65 352.87 528.83 334.74"/><polygon class="cls-1" points="543.1 385.34 572.4 413.26 568.07 412.31 543.1 385.34"/><polygon class="cls-1" points="551.38 376.35 539.64 354.69 540.67 344.79 574.16 373.22 551.38 376.35"/><path class="cls-1" d="M455,358.11l-8.41-2.84s0,0,0,0h0a.14.14,0,0,1,0-.06.3.3,0,0,0,0-.1h0a.43.43,0,0,0-.11-.12h0l-3.81-2.81a.45.45,0,0,0-.52,0l-.2-.13,3.08-.43a.38.38,0,0,0,.25-.13l8.23,3.6Z" transform="translate(-9.58 -49.07)"/><path class="cls-1" d="M436.57,351.85l-.45.06a.46.46,0,0,0-.24.12l-7.62-3.72,5.89-1.05,4.51,2.95Z" transform="translate(-9.58 -49.07)"/><polygon class="cls-1" points="427.57 302.7 429.34 301.31 430.79 302.26 427.57 302.7"/><path class="cls-1" d="M397,348.55a1.19,1.19,0,0,0,.69,1.35L396,356.16,384.8,341.08a1.82,1.82,0,0,0,.15-.23l12.13,7.6A1,1,0,0,0,397,348.55Z" transform="translate(-9.58 -49.07)"/><polygon class="cls-1" points="412.36 303.21 404.39 302.04 400.05 296.28 417.84 299.26 412.36 303.21"/><polygon class="cls-1" points="446.65 309.44 445.17 306.52 469.04 316.99 446.65 309.44"/><path class="cls-1" d="M543.17,341a3.11,3.11,0,0,0,.39-2.48l11.77-4.42-1.36,13Z" transform="translate(-9.58 -49.07)"/><path class="cls-1" d="M539.79,335.85a3.45,3.45,0,0,0-3,3.84,3.4,3.4,0,0,0,.86,1.9l-29.16,33-6.85-2,64.68-68.75-24.49,32.37A3.45,3.45,0,0,0,539.79,335.85Z" transform="translate(-9.58 -49.07)"/><path class="cls-1" d="M569,300.5a.27.27,0,0,0-.25.1l-.81,1.06-66.64,70.85-2.58-.75,78.95-82.44Z" transform="translate(-9.58 -49.07)"/><path class="cls-1" d="M542.89,341.45l.12-.18,10.93,6.15-.24,2.25Z" transform="translate(-9.58 -49.07)"/><polygon class="cls-1" points="450.45 399.33 450.74 394.02 472.56 411.16 464.21 416.13 450.45 399.33"/><polygon class="cls-1" points="547.27 390.7 567.08 412.09 563.8 411.37 547.27 390.7"/><path class="cls-1" d="M385.08,388.94l-.1-.05-.11,0h-.19l-5.21-11.57L392.65,395l-7.51-6S385.1,389,385.08,388.94Z" transform="translate(-9.58 -49.07)"/><path class="cls-1" d="M406.8,391.41s0-.05.06-.07l0,0s0,0,0,0a.5.5,0,0,0,0-.13s0-.06,0-.09a.62.62,0,0,0,0-.13s0-.06,0-.09,0,0,0-.06l-2.45-5.23,38.07,42.27a3,3,0,0,0-.3.4l-21.31-14.06Z" transform="translate(-9.58 -49.07)"/><path class="cls-1" d="M399.38,393.87a.65.65,0,0,0,.17-.16v0h0a.35.35,0,0,0,0-.11.53.53,0,0,0,0-.33h0l-1.88-6.59,8.35,4.87a.49.49,0,0,0,.19.07.63.63,0,0,0,.27,0l13.79,22.2-18.14-12Z" transform="translate(-9.58 -49.07)"/><path class="cls-1" d="M377.81,386.77a1.54,1.54,0,0,0,.32-1.15,1.56,1.56,0,0,0-.81-1.2l1.52-7.81L384.42,389l-.07.06,0,0s0,0,0,.06a.37.37,0,0,0-.05.11.38.38,0,0,0,0,.1s0,.07,0,.11,0,.09,0,.13a.13.13,0,0,1,0,.06l3.37,9.28Z" transform="translate(-9.58 -49.07)"/><polygon class="cls-1" points="324.58 295.75 321.39 301.02 320.66 295.68 324.58 295.75"/><polygon class="cls-1" points="334.81 299.24 334.75 301.19 328.61 299.5 334.81 299.24"/><polygon class="cls-1" points="369.44 339.65 378.33 350.68 378.57 351.33 377.63 351.71 369.44 339.65"/><path class="cls-1" d="M447.72,433.83l12,14.67-1.27,23.41a2.83,2.83,0,0,0-.66.21l-11.13-37.81A4.18,4.18,0,0,0,447.72,433.83Z" transform="translate(-9.58 -49.07)"/><path class="cls-1" d="M363,352.63h.06s0,0,.08,0l.07,0,.06-.06h0l.06,0a.42.42,0,0,0,.12,0,.33.33,0,0,0,.17,0l15,23.62L377,384.3a1.59,1.59,0,0,0-.65-.06l-.24.05-14.61-25.24Z" transform="translate(-9.58 -49.07)"/><path class="cls-1" d="M393.37,390.76l5.39,3.14a.53.53,0,0,0,.2.07.32.32,0,0,0,.14,0l2.69,7.56-6.74-4.45Z" transform="translate(-9.58 -49.07)"/><path class="cls-1" d="M545.4,466.82a3.14,3.14,0,0,0-3-2.39l1.08-10.24,12,2.62,9,7.81Z" transform="translate(-9.58 -49.07)"/><polygon class="cls-1" points="534.66 397.99 545.42 407.35 533.94 404.83 534.66 397.99"/><polygon class="cls-1" points="555.81 454.9 556.1 455.34 555.39 454.76 555.81 454.9"/><path class="cls-1" d="M544.27,446.71,545.82,432a4.26,4.26,0,0,0,1.24.05,4,4,0,0,0,1.09-.3l22.51,28.14-15.08-3.31Z" transform="translate(-9.58 -49.07)"/><path class="cls-1" d="M539.56,469a3.14,3.14,0,0,0,3.17,1.69,2,2,0,0,0,.41-.09l22,33-.79-.25-32-25.76Z" transform="translate(-9.58 -49.07)"/><polygon class="cls-1" points="324.58 295.46 320.62 295.39 320.37 293.62 324.58 295.46"/><path class="cls-1" d="M458.75,471.86l1.26-23,13.52,16.52-12.41,7.38A2.91,2.91,0,0,0,458.75,471.86Z" transform="translate(-9.58 -49.07)"/><path class="cls-1" d="M514.48,463.6l17.42,14-9.4,11.09a1.93,1.93,0,0,0-1.48-.44,1.88,1.88,0,0,0-.53.14L484,460.54Z" transform="translate(-9.58 -49.07)"/><path class="cls-1" d="M523.18,490a1.91,1.91,0,0,0-.47-1.06l9.42-11.11,31.44,25.3-40.38-12.9A1.85,1.85,0,0,0,523.18,490Z" transform="translate(-9.58 -49.07)"/><polygon class="cls-1" points="327.34 281.96 327.2 282.18 325.81 281.14 327.34 281.96"/><polygon class="cls-1" points="322.5 289.51 320.65 288.62 320.65 288.53 324.2 286.85 322.5 289.51"/><polygon class="cls-1" points="320.36 295.68 321.15 301.42 319.15 304.71 317.9 295.63 320.36 295.68"/><polygon class="cls-1" points="320.35 288.79 320.05 293.31 318.06 295.02 320.3 288.77 320.35 288.79"/><path class="cls-1" d="M330.79,351l0,.24-.09.09s0,0,0,0h0a.56.56,0,0,1-.05.08l0,.05a0,0,0,0,1,0,0s0,0,0,0v0a.17.17,0,0,0,0,.07h0v.24l-1,1.16Z" transform="translate(-9.58 -49.07)"/><polygon class="cls-1" points="333.39 301.72 328.11 301.85 326.81 299.92 333.39 301.72"/><polygon class="cls-1" points="325.45 299.45 327.08 301.88 322.69 301.98 325.45 299.45"/><path class="cls-1" d="M337.2,331.16a.5.5,0,0,0,.21,0l1,1.34L337,331.42l.17-.26S337.19,331.16,337.2,331.16Z" transform="translate(-9.58 -49.07)"/><path class="cls-1" d="M743.11,189.33l-2.18-5L779.63,172a1.47,1.47,0,0,0,1.34.71l-.5,11.54Z" transform="translate(-9.58 -49.07)"/><polygon class="cls-1" points="344.06 278.39 336.56 282.42 336.49 282.36 333.99 273.93 344.06 278.39"/><path class="cls-1" d="M283.51,462.78l-3.85-32.7,10.48,23.12a4.16,4.16,0,0,0-3.3,4.56,4.1,4.1,0,0,0,.89,2.1Z" transform="translate(-9.58 -49.07)"/><polygon class="cls-1" points="324.99 286.16 326.23 284.22 327.64 284.9 324.99 286.16"/><path class="cls-1" d="M247.86,426.2h0l-7.61,5.12a2.46,2.46,0,0,0-2.2-.92,2.43,2.43,0,0,0-2.13,2.71,2.16,2.16,0,0,0,.14.57l-26.2,6.72,50.78-22.79Z" transform="translate(-9.58 -49.07)"/><path class="cls-1" d="M236.34,434.23a2.61,2.61,0,0,0,.42.46l-38.53,10.8,9.34-3.89Z" transform="translate(-9.58 -49.07)"/><path class="cls-1" d="M191.39,451.74a3,3,0,0,0,2.66-3.38,3.41,3.41,0,0,0-.1-.46l39.64-11.11-46.3,25.32,3.28-10.4A3.2,3.2,0,0,0,191.39,451.74Z" transform="translate(-9.58 -49.07)"/><path class="cls-1" d="M267.64,413.5l9.21-2.4,17.56-3.75L283.6,412.9,267.44,416l-5,.48h0s0,0,0,0l3.72-2.47Z" transform="translate(-9.58 -49.07)"/><polygon class="cls-1" points="177.56 413.53 177.59 413.44 225.26 387.37 229.38 386.21 175.76 420.98 177.56 413.53 177.56 413.53"/><polygon class="cls-1" points="546.89 285.33 557.84 305.61 545.5 298.66 546.89 285.33"/><path class="cls-1" d="M356.24,360.43l5.07-1.19,14.56,25.16a1.53,1.53,0,0,0-.59.51l-4-2-7.56-8-7.34-14Z" transform="translate(-9.58 -49.07)"/><polygon class="cls-1" points="333.06 302.61 329.6 304.07 328.69 302.71 333.06 302.61"/><path class="cls-1" d="M368,385.62a1.07,1.07,0,0,0-.43.55l-63.73,16.66,9.27-4.76,51.27-16.88Z" transform="translate(-9.58 -49.07)"/><polygon class="cls-1" points="292.96 354.1 269.05 360.36 301.76 349.58 292.96 354.1"/><path class="cls-1" d="M338.77,333.09a.2.2,0,0,1,0,.07v.08h0l-1.2.57-1.6-.77.89-1.39Z" transform="translate(-9.58 -49.07)"/><path class="cls-1" d="M659.71,212.13l3-3.82,27.14-25.49,1-.57a.57.57,0,0,0,.29-.55l11-7.72Z" transform="translate(-9.58 -49.07)"/><polygon class="cls-1" points="520.17 253.5 490.1 267.12 543.93 227.34 520.17 253.5"/><path class="cls-1" d="M629.15,222.2l-19.36,20.16-10.65,6.14,21.16-21.43,2.24-1.66s0,0,.07-.07l.08-.09h0l.29-.49,6-2.7Z" transform="translate(-9.58 -49.07)"/><polygon class="cls-1" points="581.95 203.82 553.84 220.02 607.46 180.41 581.95 203.82"/><path class="cls-1" d="M662,211.68l1.28-1.15a.14.14,0,0,0,0,.11.11.11,0,0,0,.1.08.1.1,0,0,0,.09,0l70.69-32.39a1.65,1.65,0,0,0,2.35,1.07l1.45,1.72,2.41,3.36,2.19,5Z" transform="translate(-9.58 -49.07)"/><path class="cls-1" d="M365.71,325.59l-3.69.51a.89.89,0,0,0-1.41.19l-5.25.73,12-8.74Z" transform="translate(-9.58 -49.07)"/><path class="cls-1" d="M668.27,206l38.52-34.59a2.78,2.78,0,0,0,2.47,1,2.73,2.73,0,0,0,2.17-1.62l13.89,3.69Z" transform="translate(-9.58 -49.07)"/><path class="cls-1" d="M779.42,171.36a1.15,1.15,0,0,0,.11.31L740.8,184.11,738.55,181l32.74-10.18,8.13.54Z" transform="translate(-9.58 -49.07)"/><path class="cls-1" d="M774.85,165.33l-3.66,5.19-32.82,10.2-1.4-1.66a1.66,1.66,0,0,0,.36-1.93Z" transform="translate(-9.58 -49.07)"/><path class="cls-1" d="M734.07,178l-70.72,32.41,4-3.55,58.41-32.27.07,0h0l8.31,2.84A2,2,0,0,0,734.07,178Z" transform="translate(-9.58 -49.07)"/><path class="cls-1" d="M682.61,187.19l-32.07,25.43a1.55,1.55,0,0,0-1.06-.25,1.62,1.62,0,0,0-1.42,1.78l-.23.25L633,220.91a2.61,2.61,0,0,0,0-.28,2.24,2.24,0,0,0-.17-.59Z" transform="translate(-9.58 -49.07)"/><polygon class="cls-1" points="359.73 282.47 358.64 280.31 362.19 276.79 363.83 279.04 359.73 282.47"/><path class="cls-1" d="M385.07,339.43a1.62,1.62,0,0,0-1.37-1l-1.35-9.82,16,7.29Z" transform="translate(-9.58 -49.07)"/><path class="cls-1" d="M367.49,328.87l-5.34.51-.25-1.87a.92.92,0,0,0,.38-.56l8.31-1.14Z" transform="translate(-9.58 -49.07)"/><polygon class="cls-1" points="399.76 295.92 389.71 287.06 416.46 291.5 399.76 295.92"/><path class="cls-1" d="M432.25,345.48l0,0-.06,0-5-4.76,2.73.45h0a.16.16,0,0,0,0,.09s0,0,0,.06a.21.21,0,0,0,.06.08s0,0,.06,0l0,0,.05,0h0l7.94,2.58Z" transform="translate(-9.58 -49.07)"/><polygon class="cls-1" points="424.01 284.88 420.37 291.85 417.46 291.37 424.01 284.88"/><path class="cls-1" d="M449.11,346.46l-5.61-.38a.43.43,0,0,0-.43-.32l-4.29.14a.77.77,0,0,0,0-.15.42.42,0,0,0-.45-.42l-1.71,0,3.22-.74.1-.05,0,0a.39.39,0,0,0,.16-.2s0,0,0,0a.08.08,0,0,0,0,0s0-.05,0-.08a.19.19,0,0,0,0-.08h0l6-3.36Z" transform="translate(-9.58 -49.07)"/><path class="cls-1" d="M458.27,345.33a2.82,2.82,0,0,0-1.9-.46,2.78,2.78,0,0,0-1.89,1.06l-7.36-5.61,46.36-21Z" transform="translate(-9.58 -49.07)"/><polygon class="cls-1" points="515.63 258.5 452.73 294.73 488.98 267.95 519.68 254.04 515.63 258.5"/><polygon class="cls-1" points="335.86 302.37 336.09 302.39 345.76 310.81 330.21 304.76 335.86 302.37"/><polygon class="cls-1" points="546.47 407.87 561.37 411.14 564.05 414.48 555.24 415.5 546.47 407.87"/><polygon class="cls-1" points="573.58 413.44 584.4 395.64 592.78 421.64 573.58 413.44"/><polygon class="cls-1" points="572.28 413.53 569.5 413.85 568.42 412.68 572.28 413.53"/><path class="cls-1" d="M382,340.21a1.6,1.6,0,0,0,.69,1.14L379,346.86l-7.08-8.8h0l0,0,0,0a.16.16,0,0,0,.07-.07h0a0,0,0,0,0,0,0l9.92,1.86A1.41,1.41,0,0,0,382,340.21Z" transform="translate(-9.58 -49.07)"/><path class="cls-1" d="M606.26,484.65,584.1,463.54l18.5,7.91,4.2,13A.6.6,0,0,0,606.26,484.65Z" transform="translate(-9.58 -49.07)"/><polygon class="cls-1" points="564.09 411.73 567.42 412.46 568.78 413.93 566.1 414.25 564.09 411.73"/><path class="cls-1" d="M594.41,523.85l-10.68-13.33,6.65,2.83a1,1,0,0,0,.21.36l10.28,10Z" transform="translate(-9.58 -49.07)"/><path class="cls-1" d="M590.83,512.29l-8.43-3.61V492.94l15,13.7a1.22,1.22,0,0,0,0,.17l-6,5.41A.79.79,0,0,0,590.83,512.29Z" transform="translate(-9.58 -49.07)"/><polygon class="cls-1" points="555.54 415.76 564.26 414.75 586.84 442.99 555.54 415.76"/><path class="cls-1" d="M581.92,491.23h-.17l-.12,0-.1,0-36.28-22.51a3,3,0,0,0,.24-1.58.3.3,0,0,0,0-.1l19.25-2.23,32.71,28.44,1.24,1.56Z" transform="translate(-9.58 -49.07)"/><path class="cls-1" d="M583.87,384.55,598,385.68a2.44,2.44,0,0,0-.08,1A2.63,2.63,0,0,0,600.4,389L599,412.59Z" transform="translate(-9.58 -49.07)"/><polygon class="cls-1" points="584.99 477.42 584.78 475.95 592.46 475.74 593.84 477.07 585.07 477.48 584.99 477.42"/><path class="cls-1" d="M598.53,384.64l-18.27-6.78-7-12.94,25.54,19.42A2.06,2.06,0,0,0,598.53,384.64Z" transform="translate(-9.58 -49.07)"/><polygon class="cls-1" points="545.21 301.43 545.47 298.97 558.1 306.09 562.8 314.8 545.21 301.43"/><polygon class="cls-1" points="546.13 319.67 543.76 315.24 545.18 301.76 563.14 315.42 570.27 328.63 546.13 319.67"/><polygon class="cls-1" points="553.68 333.82 573.95 335.45 589.21 363.71 562.69 350.7 553.68 333.82"/><polygon class="cls-1" points="573.49 412.47 574.3 390.77 584.07 395.08 573.49 412.47"/><path class="cls-1" d="M297.79,427.38h0l-5.35.35,4.34-1.28L373,415.74l1.24,6.42a.71.71,0,0,0-.23.19l-10.76,6.52-38.21.92a3.56,3.56,0,0,0-6.32-.32l-20.83-2.1Z" transform="translate(-9.58 -49.07)"/><polygon class="cls-1" points="554.51 382.05 573.73 390.52 572.9 412.58 554.51 382.05"/><polygon class="cls-1" points="554.55 381.44 574.35 373.87 573.75 389.9 554.55 381.44"/><polygon class="cls-1" points="540.71 344.44 541.13 340.45 562.48 350.92 574.17 372.84 540.71 344.44"/><polygon class="cls-1" points="541.92 332.87 553.34 333.79 562.24 350.48 541.16 340.14 541.92 332.87"/><path class="cls-1" d="M404.54,445l-1.63-15a2.93,2.93,0,0,0,1.17-1l12.47,14.66,0,0,0,0v0h0l0,0-1,3.91Z" transform="translate(-9.58 -49.07)"/><polygon class="cls-1" points="395.1 397.19 405.82 399.81 398.56 429.11 395.1 397.19"/><polygon class="cls-1" points="374.19 392.09 376.81 392.72 378.38 418.6 371.12 404.27 374.19 392.09"/><path class="cls-1" d="M392.09,409.28v0a.54.54,0,0,0,0-.11.49.49,0,0,0,0-.12.34.34,0,0,0,0-.1.42.42,0,0,0,0-.12.32.32,0,0,0,0-.09l-3.88-7.08.86-.35h0l.06,0a.35.35,0,0,0,.13-.08l0,0,15.23,8.11,6.75,18.95Z" transform="translate(-9.58 -49.07)"/><path class="cls-1" d="M404.5,428.25a2.8,2.8,0,0,0,.11-1.19,2.9,2.9,0,0,0-3.23-2.55h-.05l-16.45-19.34s0,0,0-.06a.57.57,0,0,0-.49-.5l-.28-.33,7.13,5.17h0a.53.53,0,0,0,.24.11.67.67,0,0,0,.28,0l.05,0,.05,0h0l19.62,19.33L416.2,442Z" transform="translate(-9.58 -49.07)"/><polygon class="cls-1" points="324.01 383.06 324.11 383.07 329.63 408.19 316.35 408.66 324.01 383.06"/><path class="cls-1" d="M313.63,430.13l4.62.46a3.73,3.73,0,0,0-.06,1.11,3.6,3.6,0,0,0,4,3.14c.14,0,.27-.06.41-.09l2.91,23.05-9.24,6.05Z" transform="translate(-9.58 -49.07)"/><path class="cls-1" d="M356.9,438h0a3.6,3.6,0,0,0,.87-.23l3.86,8.59h0L358.7,451Z" transform="translate(-9.58 -49.07)"/><path class="cls-1" d="M389.45,400.83s0-.05,0-.08a.69.69,0,0,0,0-.13s0-.06,0-.09h0L386,391.18l8.08,6.49a.56.56,0,0,0,.26.12.5.5,0,0,0,.17,0l7.73,5.11,2.12,5.94-15-8A0,0,0,0,0,389.45,400.83Z" transform="translate(-9.58 -49.07)"/><path class="cls-1" d="M334,432.18l9.06.9,2.83,17.76h0l-6.38,6.24Z" transform="translate(-9.58 -49.07)"/><path class="cls-1" d="M564.2,503.6l2,1.61,5.2,7.8a1.41,1.41,0,0,0-.54.32L524.6,491Z" transform="translate(-9.58 -49.07)"/><polygon class="cls-1" points="393.11 354.08 411.86 366.46 414.07 370.01 395.2 359.96 393.11 354.08"/><polygon class="cls-1" points="580.66 479.81 585.01 478.65 594.99 478.19 596.18 479.35 587.88 480.49 580.66 479.81"/><path class="cls-1" d="M572,515.71a1.33,1.33,0,0,0,.83-.42L593,526.94l-6.07,1.62-1.32-.31L565.36,517.1l5.71-1.61A1.44,1.44,0,0,0,572,515.71Z" transform="translate(-9.58 -49.07)"/><polygon class="cls-1" points="555.38 468.14 574.99 478.95 558.3 475.12 557.99 474.99 555.22 468.18 555.38 468.14"/><path class="cls-1" d="M474.34,465.89l8.53-5.08,36.89,28.13a1.73,1.73,0,0,0-.19.28l-32.43-7.71Z" transform="translate(-9.58 -49.07)"/><polygon class="cls-1" points="430.53 378.79 414.58 370.29 412.44 366.84 430.53 378.79"/><path class="cls-1" d="M441.79,429.08a3.9,3.9,0,0,0-.23,1.84,3.67,3.67,0,0,0,.31,1.1l-7.74,3.4-9.66-15.57Z" transform="translate(-9.58 -49.07)"/><path class="cls-1" d="M442.3,432.79a4,4,0,0,0,3.73,1.66l.35-.08,11.15,37.88c-.13.08-.24.17-.36.26L434.6,436.17Z" transform="translate(-9.58 -49.07)"/><path class="cls-1" d="M461.93,474.42a2.89,2.89,0,0,0-.3-1L474.09,466l12.58,15.35-24.82-5.89A2.8,2.8,0,0,0,461.93,474.42Z" transform="translate(-9.58 -49.07)"/></svg>