<?xml version="1.0" encoding="utf-8"?>
<!-- Generator: Adobe Illustrator 22.1.0, SVG Export Plug-In . SVG Version: 6.00 Build 0)  -->
<svg version="1.1" id="Layer_1" xmlns="http://www.w3.org/2000/svg" xmlns:xlink="http://www.w3.org/1999/xlink" x="0px" y="0px"
	 viewBox="0 0 466 373" style="enable-background:new 0 0 466 373;" xml:space="preserve">
<style type="text/css">
	.st0{fill:#F4B444;}
	.st1{fill:#F8A146;}
	.st2{fill:#0C3A5B;}
	.st3{fill:#FFCA5B;}
	.st4{fill:#F4AD44;}
	.st5{fill:#FFE17A;}
</style>
<title>lock</title>
<g>
	<polygon class="st0" points="173.5,195 48,316 48,356.3 89.8,356.3 106.6,340.1 114.9,316 131.6,316 131.6,316 140,291.8 
		156.7,291.8 156.7,291.8 165.1,267.6 181.8,267.6 215.3,235.3 	"/>
	<path class="st0" d="M181.8,154.7L171,165.1c-3.8,3.6-5.9,8.6-5.9,13.7l0,0c0,5.2,2.1,10.1,5.9,13.8l46.7,45.1
		c3.8,3.7,8.9,5.7,14.3,5.7l0,0c5.3,0,10.5-2.1,14.2-5.7l10.8-10.4L181.8,154.7z"/>
	<g>
		<path class="st1" d="M180.1,167.7c10.3,28.4,32,51.6,59.9,64.5c0.1-0.1,0.2-0.1,0.3-0.2l10.8-10.4l5.9,5.7l-69.3-66.9L180.1,167.7
			z"/>
	</g>
	<ellipse class="st0" cx="290.5" cy="122.4" rx="108.7" ry="104.8"/>
	<g>
		<g>
			<path class="st2" d="M378.3,267.6c-2.3,0-4.2-1.8-4.2-4v-40.3c0-2.2,1.9-4,4.2-4c2.3,0,4.2,1.8,4.2,4v40.3
				C382.5,265.8,380.6,267.6,378.3,267.6z"/>
		</g>
	</g>
	<g>
		<g>
			<path class="st2" d="M56.4,78.1c0-2.2,1.9-4,4.2-4h41.8c2.3,0,4.2,1.8,4.2,4c0,2.2-1.9,4-4.2,4H60.6
				C58.3,82.1,56.4,80.3,56.4,78.1z"/>
		</g>
	</g>
	<g>
		<g>
			<path class="st2" d="M286.3,344.2c-2.3,0-4.2-1.8-4.2-4v-40.3c0-2.2,1.9-4,4.2-4c2.3,0,4.2,1.8,4.2,4v40.3
				C290.5,342.4,288.6,344.2,286.3,344.2z"/>
		</g>
	</g>
	<g>
		<g>
			<path class="st2" d="M344.9,320c-2.3,0-4.2-1.8-4.2-4v-24.2c0-2.2,1.9-4,4.2-4c2.3,0,4.2,1.8,4.2,4V316
				C349,318.2,347.2,320,344.9,320z"/>
		</g>
	</g>
	<g>
		<g>
			<path class="st2" d="M94,138.6H68.9c-2.3,0-4.2-1.8-4.2-4s1.9-4,4.2-4H94c2.3,0,4.2,1.8,4.2,4S96.3,138.6,94,138.6z"/>
		</g>
	</g>
	<g>
		<g>
			<path class="st2" d="M135.8,186.9h-16.7c-2.3,0-4.2-1.8-4.2-4s1.9-4,4.2-4h16.7c2.3,0,4.2,1.8,4.2,4S138.1,186.9,135.8,186.9z"/>
		</g>
	</g>
	<g>
		<g>
			<path class="st2" d="M219.4,311.9c-2.3,0-4.2-1.8-4.2-4v-40.3c0-2.2,1.9-4,4.2-4c2.3,0,4.2,1.8,4.2,4v40.3
				C223.6,310.1,221.8,311.9,219.4,311.9z"/>
		</g>
	</g>
	<g>
		<g>
			<path class="st2" d="M64.8,207.1c0-2.2,1.9-4,4.2-4h41.8c2.3,0,4.2,1.8,4.2,4s-1.9,4-4.2,4H68.9
				C66.6,211.1,64.8,209.3,64.8,207.1z"/>
		</g>
	</g>
	<path class="st2" d="M382.5,332.8v-34.4c0-5.4-2.2-10.4-6.1-14.3l-23.6-22.8c-2.4-2.3-3.7-5.3-3.7-8.6V220
		c34.9-19.6,58.5-55.9,58.5-97.6c0-62.2-52.5-112.9-117.1-112.9c-27.2,0-52.3,9.1-72.2,24.2h-36.5c-2.3,0-4.2,1.8-4.2,4
		c0,2.2,1.9,4,4.2,4h26.9c-7.6,7.1-14.1,15.3-19.5,24.2h-29.8c-3.4,0-6.5-1.3-8.9-3.5l-15.3-14.7c-3.9-3.8-9.2-5.9-14.8-5.9h-6.4
		c-1.7-4.7-6.3-8.1-11.8-8.1c-6.9,0-12.5,5.4-12.5,12.1s5.6,12.1,12.5,12.1c5.4,0,10-3.4,11.8-8.1h6.4c3.4,0,6.5,1.3,8.9,3.5
		l15.3,14.7c3.9,3.8,9.2,5.9,14.8,5.9h25.4c-3.8,7.6-6.8,15.7-8.7,24.2h-53.7c-1.7-4.7-6.3-8.1-11.8-8.1c-6.9,0-12.5,5.4-12.5,12.1
		c0,6.7,5.6,12.1,12.5,12.1c5.4,0,10-3.4,11.8-8.1h52.3c-0.8,5.3-1.3,10.6-1.3,16.1h-26.5c-5.6,0-10.8,2.1-14.8,5.9l-40.4,38.9
		c-2.4,2.3-5.5,3.5-8.9,3.5H64c-1.7-4.7-6.3-8.1-11.8-8.1c-6.9,0-12.5,5.4-12.5,12.1c0,6.7,5.6,12.1,12.5,12.1
		c5.4,0,10-3.4,11.8-8.1h18.9c5.6,0,10.8-2.1,14.8-5.9l40.4-38.9c2.4-2.3,5.5-3.5,8.9-3.5h27c0.5,6,1.3,12,2.7,17.8l-11.6,11.2
		c-5.4,5.2-8.3,12.1-8.3,19.4c0,5.8,1.9,11.2,5.2,15.8L42.1,310.3c-1.6,1.5-2.4,3.6-2.4,5.7v40.3c0,4.5,3.7,8.1,8.4,8.1h41.8
		c2.2,0,4.3-0.9,5.9-2.4l16.7-16.1c0.9-0.9,1.6-2,2-3.1L121,324h10.7c3.6,0,6.8-2.2,7.9-5.5l6.5-18.7h10.7c3.6,0,6.8-2.2,7.9-5.5
		l6.5-18.7h10.7c2.2,0,4.3-0.9,5.9-2.4l27.9-26.9c4.8,3.3,10.4,5.1,16.4,5.1c0,0,0,0,0,0c7.6,0,14.8-2.9,20.1-8.1l11.6-11.2
		c6,1.4,12.1,2.1,18.4,2.6v18c0,3.2-1.3,6.3-3.7,8.6l-32,30.9c-3.9,3.8-6.1,8.9-6.1,14.3v18.3c-4.9,1.7-8.4,6.1-8.4,11.4
		c0,6.7,5.6,12.1,12.5,12.1c6.9,0,12.5-5.4,12.5-12.1c0-5.2-3.5-9.7-8.4-11.4v-18.3c0-3.2,1.3-6.3,3.7-8.6l32-30.9
		c3.9-3.8,6.1-8.9,6.1-14.3v-17.5c8.6,0,17-1,25.1-2.7v84.1c-4.9,1.7-8.4,6.1-8.4,11.4c0,6.7,5.6,12.1,12.5,12.1
		c6.9,0,12.5-5.4,12.5-12.1c0-5.2-3.5-9.7-8.4-11.4v-86.1c5.8-1.7,11.3-3.8,16.7-6.3v28.6c0,5.4,2.2,10.4,6.1,14.3l23.6,22.8
		c2.4,2.3,3.7,5.3,3.7,8.6v34.4c-4.9,1.7-8.4,6.1-8.4,11.4c0,6.7,5.6,12.1,12.5,12.1c6.9,0,12.5-5.4,12.5-12.1
		C390.9,338.9,387.4,334.5,382.5,332.8z M102.4,49.9c-2.3,0-4.2-1.8-4.2-4s1.9-4,4.2-4c2.3,0,4.2,1.8,4.2,4S104.7,49.9,102.4,49.9z
		 M110.7,106.3c-2.3,0-4.2-1.8-4.2-4c0-2.2,1.9-4,4.2-4c2.3,0,4.2,1.8,4.2,4C114.9,104.5,113.1,106.3,110.7,106.3z M52.2,178.9
		c-2.3,0-4.2-1.8-4.2-4s1.9-4,4.2-4c2.3,0,4.2,1.8,4.2,4S54.5,178.9,52.2,178.9z M244.5,340.1c-2.3,0-4.2-1.8-4.2-4s1.9-4,4.2-4
		c2.3,0,4.2,1.8,4.2,4S246.8,340.1,244.5,340.1z M319.8,332.1c-2.3,0-4.2-1.8-4.2-4s1.9-4,4.2-4c2.3,0,4.2,1.8,4.2,4
		S322.1,332.1,319.8,332.1z M178.4,259.5h-13.3c-3.6,0-6.8,2.2-7.9,5.5l-6.5,18.7H140c-3.6,0-6.8,2.2-7.9,5.5l-6.5,18.7h-10.7
		c-3.6,0-6.8,2.2-7.9,5.5l-7.7,22.4l-12.9,12.4h-30v-28.9l117.1-112.9l7.9,7.6l-98.6,95.1c-1.6,1.6-1.6,4.1,0,5.7
		c0.8,0.8,1.9,1.2,3,1.2c1.1,0,2.1-0.4,3-1.2l98.6-95.1l16.2,15.6L178.4,259.5z M240.3,232c-2.2,2.1-5.2,3.3-8.3,3.3h0
		c-3.2,0-6.1-1.2-8.4-3.3l-46.7-45.1c-2.2-2.2-3.5-5-3.5-8.1c0-3,1.2-5.9,3.5-8l5.5-5.3c11.9,27.6,34.8,49.7,63.4,61.2L240.3,232z
		 M190.2,122.4c0-53.4,45-96.8,100.3-96.8c55.3,0,100.3,43.4,100.3,96.8s-45,96.8-100.3,96.8C235.2,219.2,190.2,175.8,190.2,122.4z
		 M378.3,348.2c-2.3,0-4.2-1.8-4.2-4s1.9-4,4.2-4c2.3,0,4.2,1.8,4.2,4S380.6,348.2,378.3,348.2z"/>
	<g>
		<path class="st3" d="M236.6,203.9L375,70.4c-8.4-12.6-19.7-23.2-33-30.9L204.5,172.1C212.5,185,223.5,195.9,236.6,203.9z"/>
	</g>
	<g>
		<path class="st3" d="M255.8,213.1c10.8,3.9,22.5,6.1,34.7,6.1c55.4,0,100.3-43.3,100.3-96.8c0-11.8-2.3-23-6.3-33.5L255.8,213.1z"
			/>
	</g>
	<g>
		<path class="st2" d="M290.5,49.9c41.5,0,75.3,32.6,75.3,72.6c0,40-33.8,72.6-75.3,72.6c-41.5,0-75.3-32.6-75.3-72.6
			C215.3,82.4,249,49.9,290.5,49.9 M290.5,41.8c-46.2,0-83.6,36.1-83.6,80.6c0,44.5,37.4,80.6,83.6,80.6c46.2,0,83.6-36.1,83.6-80.6
			C374.1,77.9,336.7,41.8,290.5,41.8L290.5,41.8z"/>
	</g>
	<g>
		<ellipse class="st3" cx="290.5" cy="122.4" rx="75.3" ry="72.6"/>
	</g>
	<g>
		<ellipse class="st3" cx="290.5" cy="122.4" rx="75.3" ry="72.6"/>
	</g>
	<g>
		<path class="st4" d="M223.6,130.5c0-40,33.8-72.6,75.3-72.6c18.6,0,35.7,6.6,48.8,17.4c-13.8-15.6-34.3-25.5-57.2-25.5
			c-41.5,0-75.3,32.6-75.3,72.6c0,22.1,10.3,41.8,26.4,55.1C230.5,164.9,223.6,148.5,223.6,130.5z"/>
	</g>
	<g>
		<path class="st5" d="M323.6,57.3l-100.5,97c6.9,13.6,18.1,24.8,31.8,32L356.8,88C349.3,74.7,337.6,64,323.6,57.3z"/>
	</g>
	<g>
		<g>
			<path class="st3" d="M347.7,75.4c-6.6-7.5-14.9-13.6-24.1-18l-3.7,3.5C330.2,63.8,339.7,68.8,347.7,75.4z"/>
		</g>
		<g>
			<path class="st3" d="M241.7,177.6c-6.8-7.7-12-16.8-15-26.8l-3.7,3.5C227.6,163.2,233.9,171.2,241.7,177.6z"/>
		</g>
	</g>
	<g>
		<path class="st5" d="M290.5,195c41.5,0,75.3-32.6,75.3-72.6c0-4.8-0.5-9.4-1.4-14L276,193.6C280.7,194.5,285.6,195,290.5,195z"/>
	</g>
	<path class="st2" d="M349,106.1c0,17.7-18.6,32.1-41.4,32.1h-21.1l-13.3,24.9c-4.5,8.5-17.1,12.5-28.1,9
		c6.1-11.4,16.1-30.1,25.5-47.8c21.8-8.8,54.7-14.6,54.7-14.6l8.8,4.5V103c0.7-7.2-8.4-7.1-8.4-7.1l-24,0l-8.4-5.1h-29.2
		c-11.9,0-21.5-7.5-21.5-16.7c20.3,0,65,0,65,0C330.5,74.1,349,88.4,349,106.1z M279.6,94.9l12.1,4.3l2.9-4.2L279.6,94.9z"/>
</g>
</svg>
