<svg xmlns="http://www.w3.org/2000/svg" xmlns:xlink="http://www.w3.org/1999/xlink" width="145" height="40" viewBox="0 0 145 40">
  <defs>
    <path id="logo-white-a" d="M18.9793882,0.0340540195 C18.1816812,0.0358027394 17.3849512,0.201286866 16.7796864,0.5305064 L2.21240103,8.45469265 C0.995619537,9.11653712 0,10.741282 0,12.065155 L0,27.9132514 C0,29.2370324 0.995619537,30.8619613 2.21240103,31.5239899 L8.66273008,35.0326583 L16.7796864,39.4479 C17.9964679,40.1099286 19.9877069,40.1099286 21.2043907,39.4479 L35.7717738,31.5239899 C36.988946,30.8619613 37.9841748,29.2370324 37.9841748,27.9132514 L37.9841748,12.065155 C37.9841748,10.741282 36.988946,9.11653712 35.7717738,8.45469265 L21.2043907,0.5305064 C20.5992237,0.201286866 19.8024936,0.0358027394 19.0047866,0.0340540195 L18.9793882,0.0340540195 Z M17.8114499,8.86490553 C24.2827815,8.86490553 29.6183136,13.855292 29.6183136,19.9892492 C29.6183136,26.1232065 24.321856,31.1134089 17.8114499,31.1134089 L12.0002828,31.1134089 C9.99497686,31.1134089 8.3657635,29.9819871 8.3657635,27.6892312 L8.3657635,12.2892673 C8.3657635,10.3986249 9.99224165,8.86573387 11.9987198,8.86499757 L12.0002828,24.2648694 C12.0002828,27.4832504 12.5655938,27.6892312 15.6347044,27.6892312 L17.8114499,27.6906118 C22.3185039,27.6906118 25.9853573,24.2357855 25.9853573,19.9892492 C25.9853573,15.742621 22.3185039,12.2877947 17.8114499,12.2877947 L14.6938869,12.2891752 C14.6938869,10.5783749 16.0859177,8.86490553 17.8114499,8.86490553 Z"/>
    <path id="logo-white-c" d="M0,6.37852442 L0,19.4144254 C0,20.8118925 1.07856242,22.5272705 2.3967113,23.2261498 L7.6296227,26 L13,22.7928116 L13,22.7927144 C10.8276365,22.7927144 9.06269689,21.5983139 9.06269689,19.1779355 L9.06269689,2.92075771 C9.06269689,1.72062467 9.70028898,0.657683008 10.680858,0.000194322059 L10.680858,0 L0,6.37852442 Z"/>
    <linearGradient id="logo-white-d" x1="50%" x2="50%" y1="0%" y2="100%">
      <stop offset="0%" stop-color="#F6F3EE"/>
      <stop offset="100%" stop-color="#D6D6D6"/>
    </linearGradient>
  </defs>
  <g fill="none" fill-rule="evenodd">
    <mask id="logo-white-b" fill="#fff">
      <use xlink:href="#logo-white-a"/>
    </mask>
    <path fill="#FFF" d="M16.7796864,0.5305064 L2.21240103,8.45469265 C0.995619537,9.11653712 0,10.741282 0,12.065155 L0,27.9132514 C0,29.2370324 0.995619537,30.8619613 2.21240103,31.5239899 L8.66273008,35.0326583 L16.7796864,39.4479 C17.9964679,40.1099286 19.9877069,40.1099286 21.2043907,39.4479 L35.7717738,31.5239899 C36.988946,30.8619613 37.9841748,29.2370324 37.9841748,27.9132514 L37.9841748,12.065155 C37.9841748,10.741282 36.988946,9.11653712 35.7717738,8.45469265 L21.2043907,0.5305064 C20.5992237,0.201286866 19.8024936,0.0358027394 19.0047866,0.0340540195 C18.1816812,0.0358027394 17.3849512,0.201286866 16.7796864,0.5305064 Z M17.8114499,8.86490553 C24.2827815,8.86490553 29.6183136,13.855292 29.6183136,19.9892492 C29.6183136,26.1232065 24.321856,31.1134089 17.8114499,31.1134089 L12.0002828,31.1134089 C9.99497686,31.1134089 8.3657635,29.9819871 8.3657635,27.6892312 L8.3657635,12.2892673 C8.3657635,10.3986249 9.99224165,8.86573387 11.9987198,8.86499757 L12.0002828,24.2648694 C12.0002828,27.4832504 12.5655938,27.6892312 15.6347044,27.6892312 L17.8114499,27.6906118 C22.3185039,27.6906118 25.9853573,24.2357855 25.9853573,19.9892492 C25.9853573,15.742621 22.3185039,12.2877947 17.8114499,12.2877947 L14.6938869,12.2891752 C14.6938869,10.5783749 16.0859177,8.86490553 17.8114499,8.86490553 Z" mask="url(#logo-white-b)"/>
    <g transform="translate(0 10)">
      <mask id="logo-white-e" fill="#fff">
        <use xlink:href="#logo-white-c"/>
      </mask>
      <path fill="url(#logo-white-d)" d="M0,3.77147522 L0,18.539419 C0,20.1225635 1.07856242,22.0658589 2.3967113,22.8575962 L7.6296227,26 L13,22.3666816 L13,22.3665716 C10.8276365,22.3665716 9.06269689,21.0134745 9.06269689,18.2715073 L9.06269689,-0.145715046 C9.06269689,-1.50530632 9.70028898,-2.70947799 10.680858,-3.45432531 L10.680858,-3.45454545 L0,3.77147522 Z" mask="url(#logo-white-e)"/>
    </g>
    <text fill="#FFF" font-family="Carbon-Light, Carbon" font-size="30" font-weight="300">
      <tspan x="39" y="31">pay</tspan> <tspan x="109.972" y="31" font-family="Carbon-Black, Carbon" font-weight="700">id</tspan>
    </text>
  </g>
</svg>
