<svg xmlns="http://www.w3.org/2000/svg" xmlns:xlink="http://www.w3.org/1999/xlink" width="3295" height="1024" viewBox="0 0 3295 1024">
  <defs>
    <path id="mobile-a" d="M405.50578,0.699745865 C388.462302,0.735678761 371.439696,4.13606542 358.507858,10.9009059 L47.2692479,173.727986 C21.2719964,187.327642 0,220.713084 0,247.916178 L0,573.564665 C0,600.765867 21.2719964,634.155092 47.2692479,647.75853 L185.084318,719.855048 L358.507858,810.579936 C384.50511,824.183374 427.049103,824.183374 453.044267,810.579936 L764.284965,647.75853 C790.290565,634.155092 811.554213,600.765867 811.554213,573.564665 L811.554213,247.916178 C811.554213,220.713084 790.290565,187.327642 764.284965,173.727986 L453.044267,10.9009059 C440.114517,4.13606542 423.09191,0.735678761 406.048433,0.699745865 L405.50578,0.699745865 Z"/>
    <linearGradient id="mobile-c" x1="0%" x2="128.105%" y1="-2.284%" y2="120.365%">
      <stop offset="0%" stop-color="#2DBFFF"/>
      <stop offset="57.265%" stop-color="#7875F5"/>
      <stop offset="100%" stop-color="#B543E9"/>
    </linearGradient>
    <path id="mobile-d" d="M358.507858,10.9009059 L47.2692479,173.727986 C21.2719964,187.327642 0,220.713084 0,247.916178 L0,573.564665 C0,600.765867 21.2719964,634.155092 47.2692479,647.75853 L185.084318,719.855048 L358.507858,810.579936 C384.50511,824.183374 427.049103,824.183374 453.044267,810.579936 L764.284965,647.75853 C790.290565,634.155092 811.554213,600.765867 811.554213,573.564665 L811.554213,247.916178 C811.554213,220.713084 790.290565,187.327642 764.284965,173.727986 L453.044267,10.9009059 C440.114517,4.13606542 423.09191,0.735678761 406.048433,0.699745865 C388.462302,0.735678761 371.439696,4.13606542 358.507858,10.9009059 Z"/>
    <filter id="mobile-e" width="127.5%" height="127.2%" x="-13.7%" y="-13.6%" filterUnits="objectBoundingBox">
      <feGaussianBlur in="SourceAlpha" result="shadowBlurInner1" stdDeviation="111"/>
      <feOffset dy="1" in="shadowBlurInner1" result="shadowOffsetInner1"/>
      <feComposite in="shadowOffsetInner1" in2="SourceAlpha" k2="-1" k3="1" operator="arithmetic" result="shadowInnerInner1"/>
      <feColorMatrix in="shadowInnerInner1" values="0 0 0 0 0   0 0 0 0 0   0 0 0 0 0  0 0 0 0.0616508152 0"/>
    </filter>
    <path id="mobile-f" d="M0.605439848,270.049454 L159,564.850903 C159,595.863922 156.016612,645.974102 186.232641,661.483846 L276.056819,825.831382 L366.744898,864.926356 C316.947641,864.9242 326.436132,841.461837 347.852095,985.250673 C369.268058,1129.03951 741.012132,894.154315 705.785996,869.124199 C695.260969,861.645586 516.848137,420.750514 509.842958,334.455947 C509.702966,332.731433 510.693739,320.554143 509.842958,320.034969 C459.223191,289.145198 441.397528,147.982041 420.425053,119.66347 C365.084187,44.9381868 319.737985,8.27536168 331.070704,0.918818781 L0.605439848,270.049454 Z"/>
    <linearGradient id="mobile-g" x1=".258%" x2="101.258%" y1="49.75%" y2="49.75%">
      <stop offset="0%" stop-color="#3023AE"/>
      <stop offset="47.525%" stop-color="#53A0FD"/>
      <stop offset="100%" stop-color="#B4EC51"/>
    </linearGradient>
  </defs>
  <g fill="none" fill-rule="evenodd">
    <g transform="translate(106 102)">
      <mask id="mobile-b" fill="#fff">
        <use xlink:href="#mobile-a"/>
      </mask>
      <g mask="url(#mobile-b)">
        <use fill="url(#mobile-c)" xlink:href="#mobile-d"/>
        <use fill="#000" filter="url(#mobile-e)" xlink:href="#mobile-d"/>
      </g>
      <g mask="url(#mobile-b)">
        <g transform="rotate(-90 455 471.5)">
          <mask id="mobile-h" fill="#fff">
            <use xlink:href="#mobile-f"/>
          </mask>
          <path fill="url(#mobile-g)" d="M159,217.697739 L95.8848062,392.644785 C95.8848062,427.778415 163.523262,612.797802 193.739291,630.368281 L276.056819,825.831382 L478.464926,839.373444 C428.667669,839.371001 398.531186,646.242629 398.531186,585.392051 C420.310644,423.085762 413.052559,305.279067 376.75693,231.971966 C332.598013,142.783202 231.959137,15.1132848 74.8403011,-151.037786 C74.8403011,-181.210254 232.1527,64.1827792 254.630358,47.6528982 L159,217.697739 Z" mask="url(#mobile-h)"/>
        </g>
      </g>
      <text fill="#FFF" font-family="Magz" font-size="900" mask="url(#mobile-b)">
        <tspan x="146.8" y="577">P</tspan>
      </text>
    </g>
    <text fill="url(#mobile-c)" font-family="Carbon-Regular, Carbon" font-size="488">
      <tspan x="976" y="718">identity</tspan>
    </text>
  </g>
</svg>
