<?xml version="1.0" encoding="utf-8"?>
<!-- Generator: Adobe Illustrator 22.1.0, SVG Export Plug-In . SVG Version: 6.00 Build 0)  -->
<svg version="1.1" id="Layer_1" xmlns="http://www.w3.org/2000/svg" xmlns:xlink="http://www.w3.org/1999/xlink" x="0px" y="0px"
	 viewBox="0 0 100.9 86.8" style="enable-background:new 0 0 100.9 86.8;" xml:space="preserve">
<style type="text/css">
	.st0{fill:#0C3A5B;}
	.st1{fill:#D4E2ED;}
	.st2{fill:#ECF0F8;}
	.st3{fill:#B0C3D7;}
	.st4{fill:#57717F;}
	.st5{fill:#F16A56;}
	.st6{fill:#FFCA5B;}
	.st7{fill:#0A3A5B;}
</style>
<title>opensource</title>
<g>
	<g>
		<g>
			<path class="st0" d="M72.7,12c-0.5,0-1-0.4-1-1V5.3c0-0.5,0.4-1,1-1s1,0.4,1,1v5.7C73.6,11.6,73.2,12,72.7,12z"/>
		</g>
	</g>
	<g>
		<g>
			<path class="st0" d="M82.3,82.6c-0.5,0-1-0.4-1-1v-3.8c0-0.5,0.4-1,1-1s1,0.4,1,1v3.8C83.3,82.1,82.9,82.6,82.3,82.6z"/>
		</g>
	</g>
	<g>
		<g>
			<path class="st0" d="M82.3,12c-0.5,0-1-0.4-1-1V7.2c0-0.5,0.4-1,1-1s1,0.4,1,1v3.8C83.3,11.6,82.9,12,82.3,12z"/>
		</g>
	</g>
	<g>
		<g>
			<path class="st0" d="M90.1,69.2c-0.5,0-1-0.4-1-1v-9.5c0-0.5,0.4-1,1-1s1,0.4,1,1v9.5C91.1,68.8,90.6,69.2,90.1,69.2z"/>
		</g>
	</g>
	<g>
		<g>
			<path class="st0" d="M90.1,29.2c-0.5,0-1-0.4-1-1v-5.7c0-0.5,0.4-1,1-1s1,0.4,1,1v5.7C91.1,28.7,90.6,29.2,90.1,29.2z"/>
		</g>
	</g>
	<g>
		<g>
			<path class="st1" d="M19.4,12h-5.8c-2.1,0-3.9,1.7-3.9,3.8v61c0,2.1,1.7,3.8,3.9,3.8h5.8h5.8V25.4L38.4,12H19.4z"/>
			<path class="st0" d="M38.4,10.1h-19h-5.8c-3.2,0-5.8,2.6-5.8,5.7v61c0,3.2,2.6,5.7,5.8,5.7h5.8h5.8c1.1,0,1.9-0.9,1.9-1.9
				c0-1.1-0.9-1.9-1.9-1.9h-5.8c-1.1,0-1.9-0.9-1.9-1.9v-61c0-1.1,0.9-1.9,1.9-1.9h19c1.1,0,1.9-0.9,1.9-1.9S39.5,10.1,38.4,10.1z
				 M13.9,78.7h-0.4c-1.1,0-1.9-0.9-1.9-1.9v-61c0-1.1,0.9-1.9,1.9-1.9h0.4c-0.2,0.6-0.4,1.2-0.4,1.9v61
				C13.6,77.5,13.7,78.1,13.9,78.7z"/>
		</g>
		<path class="st2" d="M25.2,80.6h38.8c2.1,0,3.9-1.7,3.9-3.8v-61c0-2.1-1.7-3.8-3.9-3.8H38.4c-1,0-2,0.4-2.7,1.1l-13.2,13
			c-0.7,0.7-1.1,1.7-1.1,2.7v48C21.3,78.9,23,80.6,25.2,80.6z"/>
		<g>
			<path class="st3" d="M35.4,31.1L35.4,31.1c-0.4,0-0.7,0-1-0.1l-11.2-1.8l13.6-1.9l1.9-11.4l1.8,9c0.1,0.3,0.1,0.7,0.1,1l0,0
				C40.7,28.7,38.3,31.1,35.4,31.1z"/>
		</g>
		<path class="st0" d="M63.9,10.1h-3.9V8.2c0-3.2-2.6-5.7-5.8-5.7S48.4,5,48.4,8.2v1.9h-10c-1.6,0-3,0.6-4.1,1.7l-13.2,13
			c-1.1,1.1-1.7,2.5-1.7,4v48c0,3.2,2.6,5.7,5.8,5.7h38.8c3.2,0,5.8-2.6,5.8-5.7v-61C69.8,12.7,67.1,10.1,63.9,10.1z M52.3,8.2
			c0-1.1,0.9-1.9,1.9-1.9s1.9,0.9,1.9,1.9v1.9h-3.9V8.2z M34.9,16.6v6.8c0,1.1-0.9,1.9-1.9,1.9H26L34.9,16.6z M65.9,76.8
			c0,1.1-0.9,1.9-1.9,1.9H25.2c-1.1,0-1.9-0.9-1.9-1.9V31.1c0-1.1,0.9-1.9,1.9-1.9h7.8c3.2,0,5.8-2.6,5.8-5.7v-7.6
			c0-1.1,0.9-1.9,1.9-1.9h15.5v11.4c0,1.1-0.9,1.9-1.9,1.9s-1.9-0.9-1.9-1.9v-5.7c0-1.1-0.9-1.9-1.9-1.9s-1.9,0.9-1.9,1.9v5.7
			c0,3.2,2.6,5.7,5.8,5.7s5.8-2.6,5.8-5.7V13.9h3.9c1.1,0,1.9,0.9,1.9,1.9V76.8z"/>
		<g>
			<g>
				<path class="st4" d="M29.1,39.7c0-0.5,0.4-1,1-1h11.6c0.5,0,1,0.4,1,1s-0.4,1-1,1H30C29.5,40.6,29.1,40.2,29.1,39.7z"/>
			</g>
		</g>
		<g>
			<g>
				<path class="st4" d="M40.7,51.1c0-0.5,0.4-1,1-1h11.6c0.5,0,1,0.4,1,1c0,0.5-0.4,1-1,1H41.7C41.1,52,40.7,51.6,40.7,51.1z"/>
			</g>
		</g>
		<g>
			<g>
				<path class="st4" d="M46.5,43.5c0-0.5,0.4-1,1-1h11.6c0.5,0,1,0.4,1,1s-0.4,1-1,1H47.5C46.9,44.4,46.5,44,46.5,43.5z"/>
			</g>
		</g>
		<g>
			<g>
				<path class="st4" d="M29.1,62.5c0-0.5,0.4-1,1-1h11.6c0.5,0,1,0.4,1,1c0,0.5-0.4,1-1,1H30C29.5,63.5,29.1,63.1,29.1,62.5z"/>
			</g>
		</g>
		<g>
			<g>
				<path class="st4" d="M29.1,51.1c0-0.5,0.4-1,1-1h7.8c0.5,0,1,0.4,1,1c0,0.5-0.4,1-1,1H30C29.5,52,29.1,51.6,29.1,51.1z"/>
			</g>
		</g>
		<g>
			<g>
				<path class="st4" d="M29.1,58.7c0-0.5,0.4-1,1-1h7.8c0.5,0,1,0.4,1,1c0,0.5-0.4,1-1,1H30C29.5,59.7,29.1,59.2,29.1,58.7z"/>
			</g>
		</g>
		<g>
			<g>
				<path class="st4" d="M44.6,62.5c0-0.5,0.4-1,1-1h7.8c0.5,0,1,0.4,1,1c0,0.5-0.4,1-1,1h-7.8C45,63.5,44.6,63.1,44.6,62.5z"/>
			</g>
		</g>
		<g>
			<g>
				<path class="st4" d="M29.1,43.5c0-0.5,0.4-1,1-1h13.6c0.5,0,1,0.4,1,1s-0.4,1-1,1H30C29.5,44.4,29.1,44,29.1,43.5z"/>
			</g>
		</g>
		<g>
			<g>
				<path class="st4" d="M36.8,47.3c0-0.5,0.4-1,1-1h13.6c0.5,0,1,0.4,1,1s-0.4,1-1,1H37.8C37.2,48.2,36.8,47.8,36.8,47.3z"/>
			</g>
		</g>
		<g>
			<g>
				<path class="st4" d="M29.1,54.9c0-0.5,0.4-1,1-1h13.6c0.5,0,1,0.4,1,1c0,0.5-0.4,1-1,1H30C29.5,55.9,29.1,55.4,29.1,54.9z"/>
			</g>
		</g>
		<g>
			<g>
				<path class="st4" d="M44.6,39.7c0-0.5,0.4-1,1-1h5.8c0.5,0,1,0.4,1,1s-0.4,1-1,1h-5.8C45,40.6,44.6,40.2,44.6,39.7z"/>
			</g>
		</g>
		<g>
			<g>
				<path class="st4" d="M38.8,33.9c0-0.5,0.4-1,1-1h9.7c0.5,0,1,0.4,1,1s-0.4,1-1,1h-9.7C39.2,34.9,38.8,34.5,38.8,33.9z"/>
			</g>
		</g>
		<g>
			<g>
				<path class="st4" d="M29.1,47.3c0-0.5,0.4-1,1-1h3.9c0.5,0,1,0.4,1,1s-0.4,1-1,1H30C29.5,48.2,29.1,47.8,29.1,47.3z"/>
			</g>
		</g>
		<g>
			<g>
				<path class="st4" d="M46.5,58.7c0-0.5,0.4-1,1-1h3.9c0.5,0,1,0.4,1,1c0,0.5-0.4,1-1,1h-3.9C46.9,59.7,46.5,59.2,46.5,58.7z"/>
			</g>
		</g>
		<g>
			<g>
				<path class="st4" d="M54.2,54.9c0-0.5,0.4-1,1-1h1.9c0.5,0,1,0.4,1,1c0,0.5-0.4,1-1,1h-1.9C54.7,55.9,54.2,55.4,54.2,54.9z"/>
			</g>
		</g>
		<g>
			<g>
				<path class="st4" d="M36.8,72.1c0-0.5,0.4-1,1-1h1.9c0.5,0,1,0.4,1,1s-0.4,1-1,1h-1.9C37.2,73,36.8,72.6,36.8,72.1z"/>
			</g>
		</g>
		<g>
			<g>
				<path class="st4" d="M40.7,58.7c0-0.5,0.4-1,1-1h1.9c0.5,0,1,0.4,1,1c0,0.5-0.4,1-1,1h-1.9C41.1,59.7,40.7,59.2,40.7,58.7z"/>
			</g>
		</g>
		<g>
			<g>
				<path class="st4" d="M54.2,47.3c0-0.5,0.4-1,1-1h3.9c0.5,0,1,0.4,1,1s-0.4,1-1,1h-3.9C54.7,48.2,54.2,47.8,54.2,47.3z"/>
			</g>
		</g>
		<g>
			<g>
				<path class="st4" d="M29.1,72.1c0-0.5,0.4-1,1-1h3.9c0.5,0,1,0.4,1,1s-0.4,1-1,1H30C29.5,73,29.1,72.6,29.1,72.1z"/>
			</g>
		</g>
		<g>
			<g>
				<path class="st4" d="M46.5,54.9c0-0.5,0.4-1,1-1h3.9c0.5,0,1,0.4,1,1c0,0.5-0.4,1-1,1h-3.9C46.9,55.9,46.5,55.4,46.5,54.9z"/>
			</g>
		</g>
		<g>
			<path class="st5" d="M54.2,74.9c-4.3,0-7.8-3.4-7.8-7.6s3.5-7.6,7.8-7.6s7.8,3.4,7.8,7.6S58.5,74.9,54.2,74.9z M54.2,63.5
				c-2.1,0-3.9,1.7-3.9,3.8c0,2.1,1.7,3.8,3.9,3.8s3.9-1.7,3.9-3.8C58.1,65.2,56.4,63.5,54.2,63.5z"/>
		</g>
		<g>
			<ellipse class="st5" cx="54.2" cy="67.3" rx="1.9" ry="1.9"/>
		</g>
	</g>
	<g>
		<ellipse class="st6" cx="75.6" cy="44.4" rx="15.5" ry="15.3"/>
		<path class="st0" d="M93,44.4c0-5.9-3.1-11.2-7.8-14.3v-8c0-0.8,0.3-1.5,0.9-2l3.5-3.5c0.9-0.9,1.4-2.1,1.4-3.4V9.9
			C92.2,9.5,93,8.5,93,7.2c0-1.6-1.3-2.9-2.9-2.9s-2.9,1.3-2.9,2.9c0,1.2,0.8,2.3,1.9,2.7v3.4c0,0.8-0.3,1.5-0.9,2l-3.5,3.5
			c-0.9,0.9-1.4,2.1-1.4,3.4v6.9c-1.2-0.6-2.5-1.1-3.9-1.4v-8.2c1.1-0.4,1.9-1.4,1.9-2.7c0-1.6-1.3-2.9-2.9-2.9s-2.9,1.3-2.9,2.9
			c0,1.2,0.8,2.3,1.9,2.7v7.9c-0.6-0.1-1.3-0.1-1.9-0.1c-9.6,0-17.4,7.7-17.4,17.2s7.8,17.2,17.4,17.2v11.6
			c-1.1,0.4-1.9,1.4-1.9,2.7c0,1.6,1.3,2.9,2.9,2.9s2.9-1.3,2.9-2.9c0-1.2-0.8-2.3-1.9-2.7V61.5c1.3-0.1,2.6-0.5,3.9-0.9v4.2
			c0,1.3,0.5,2.5,1.4,3.4l3.5,3.5c0.5,0.5,0.9,1.3,0.9,2V77c-1.1,0.4-1.9,1.4-1.9,2.7c0,1.6,1.3,2.9,2.9,2.9s2.9-1.3,2.9-2.9
			c0-1.2-0.8-2.3-1.9-2.7v-3.4c0-1.3-0.5-2.5-1.4-3.4l-3.5-3.5c-0.5-0.5-0.9-1.3-0.9-2v-5C89,57,93,51.1,93,44.4z M90.1,6.3
			c0.5,0,1,0.4,1,1s-0.4,1-1,1s-1-0.4-1-1S89.6,6.3,90.1,6.3z M78.5,15.8c0.5,0,1,0.4,1,1s-0.4,1-1,1s-1-0.4-1-1
			S77.9,15.8,78.5,15.8z M76.5,76.8c-0.5,0-1-0.4-1-1s0.4-1,1-1s1,0.4,1,1S77.1,76.8,76.5,76.8z M88.2,80.6c-0.5,0-1-0.4-1-1
			s0.4-1,1-1s1,0.4,1,1S88.7,80.6,88.2,80.6z M62,44.4c0-7.4,6.1-13.3,13.6-13.3s13.6,6,13.6,13.3S83,57.8,75.6,57.8
			S62,51.8,62,44.4z"/>
	</g>
</g>
<path class="st7" d="M86,41c0,3.7-3,6.6-6.7,6.6h-3.4l-2.2,5.1c-0.7,1.8-2.8,2.6-4.6,1.9c1-2.4,2.6-6.2,4.2-9.9c3.5-1.8,8.9-3,8.9-3
	l1.4,0.9v-2.3c0.1-1.5-1.4-1.5-1.4-1.5l-3.9,0L77,37.9h-4.8c-1.9,0-3.5-1.5-3.5-3.4c3.3,0,10.6,0,10.6,0C83,34.4,86,37.4,86,41z
	 M74.7,38.7l2,0.9l0.5-0.9L74.7,38.7z"/>
</svg>
