<?xml version="1.0" encoding="utf-8"?>
<!-- Generator: Adobe Illustrator 22.1.0, SVG Export Plug-In . SVG Version: 6.00 Build 0)  -->
<svg version="1.1" id="Layer_1" xmlns="http://www.w3.org/2000/svg" xmlns:xlink="http://www.w3.org/1999/xlink" x="0px" y="0px"
	 viewBox="0 0 111.6 100.2" style="enable-background:new 0 0 111.6 100.2;" xml:space="preserve">
<style type="text/css">
	.st0{fill:#D8E8F8;}
	.st1{fill:#F4B444;}
	.st2{fill:#0C3A5B;}
	.st3{fill:#EAA139;}
	.st4{fill:#FFC95E;}
	.st5{fill:#D98B36;}
	.st6{fill:#C77629;}
	.st7{fill:#0A3A5B;}
</style>
<title>wallet</title>
<path class="st0" d="M28.6,100.2c-0.3,0-0.5-0.1-0.7-0.3L24,96.1c-0.4-0.4-0.5-1-0.1-1.4c0.4-0.4,1-0.5,1.4-0.1c0,0,0.1,0.1,0.1,0.1
	l3.9,3.9c0.4,0.4,0.4,1,0,1.4C29.1,100.2,28.9,100.3,28.6,100.2"/>
<path class="st0" d="M24.7,100.2c-0.6,0-1-0.4-1-1c0-0.3,0.1-0.5,0.3-0.7l3.9-3.9c0.4-0.4,1.1-0.4,1.4,0c0.4,0.4,0.4,1.1,0,1.4
	l-3.9,3.9C25.3,100.2,25,100.3,24.7,100.2"/>
<g>
	<g>
		<path class="st1" d="M76.2,25.1c-5.2,0-9.9,2.4-12.7,6.3h25.4C86.1,27.5,81.4,25.1,76.2,25.1z"/>
		<path class="st2" d="M92.6,35.6H59.8c-0.7,0-1.4-0.3-1.8-0.9c-0.4-0.6-0.5-1.3-0.2-2c3.1-7.2,10.3-11.8,18.5-11.8
			s15.4,4.6,18.5,11.8c0.3,0.6,0.2,1.4-0.2,2C94.1,35.2,93.4,35.6,92.6,35.6z M63.5,31.4h25.4c-2.9-3.9-7.5-6.3-12.7-6.3
			C71.1,25.1,66.4,27.5,63.5,31.4z"/>
		<g>
			<path class="st3" d="M78.3,31.4c0.1-0.7,0.1-1.4,0.1-2.1c0-1.4-0.2-2.8-0.4-4.1c-0.6-0.1-1.2-0.1-1.8-0.1
				c-5.3,0-9.9,2.5-12.7,6.3H78.3z"/>
		</g>
	</g>
	<g>
		<path class="st1" d="M51.2,31.4c-1.9-6.1-7.9-10.5-14.8-10.5c-6.9,0-12.9,4.4-14.8,10.5H51.2z"/>
		<path class="st2" d="M54,35.6H18.9c-0.6,0-1.2-0.3-1.7-0.7c-0.4-0.5-0.6-1.1-0.5-1.6c1.2-9.4,9.7-16.5,19.7-16.5
			c10,0,18.5,7.1,19.7,16.5c0.1,0.6-0.1,1.2-0.5,1.6C55.2,35.3,54.6,35.6,54,35.6z M21.6,31.4h29.7c-1.9-6.1-7.9-10.5-14.8-10.5
			C29.5,20.9,23.5,25.3,21.6,31.4z"/>
		<g>
			<path class="st4" d="M40.8,31.4l5-4.7c-5.2-4.9-13.6-4.9-18.8,0c-1.4,1.4-2.4,3-3.1,4.7H40.8z"/>
		</g>
	</g>
	<g>
		<path class="st1" d="M41,31.4h30.6c0.1-0.7,0.2-1.4,0.2-2.1c0-8.1-6.9-14.7-15.5-14.7s-15.5,6.6-15.5,14.7
			C40.8,30,40.9,30.7,41,31.4z"/>
		<path class="st2" d="M73.4,35.6H39.2c-1,0-1.9-0.6-2.1-1.6c-0.4-1.6-0.7-3.2-0.7-4.7c0-10.4,8.9-18.9,19.9-18.9
			s19.9,8.5,19.9,18.9c0,1.5-0.2,3.1-0.7,4.7C75.3,34.9,74.5,35.6,73.4,35.6z M41,31.4h30.6c0.1-0.7,0.2-1.4,0.2-2.1
			c0-8.1-6.9-14.7-15.5-14.7s-15.5,6.6-15.5,14.7C40.8,30,40.9,30.7,41,31.4z"/>
		<g>
			<path class="st4" d="M54.1,31.4l11.6-11c-5.2-4.9-13.6-4.9-18.8,0c-3.2,3-4.4,7.1-3.7,11H54.1z"/>
		</g>
	</g>
	<g>
		<path class="st5" d="M76.2,58.7v8.4c0,2.3,2,4.2,4.4,4.2h17.7v16.8c0,2.3-2,4.2-4.4,4.2H18.7c-2.4,0-4.4-1.9-4.4-4.2V37.7
			c0-2.3,2-4.2,4.4-4.2h75.2c2.4,0,4.4,1.9,4.4,4.2v16.8H80.7C78.2,54.5,76.2,56.4,76.2,58.7z"/>
		<path class="st2" d="M93.9,94.4H18.7c-3.7,0-6.6-2.8-6.6-6.3V37.7c0-3.5,3-6.3,6.6-6.3h75.2c3.7,0,6.6,2.8,6.6,6.3v16.8
			c0,1.2-1,2.1-2.2,2.1H80.7c-1.2,0-2.2,0.9-2.2,2.1v8.4c0,1.2,1,2.1,2.2,2.1h17.7c1.2,0,2.2,0.9,2.2,2.1v16.8
			C100.6,91.5,97.6,94.4,93.9,94.4z M18.7,35.6c-1.2,0-2.2,0.9-2.2,2.1v50.4c0,1.2,1,2.1,2.2,2.1h75.2c1.2,0,2.2-0.9,2.2-2.1V73.4
			H80.7c-3.7,0-6.6-2.8-6.6-6.3v-8.4c0-3.5,3-6.3,6.6-6.3h15.5V37.7c0-1.2-1-2.1-2.2-2.1H18.7z"/>
	</g>
	<g>
		<path class="st6" d="M93.9,35.6v16.8h2.2V37.7C96.2,36.5,95.2,35.6,93.9,35.6z"/>
	</g>
	<g>
		<path class="st6" d="M74,67.1l0.6,2.4c0.9,3.5,4.2,6,8,6h6.8c2.4,0,4.4,1.9,4.4,4.2v2.1c0,2.3-2,4.2-4.4,4.2H57.6
			c-1.5,0-2.5-1.4-2.1-2.7c0.8-2.7,1.1-5.6,0.6-8.7c-1.4-9.2-9.2-16.6-18.9-17.8c-8.5-1.1-16.1,2.4-20.7,8.2V86v2.1
			c0,1.2,1,2.1,2.2,2.1h33.2h42.1c1.2,0,2.2-0.9,2.2-2.1V77.6v-4.2v-6.3H74z"/>
	</g>
	<g>
		<g>
			<g>
				<ellipse class="st1" cx="29.8" cy="73.4" rx="17.7" ry="16.8"/>
				<path class="st2" d="M29.8,94.4c-12.2,0-22.1-9.4-22.1-21s9.9-21,22.1-21c12.2,0,22.1,9.4,22.1,21S42,94.4,29.8,94.4z
					 M29.8,56.6c-9.8,0-17.7,7.5-17.7,16.8S20,90.2,29.8,90.2c9.8,0,17.7-7.5,17.7-16.8S39.5,56.6,29.8,56.6z"/>
			</g>
		</g>
		<g>
			<path class="st4" d="M18.8,83.8c-6-5.7-6-15,0-20.8c6-5.7,15.9-5.7,21.9,0L18.8,83.8z"/>
		</g>
	</g>
	<path class="st5" d="M102.8,58.7v8.4c0,2.3-2,4.2-4.4,4.2H80.7c-2.4,0-4.4-1.9-4.4-4.2v-8.4c0-2.3,2-4.2,4.4-4.2h17.7
		C100.8,54.5,102.8,56.4,102.8,58.7z"/>
	<g>
		<path class="st6" d="M98.4,56.6V65c0,1.2-1,2.1-2.2,2.1H78.5c0,1.2,1,2.1,2.2,2.1h17.7c1.2,0,2.2-0.9,2.2-2.1v-8.4
			C100.6,57.5,99.6,56.6,98.4,56.6z"/>
	</g>
	<g>
		<ellipse class="st2" cx="85.1" cy="62.9" rx="2.2" ry="2.1"/>
	</g>
	<g>
		<g>
			<path class="st2" d="M90.6,46.1h-8.8c-0.6,0-1.1-0.5-1.1-1s0.5-1,1.1-1h8.8c0.6,0,1.1,0.5,1.1,1S91.2,46.1,90.6,46.1z"/>
		</g>
	</g>
	<path class="st2" d="M72.9,37.7c-1.4,0-2.7,0.9-3.1,2.1H53c-0.6,0-1.1,0.5-1.1,1c0,0.6,0.5,1,1.1,1h16.8c0.5,1.2,1.7,2.1,3.1,2.1
		c1.8,0,3.3-1.4,3.3-3.1C76.2,39.1,74.7,37.7,72.9,37.7z M72.9,41.9c-0.6,0-1.1-0.5-1.1-1c0-0.6,0.5-1,1.1-1c0.6,0,1.1,0.5,1.1,1
		C74,41.4,73.5,41.9,72.9,41.9z"/>
	<path class="st2" d="M35.3,44c-1.4,0-2.7,0.9-3.1,2.1H16.5c-0.6,0-1.1,0.5-1.1,1s0.5,1,1.1,1h15.7c0.5,1.2,1.7,2.1,3.1,2.1
		c1.8,0,3.3-1.4,3.3-3.1C38.6,45.4,37.1,44,35.3,44z M35.3,48.2c-0.6,0-1.1-0.5-1.1-1c0-0.6,0.5-1,1.1-1c0.6,0,1.1,0.5,1.1,1
		C36.4,47.7,35.9,48.2,35.3,48.2z"/>
	<path class="st2" d="M86.2,83.9H73.8c-0.5-1.2-1.7-2.1-3.1-2.1c-1.8,0-3.3,1.4-3.3,3.1c0,1.7,1.5,3.1,3.3,3.1
		c1.4,0,2.7-0.9,3.1-2.1h12.4c0.6,0,1.1-0.5,1.1-1C87.3,84.3,86.8,83.9,86.2,83.9z M70.7,86c-0.6,0-1.1-0.5-1.1-1s0.5-1,1.1-1
		c0.6,0,1.1,0.5,1.1,1S71.3,86,70.7,86z"/>
	<path class="st2" d="M98.4,52.4H80.7c-0.8,0-1.7,0.2-2.4,0.4L75,49.7c-1-1-2.4-1.5-3.9-1.5H54.8c-0.9,0-1.7-0.3-2.3-0.9l-6.3-5.9
		c-1-1-2.4-1.5-3.9-1.5H15.4c-0.6,0-1.1,0.5-1.1,1c0,0.6,0.5,1,1.1,1h26.9c0.9,0,1.7,0.3,2.3,0.9l6.3,5.9c1,1,2.4,1.5,3.9,1.5h16.2
		c0.9,0,1.7,0.3,2.3,0.9l2.9,2.7c-0.9,0.7-1.5,1.6-1.9,2.6H62.6c-1.5,0-2.9,0.5-3.9,1.5l-1.8,1.7c-0.6,0.6-1.5,0.9-2.3,0.9h-9.2
		c-0.6,0-1.1,0.5-1.1,1s0.5,1,1.1,1h9.2c1.5,0,2.9-0.5,3.9-1.5l1.8-1.7c0.6-0.6,1.5-0.9,2.3-0.9H74V65H61.9c-0.6,0-1.1,0.5-1.1,1
		s0.5,1,1.1,1H74c0,2.7,1.8,5,4.4,5.9l-1.7,1.6c-0.6,0.6-1.5,0.9-2.3,0.9H62.8c-0.5-1.2-1.7-2.1-3.1-2.1c-1.8,0-3.3,1.4-3.3,3.1
		c0,1.7,1.5,3.1,3.3,3.1c1.4,0,2.7-0.9,3.1-2.1h11.6c1.5,0,2.9-0.5,3.9-1.5l2.8-2.7h17.2c3.7,0,6.6-2.8,6.6-6.3v-8.4
		C105,55.2,102,52.4,98.4,52.4z M59.6,77.6c-0.6,0-1.1-0.5-1.1-1s0.5-1,1.1-1c0.6,0,1.1,0.5,1.1,1S60.3,77.6,59.6,77.6z M100.6,67.1
		c0,1.2-1,2.1-2.2,2.1H80.7c-1.2,0-2.2-0.9-2.2-2.1v-8.4c0-1.2,1-2.1,2.2-2.1h17.7c1.2,0,2.2,0.9,2.2,2.1V67.1z"/>
</g>
<path class="st7" d="M42.8,70.3c0,3.9-3.8,7.2-8.5,7.2H30L27.2,83c-0.9,1.9-3.5,2.8-5.8,2c1.2-2.5,3.3-6.7,5.2-10.7
	c4.5-2,11.2-3.3,11.2-3.3l1.8,1v-2.5C39.9,68,38,68,38,68l-4.9,0l-1.7-1.1h-6c-2.4,0-4.4-1.7-4.4-3.7c4.2,0,13.4,0,13.4,0
	C39,63.2,42.8,66.4,42.8,70.3z M28.5,67.8l2.5,0.9l0.6-0.9L28.5,67.8z"/>
</svg>
